<?xml version="1.0" encoding="UTF-8"?>
<!DOCTYPE svg PUBLIC "-//W3C//DTD SVG 1.1//EN" "http://www.w3.org/Graphics/SVG/1.1/DTD/svg11.dtd">
<!-- Creator: CorelDRAW 2020 (64-Bit) -->
<svg xmlns="http://www.w3.org/2000/svg" xml:space="preserve" width="282.34mm" height="159.143mm" version="1.1" style="shape-rendering:geometricPrecision; text-rendering:geometricPrecision; image-rendering:optimizeQuality; fill-rule:evenodd; clip-rule:evenodd"
viewBox="0 0 6722.03 3788.92"
 xmlns:xlink="http://www.w3.org/1999/xlink"
 xmlns:xodm="http://www.corel.com/coreldraw/odm/2003">
 <defs>
  <style type="text/css">
   <![CDATA[
    .fil0 {fill:#201E1E}
   ]]>
  </style>
 </defs>
 <g id="Capa_x0020_1">
  <metadata id="CorelCorpID_0Corel-Layer"/>
  <path class="fil0" d="M2675.91 2407.54c75.33,11.52 196.65,65.94 333.95,-40.02 23.99,-18.52 57.51,-53.61 84.39,-68.46 76.01,22.35 79.28,53.71 222.19,29.44 66.07,-11.22 143.1,-35.77 217.21,-29.43 19.6,41.8 -4.06,523.35 -19.57,588.52 -28.62,-15.12 -2719.62,386.25 -3006.74,371.29 -38.98,-26.43 -5.03,-48.35 -100.75,-45.09 -182.05,6.2 -188.81,172.82 8.23,174.25 938.69,-16.17 2156.73,-303.32 3104.55,-365.87 2.11,139.66 -18.51,431.3 -54.15,572.83 -18.43,73.19 -28.41,95.18 -107.62,102.9 -6.54,121.88 138.07,95.55 168.15,67.1 78.47,-74.22 96.77,-369.21 105.14,-481.36 7.04,-94.41 -7.34,-191.59 20.68,-273.48 176.45,-21.79 1543.06,-40.15 1542.64,-188.57 -15.55,-7.38 -1467.81,62.57 -1469.12,62.61 -49.08,-6.26 -89.85,43.6 -82.76,-70.5 6.12,-98.35 2.77,-201.37 6.55,-302.93 10.52,-282.61 35.25,-146.94 124.26,-228.23 202.8,-185.2 229.51,-707.31 169.02,-535.45 -44.4,101.98 -104.21,223.72 -154.21,320.72 -11.98,37.71 -56.42,83.64 -88.97,113.21 -39.98,-4.29 228.22,-1597.8 435.04,-1778.39 -11.23,-77.82 -81.89,-109.14 -160.74,5.16 -127.87,185.38 -297.22,1133.28 -369.53,1464.99 -12.4,110.4 -30.9,195.48 -37.98,309.72 -80.64,-6.28 -166.66,8.33 -243.75,25.94 -165.51,37.82 -127.61,-36.03 -214.46,-59.23 -50.51,-13.49 -65.46,13.45 -87.05,44.89 -69.17,100.71 -249.22,160.04 -278.73,96.63 -10.01,-28.67 28.69,-40.51 32.64,-83.36 4.72,-51.22 -23.3,-60.95 -63.6,-74.55l165.24 -226.33c138.04,-179.71 246.9,-398.19 281.31,-626.38 33,-218.78 5.37,-365.62 -70.45,-534.91 -134.95,-301.32 -481.97,-505.29 -768.36,-634.22 -221.12,-94.24 -407.02,-114.57 -643.75,-110.52 -288.57,4.95 -703.08,227.48 -896.46,413.29 -236.13,227.02 -673.1,690.78 -734.23,995.42 -65.87,328.27 -76.09,607.47 97.74,904.38 83.79,143.09 135.93,171.68 244.28,267.67 231.01,204.65 705.67,246.52 1011.83,249.61 252.95,-19.33 397.25,-41.06 645.86,-121.17 125.25,-40.35 346.24,-144.23 467.35,-211.47 10.67,-7.21 29.43,-22.36 39.28,-27.22 30.9,-15.25 17.96,3.5 49.24,-18.8 29.14,-20.77 -1.71,-16.58 30.73,-29.2l45.49 -15.46zm3361.23 80.81c25.65,-28.8 9.13,-85.45 12.03,-123.54 44.4,-92.08 319.74,-255.87 294.75,-449.74 -55.71,18.13 -181.12,250.35 -284.02,300.71 -4.87,-46.43 39.29,-172.4 57.39,-218.69 27.64,-70.69 61.14,-183.34 109.78,-236.98 207.16,6.81 296.43,-9.27 494.94,-31.63 -17.59,-41.44 -41.1,-54.42 -109.05,-60.75 -52.47,-5.48 -316.29,-9.26 -326.65,-51.64 51.49,-150.38 189.32,-363.45 262.53,-373.88 38.8,-5.53 49.44,-40.06 -4.88,-70.62 -105.78,-37.83 -260.2,176.79 -295.24,261.34 -119.52,288.35 -155.16,182.1 -483.83,178.59 -119.56,-1.28 -302.83,-28.56 -399.48,-25.09 -205.23,-3.19 -259.67,-50.04 -385.7,-68.78 -14.11,36.41 -34.65,33.69 -26.66,73.87 23.59,118.65 226.33,54.79 388.07,159.05l186.16 141.43c72.09,63.57 100.56,106.04 156.97,170.76 44.49,51.04 176.97,195.06 175.16,263.29 -43.27,14.03 -61.13,-14.01 -80.9,-38.65 -70.19,-87.49 -121.3,0.28 -162.8,31.85 -200.55,152.58 -181.77,80.2 -245.78,23.8 -63.54,-55.99 -129.25,-1.87 -197.44,20.73 -143.35,47.52 -137.28,-25.84 -180.39,-62.99 -75.12,-64.73 -101.51,17.61 -118.11,32.72 -33.08,30.11 -173.62,121.03 -228.56,46.03 -30.16,-41.17 -63.78,-145.76 -131.75,-114.41 -39.26,52.8 10.91,127.23 30.83,163.95 21.16,38.99 57.37,77.3 101.63,100.77 93.65,49.64 189.8,-6.79 262.8,-60.06 14.54,-10.61 19.27,-12.29 33.09,-19.7 63.73,22.83 81.7,68.79 176.77,71.4 48.87,1.34 129.61,-49.43 175.99,-63.91 26.66,17.14 22.41,24.24 44.24,42.51 152.14,127.36 260.89,-38.43 367.32,-97.54 29.31,22.11 57.79,53.52 103.69,64.2 69.23,16.11 73.43,-18.29 128.93,-20.27 5.52,51.82 79.63,66.72 98.18,41.89zm-106.48 -239.74l-5.94 14.51c-50.29,-26.38 -142.19,-170.89 -182.91,-216.6 -21.42,-24.05 -36.78,-42.54 -59.11,-66.79l-127.58 -132.29c-37.25,-36.39 -120.95,-84.25 -138.31,-122.19 35.47,-13.39 545.17,11.69 660.41,23.15 0.01,0.11 -127.83,432.87 -146.56,500.2zm-4616.84 -1858.24c61.08,3.24 109.67,23.15 140.34,64.92 42.9,58.43 29.03,96.74 114.97,102.74 -4.78,-70.86 -50.13,-144.47 -104.85,-179.97 -117.98,-76.53 -261.76,-49.24 -385.83,-15.55 -55.69,7.28 -65.84,27.01 -115.64,38.93 27.77,-48.86 276.07,-181.98 324.19,-201.01 145.91,-57.71 220.03,-94.25 395.61,-116 150.59,-38.61 447.3,43.83 571.03,92.15 207.74,81.13 467.06,235.84 605.26,402.95 283.31,342.58 228.59,627.45 95.05,968.95 -97.59,249.23 -405.75,587.34 -624,753.24 -72.64,-35.25 -5.25,-156.12 47.96,-188.17 24.27,-14.62 47.16,-11.52 69,-22.72 -22.1,-116.21 -173.1,-34.33 -221.34,21.75 -97.56,113.4 -44.55,229.43 -1.88,247.07 -4.65,42.81 2.3,23.01 -35.29,52.02 -203.12,130.78 -325.66,177.91 -558.67,230.32 -186.48,41.93 -522.83,66.06 -695.06,33.1 -193.55,-37.03 -179.69,-11.75 -340.61,-117.14 -59.03,-38.66 -167.33,-147.2 -197.9,-204.02 -110.8,-206 -178.91,-395.98 -149.25,-650.62 4.06,-34.88 4.12,-90.61 9.74,-123.22 2.83,-16.38 10.6,-33.48 13.43,-53.72 3.51,-25.14 0.78,-47.42 5.87,-70.65 100.72,-459.9 524.52,-1092.62 1037.89,-1065.36zm-1121.53 981.61c-47.67,334.99 -67.88,582.53 72.68,901.72 56.11,127.44 60.85,159.42 -21.48,21.38 -156.27,-262.02 -149.92,-486.98 -113.15,-783.73 13.46,-49.44 11.74,-112.44 61.94,-139.38z"/>
 </g>
</svg>
