<?xml version="1.0" encoding="UTF-8"?>
<!DOCTYPE svg PUBLIC "-//W3C//DTD SVG 1.1//EN" "http://www.w3.org/Graphics/SVG/1.1/DTD/svg11.dtd">
<!-- Creator: CorelDRAW 2020 (64-Bit) -->
<svg xmlns="http://www.w3.org/2000/svg" xml:space="preserve" width="182.433mm" height="170.867mm" version="1.1" style="shape-rendering:geometricPrecision; text-rendering:geometricPrecision; image-rendering:optimizeQuality; fill-rule:evenodd; clip-rule:evenodd"
viewBox="0 0 8746.87 8192.36"
 xmlns:xlink="http://www.w3.org/1999/xlink"
 xmlns:xodm="http://www.corel.com/coreldraw/odm/2003">
 <defs>
  <style type="text/css">
   <![CDATA[
    .fil0 {fill:#373435}
   ]]>
  </style>
 </defs>
 <g id="Capa_x0020_1">
  <metadata id="CorelCorpID_0Corel-Layer"/>
  <path class="fil0" d="M2106.73 7739.36c-158.5,44.1 -377.42,130.65 -543.43,102.3 -81.59,-13.98 -227.41,-42.58 -261.99,-127.6 -107.79,-302.62 -32.09,-635.39 45.82,-937.28 47.46,-181.1 57.56,-426.76 190.35,-557.66 348.45,-347.93 3734.03,-1212.92 3890.75,-1850.24 150.15,-131.54 15.02,-474.16 284.5,-530.08l3034.14 -1602.68c-45.52,-75.2 -2454.56,905.69 -2895.48,1111.75 -109.43,60.09 -299.49,107.27 -332.91,-32.29 -102.37,-434.9 -9.4,-1317.1 130.37,-1756.23 91.49,-211.77 224.06,-382.97 -118.17,-468.32 -144.24,-40.29 -400.44,2.54 -286.76,205.38 12.25,21.32 -126.09,1783.51 -121.28,2072.93 1.03,528.87 -2580.28,1642.69 -3125.89,1941.49l-225.69 115.4c-89.53,-44.01 314.82,-964.87 403,-1088.51 109.71,-151.87 283.48,32.29 458.22,-110.82 205.96,-162.52 528.5,-607.43 750.2,-824.41 75.75,77.01 -29.69,160.8 148.09,353.31 474.19,466.04 1322.53,-1268.15 362.09,-379.73 -326.23,-217.01 1516.88,-2601.03 1513.42,-2620.29 -30.32,-150.73 -171.42,-340.13 -334.12,-211.73 -170.9,111.27 -757.12,894.29 -913.23,1094.09l-1043.31 1311.67c-188.47,-132.06 1727.57,-2500.13 1945.34,-2749.54 121.35,-136.61 14.71,-303.42 -452.99,-117.77 -68.11,38.72 -535.52,549.4 -626.67,674.53 -676.05,910.03 -1504.82,2043.9 -1976.02,2998.38 -193.51,380.09 -774.39,1971.99 -873.04,2015.77 -53.99,20.74 -1056.91,583.91 -1090.85,615.19 -175.84,164.1 250.88,412.7 538.12,257.11 50.36,-31.9 272.83,-144.75 327.79,-125.44 20.72,38.51 -64.19,497.3 -74.84,576.22 -27.27,180.85 -33.96,358.52 -3.51,538.22 55.58,334.88 383.19,530.85 699.35,555.63 1065.54,87.08 2272.33,-1187.05 3039.45,-1834.11 568,-477.99 1922.84,-1662.87 2556.68,-1946.84 154.83,-65.38 334.33,-84.42 413.39,-119.84 18.73,-74.86 -6.65,-185.42 -52.87,-248.2 -72.98,-99.13 -172.98,-62.02 -271.85,-54.52 -96.05,7.88 -428.64,147.54 -520.08,206.64 -1194.23,774 -3892.44,3340.59 -4586.07,3548.13zm1298.23 -2753.48c137.47,-62.96 1568.14,-829.36 1593.1,-820.85 106.47,434.48 -2453.16,1218.09 -1593.1,820.85z"/>
 </g>
</svg>
