<?xml version="1.0" encoding="UTF-8"?>
<!DOCTYPE svg PUBLIC "-//W3C//DTD SVG 1.1//EN" "http://www.w3.org/Graphics/SVG/1.1/DTD/svg11.dtd">
<!-- Creator: CorelDRAW 2020 (64-Bit) -->
<svg xmlns="http://www.w3.org/2000/svg" xml:space="preserve" width="89.4428mm" height="37.4128mm" version="1.1" style="shape-rendering:geometricPrecision; text-rendering:geometricPrecision; image-rendering:optimizeQuality; fill-rule:evenodd; clip-rule:evenodd"
viewBox="0 0 352.79 147.57"
 xmlns:xlink="http://www.w3.org/1999/xlink"
 xmlns:xodm="http://www.corel.com/coreldraw/odm/2003">
 <defs>
  <style type="text/css">
   <![CDATA[
    .fil0 {fill:#FEFEFE}
   ]]>
  </style>
 </defs>
 <g id="Capa_x0020_1">
  <metadata id="CorelCorpID_0Corel-Layer"/>
  <g id="_3024311765616">
   <path class="fil0" d="M190.54 28.88c-1.13,-0.76 -3.87,-4.89 -3.87,-6.69 0,-5.11 -0.24,-9.16 5.63,-9.16 3.99,0 -1.64,10.53 -1.76,15.85zm-30.29 -15.85c2.24,0 3.69,-0.07 4.96,2.44 2.38,4.69 -0.13,11.36 -3.2,13.41 0,-5.35 -5.6,-15.85 -1.76,-15.85zm5.99 -10.57c3,-0.7 17.07,-0.7 20.07,0 -2.72,2.36 -9.5,0.76 -11.27,3.17 1.93,0.93 7.17,1.01 9.16,1.06 -1,4.3 -4.65,1.18 -4.93,4.58l3.87 1.41c-1.3,1.77 -4.83,0.86 -6.69,2.11 1.01,1.37 4.41,1.37 5.99,1.41 -0.67,2.49 -3.45,0.44 -5.28,3.17 1.96,0.94 3.42,0.54 5.63,1.06 -0.51,1.92 -3.45,1.69 -5.28,2.11 0.34,1.28 1.4,1.28 2.84,1.39 1.68,0.13 2.36,0.37 3.85,0.37 -0.52,1.93 -2.24,0.78 -4.23,2.11 1.16,1.59 3.64,1.06 6.34,1.06l0 0.7c-1.61,0.13 -3.72,0.22 -3.87,2.11 1.92,0.45 3.28,0.35 5.64,0.35l0 0.7c-1.66,0.39 -3.96,0.67 -4.93,2.11 2.13,1.12 5.8,0.7 8.45,0.7 -0.46,1.73 -2.33,1.38 -4.02,1.61 -0.87,0.12 -1.7,0.12 -2.55,0.27 -1.54,0.27 -1.23,0.04 -1.88,0.93 1.25,1.7 6.56,1.31 8.45,1.41 1.44,0.07 1.63,0.35 3.17,0.35 -0.82,1.12 -1.63,0.9 -3.37,1.2 -2.16,0.38 -2.82,0.23 -2.97,1.97l9.51 0.35c-0.36,1.34 -1.04,1.22 -2.71,1.52 -2.67,0.47 -9.62,0.27 -11.03,2.36 3.77,0.88 13.31,0.19 15.85,1.41 -1.66,2.27 -5.33,1.31 -7.75,2.47 0.27,1 0.01,0.57 0.75,1.02 2.19,1.32 5.78,-0.52 8.41,0.75 -2.14,3.19 -7.83,0.6 -8.1,3.87 2.2,0.51 6.25,0.52 8.45,0.7 -2.06,2.81 -10.39,0.68 -13.38,2.11 1.49,2.22 7.51,1.75 9.87,1.75 1.84,-0 2.14,0.25 3.51,0.36l0 0.7c-2.35,0.05 -5.16,0.7 -7.75,0.7l0 1.06c2.43,0.2 4.12,0.7 7.04,0.7l0 0.7c-2.55,0.59 -11.2,0.7 -12.68,1.41 0.15,1.36 0.04,1.14 1.69,1.48 0.89,0.18 1.64,0.28 2.88,0.29 2.11,0.02 4.24,-0.01 6.35,-0.01 -0.51,0.45 -0.5,0.49 -1.34,0.77 -0.51,0.17 -0.92,0.21 -1.77,0.35l-8.51 0.65c-2.07,-0.01 -2.7,0.22 -4.23,0.35 0.38,1.41 1.08,1.23 2.79,1.44 1.55,0.19 2.29,0.34 4.25,0.32 2.94,-0.02 6.43,-0.21 8.81,0.35 -0.9,1.23 -2.05,1.36 -4.01,1.62 -2.3,0.31 -3.92,-0.42 -4.44,1.55 1.39,0.32 1.38,0.31 3.17,0.35l2.45 0.36c0.85,0.32 0.34,0.11 0.71,0.34 -1.15,0.27 -1.53,0.6 -2.82,0.7 -3.18,0.25 -7.43,-0.41 -10.21,1.06 1.11,1.52 1.89,0.96 4.22,1.06 1.77,0.08 2.99,0.35 5.29,0.35l0 0.7c-0.98,0.08 -2.19,0.4 -3.31,0.57 -1.35,0.21 -2.39,0.05 -3.72,0.16 -2.05,0.16 -5.36,0.51 -7.42,0.69 0.35,1.3 0.03,0.81 1.24,1.22 2.34,0.79 4.79,0.54 7.21,0.54 -1.54,2.11 -5.32,1.3 -7.75,2.47 0.06,2.49 -0.15,0.46 1.06,2.11 -1.71,3.56 0.59,3.17 -6.69,3.17 -2.05,0 -3.25,-2.74 -2.47,-3.52 1.24,-1.25 3.62,0.51 4.23,-1.76 -3.18,-0.74 -7.51,-0.5 -10.6,-2.08 -0.62,-0.32 -0.3,-0.13 -0.67,-0.39 1.88,0 5.39,0.47 5.99,-1.76 -1.62,-0.13 -4.47,-0.48 -6.04,-0.65l-5.49 -1.02c1.85,-0.84 4.11,-0.6 5.19,-2.21 -2.62,-1.26 -7.53,0.45 -9.16,-1.76 3.2,0 3.53,-0.13 5.99,-0.7 -0.52,-1.93 -1.93,-1.23 -4.14,-1.5 -0.46,-0.05 -1.66,-0.28 -2.31,-0.51l-1.4 -0.71c-0.62,-0.41 -0.26,-0.15 -0.6,-0.45 2.23,-0.52 5.43,-0.02 7.79,-0.67 1.36,-0.37 1.4,-0.25 1.72,-1.45 -2.66,-0.62 -7.45,-0.26 -8.8,-2.11 2.85,0 6.07,0.3 8.81,-0.35 1.38,-0.32 1.43,-0.19 1.75,-1.41 -3.1,-0.72 -9.91,-0.01 -12.33,-2.11 2.68,0 4.43,-0.52 6.69,-0.7l0 -1.06c-1.91,0 -6.15,-0.07 -7.4,-1.76 2.5,-1.2 6.77,0.53 8.45,-1.76 -2.26,-0.53 -4.87,-0.43 -7.15,-1.3 -0.55,-0.21 -0.56,-0.22 -0.96,-0.45l-1.04 -0.72c5.28,0 10.49,0.3 14.79,-0.7l0 -0.7c-3.34,0 -7.44,-0.56 -10.86,-1.47l-2.88 -1.35c1.89,0 6.81,-0.12 7.75,-1.41 -1.12,-1.67 -1,-0.82 -3.38,-1.2 -1.68,-0.26 -2.57,-0.51 -3.31,-1.62 1.9,-0.04 7.63,-0.16 8.8,-1.76 -1.64,-2.24 -4.74,0.09 -6.69,-2.82 1.89,0 3.53,-0.37 5.99,-0.35 2.53,0.02 3.99,-0.24 5.98,-0.71 -0.11,-1.34 -0.04,-1.19 -1.28,-1.54 -1.71,-0.47 -4.17,-0.18 -6.09,-0.96 -0.66,-0.27 -0.62,-0.27 -1.08,-0.68 2.22,-0.52 4.86,-0.16 7.21,-0.89 1.18,-0.36 1.13,-0.29 1.24,-1.58 -1.79,-0.04 -4.62,-0.25 -5.63,-1.76l9.86 -1.41c-1.09,-1.48 -2.86,-0.86 -4.79,-1.55l-1.55 -0.92c2.81,0 4.76,-0.16 7.04,-0.35l0 -1.06c-1.68,-0.39 -3.59,-0.66 -5.28,-1.06 0.94,-1.28 1.77,-0.73 4.59,-0.69 2.14,0.03 3.41,0.28 3.87,-1.42 -1.69,-0.39 -5.1,-0.13 -5.63,-2.11 2.09,0 3.02,-0.32 4.58,-0.35 -0.13,-1.59 -0.26,-1.31 -1.7,-1.82 -1.19,-0.43 -1.83,-0.4 -2.18,-1.7 1.12,-0.09 2.84,-0.46 3.87,-0.7l0 -1.41c-1.73,-0.4 -2.6,-0.15 -3.52,-1.41 0.68,-0.93 1.57,-0.75 2.82,-1.41 -0.96,-1.81 -2.46,-1.36 -3.52,-2.82 1.23,-0.29 1.6,-0.24 3.09,-0.44 1.41,-0.19 1.81,-0.22 2.55,-1.33 -1.5,-2.05 -5.95,-0.32 -6.69,-3.52 1.87,-0.16 3.6,-0.7 4.93,-1.41 -1.74,-2.6 -5.32,-0.81 -7.04,-3.17zm-3.87 -1.06c0.19,2.24 3.99,5.58 4.58,8.1 -2.59,0 -5.09,-0.03 -7.15,0.24 -5.85,0.78 -5.65,1.55 -3.49,10.05 0.56,2.2 1.32,3.82 1.85,5.9 2.12,8.31 0.39,6.5 -4.68,12.61 -3.28,3.96 -5.7,12.39 -5.9,17.34 -0.07,1.76 -0.33,2.11 -0.37,3.53 -0.04,1.59 0.29,1.78 0.36,3.51 0.49,11.62 7.17,20.88 18.63,23.99 1.47,0.4 2.04,-0.07 2.64,1.24 0.32,0.7 0.38,2.11 0.76,3.12 0.46,1.22 0.82,1.42 2.08,1.8 2.33,0.7 5.37,0.5 7.95,0.5 2.27,0 3.36,-1.66 3.92,-3.47 1.17,-3.79 0.17,-2.2 3.97,-3.43 12.2,-3.96 17.82,-14.18 17.82,-26.91 0,-20.67 -11.62,-24.91 -11.62,-27.82 0,-7.31 3.87,-11.53 3.87,-19.72 0,-2.72 -8.03,-2.47 -11.27,-2.47 1.09,-2.06 4.12,-6.76 4.23,-8.1 -1.28,-0.86 -3.2,-1.41 -5.28,-1.41l-17.61 0c-2.09,0 -4,0.55 -5.28,1.41z"/>
   <path class="fil0" d="M123.27 94.39l-0.35 0.7 0.35 -0.7zm0 0l0 0zm15.85 -16.9l0 0zm-33.81 -5.64c0.66,-0.42 -0.79,-0.4 0.7,-0.29 0.75,0.05 0.31,0.04 0.7,0.29l-1.41 0zm15.85 -14.09l0.76 0.19 -0.76 -0.19zm-0.7 -5.28l0 0zm0 0l-1.06 0c0.33,1.25 1.36,1.62 0.78,3.05 -0.02,0.05 -0.07,0.14 -0.09,0.19 -0.01,0.03 -0.1,-0.01 -0.33,0.63l1.41 1.41 -1.91 -0.34c-1.23,-0.16 -0.03,-0.55 -1.97,-0.71 -0.2,1.83 0.27,0.87 -1.76,0.7l0.77 2.56c0.44,2.97 1.19,0.86 1.57,3.02 0.12,0.69 -0.01,1.62 0.83,2.87 -1.39,0.32 -1.43,0.16 -1.76,1.41 1.31,0.11 1.86,0.55 2.82,1.06 -0.87,1.65 -1.26,2.11 1.41,2.11l0 1.06c0.46,0 1.3,-0.05 1.71,0.06 1.5,0.39 0.82,0.19 1.11,1 2.23,-0.05 0.83,-0.25 2.13,-0.69 1.26,-0.42 0.05,-0.29 1.39,0.69 0,-3.07 0.05,-3.49 2.11,-4.58 0.45,5.42 5.44,9.73 9.92,11.92 1.43,0.7 2.73,2.64 3.11,4.28 -5.69,-3.01 -8.09,-6.06 -13.52,-6.9 -3.19,-0.49 -6.33,-0.29 -8.97,-1.24 -1.69,-0.61 -5.8,-2.2 -6.74,-3.48 3.73,-0.08 2.14,-2.81 2.82,-4.23l-1.41 0c0.56,-0.84 0.43,-0.37 0.7,-1.41 -0.98,0.47 -0.68,0.35 -2.11,0.35 0.31,-0.76 0.32,-0.56 -0.23,-1.49 -0.37,-0.63 -0.67,-0.96 -1.18,-1.33 -0.22,0.93 -0.32,1.03 -0.7,1.76 -1.52,-0.61 0.14,0.02 -0.89,-0.86l-3.85 -1c-0.08,-0.02 -0.32,-0.07 -0.4,-0.09 -0.4,-0.11 -0.27,-0.06 -0.77,-0.3 -1.21,-0.59 0.38,-0.17 -1.15,-0.58 -0.36,1.56 0.01,1.74 -0.41,2.47 -1.02,1.77 -0.72,-0.42 -0.74,2.11 -0.01,1.06 -0.43,1.77 1.58,3.42 0.45,0.37 -0.16,0.14 0.63,0.46 -0.92,1.26 0.06,0.14 -1.2,0.91l-1.27 1.2c1.51,2.26 1.54,0.18 3.69,2.68 0.67,0.78 0.03,0.43 1.03,0.78l0.8 0.19c2.43,0.52 2.84,-1 4.34,-1.54 -0.49,-0.93 -0.67,-1.02 -0.7,-2.47 1.31,0.69 3.19,2.14 4.58,2.47 -4.03,3.5 -1.89,2.34 -4.11,5.4 -0.8,1.09 -1.45,1.75 -2.59,2.35 -1.94,1.03 -1.72,0.4 -3.87,0.35 0,-4.87 -4.31,-4.08 -4.93,-1.76l-0.7 0c-1.22,-4.57 -7.68,1.08 -2.66,2.36 1.84,0.47 2.09,-0.33 3.01,-0.95 -0.26,2.41 -2.13,-0.04 -1.06,4.58 4.18,0.97 2.23,-1.23 4.17,-2.2 1.88,-0.94 5.43,2.17 10.02,-2.63 1.9,-1.99 0.78,-2.73 2.6,-4.79 1.83,-2.07 2.63,-1.3 4.83,-0.39 2.61,1.08 6.7,0.81 11.53,2.56 1.02,0.37 1.56,0.68 2.42,1.11l1.86 0.96c0.66,0.42 0.25,0.14 0.61,0.45 -3.15,0 -2.94,0.52 -5.23,1.46 -1.38,0.57 -3.15,1.56 -4.98,1.71 0.35,-0.96 -0.02,-0.72 1.41,-1.06l0 -0.7c-2.12,-0.82 0.41,-0.07 -0.86,-1.41l-2.35 -2.1c-0.09,-0.04 -0.34,-0.1 -0.43,-0.11l-0.79 0.16c-0.05,0.01 -0.15,0.04 -0.2,0.04 -0.82,0.03 -0.85,-0.23 -1.71,-0.81 -0.03,1.26 0.35,1.22 -1.11,1.7 -0.05,0.01 -0.15,0.04 -0.19,0.06 -0.05,0.01 -0.15,0.04 -0.2,0.05 -1.79,0.36 -0.67,-0.26 -1.96,-0.24 -0.67,0.01 -0.86,0.33 -1.82,0.55 -0.02,0.04 0.01,0.08 0.01,0.14 0,0.06 0.01,0.13 0.01,0.14l-0.25 1.25c-0.02,0.04 -0.09,0.15 -0.12,0.23 1.32,0.35 2.22,2 3.17,2.82 -1.92,-0.16 -1.13,-1.5 -3.59,0.29 -0.45,0.32 -0.14,0.12 -0.61,0.46 -1.49,1.08 -0.52,-0.3 -1.07,1.41 -0.45,1.41 -0.75,1.26 -1.06,2.42 2.03,0.74 0.4,1.62 0.35,3.87 2.1,-0.18 0.84,-0.41 2.62,-0.01 0.39,0.09 0.07,0.07 0.91,0.13 1.92,0.14 3.03,-0.28 3.52,0.94l1.76 -1.76c0.21,0.89 0.36,2.09 0.7,2.82l1.04 -0.72c1.32,-0.86 1.09,-0.3 1.43,-1.74 1.29,0.11 1.42,0.5 2.47,1.06 -0.19,-0.8 -0.27,-0.81 -0.35,-1.76l1.4 0.72c0.07,-3.17 0.87,-1.67 0.97,-3.71 0.12,-2.42 -2.16,-1.27 -2.72,-3.35 4.75,-0.11 5.52,-4.33 13.64,-2.37 0.65,0.16 2.78,1.91 5.39,3.07l4.49 1.9c0.23,0.09 -0.05,0.09 0.73,0.24l0.59 0.01c0.03,-0 0.12,-0.01 0.17,-0.04 0.79,-1.92 -2.01,-2.63 -3.64,-3.4 -4.45,-2.11 -2.44,-1.79 -6.99,-8.86 -1.97,-3.06 -1.45,-2.54 -0.63,-6.06 -3.37,0.07 -2.52,2.13 -2.47,4.58 -3.9,-0.91 -6.99,-6.62 -7.75,-9.86 3.22,1.7 1.71,1.21 2.91,2.03 1.43,0.99 2.59,0.08 4.49,0.08 -0.43,-1.86 -0.49,-1.02 1.06,-1.76 0.6,-1.94 -1.08,1.65 -0.35,-0.7 1.33,-0.36 0.89,-0.69 2.47,-1.06l0 -0.7c-1.39,-0.32 -1.43,-0.16 -1.76,-1.41 0.98,-0.47 0.68,-0.35 2.11,-0.35l0 -0.7c-1.25,-0.29 -1.81,-0.88 -2.82,-1.41l0.56 -1.06c0.01,-0.03 0.05,-0.12 0.06,-0.14 0.13,-0.34 -1.27,-0.35 1.15,-0.91 -0.82,-1.72 -0.14,-2.22 0,-3.87 -1.11,0.26 -2.15,0.65 -3.18,1.04 -2.09,0.8 -0.85,1.19 -2.45,1.77l1.41 -4.93c-2.35,0.5 -0.88,-0.96 -2.36,-1.1 -0.02,-0 -0.13,0.01 -0.15,0.01l-0.31 0.03c0,-2.81 -0.53,-2.09 -0.84,-2.27 -1.21,-0.7 -0.45,-0.25 -1.27,-1.96 -1.13,0.75 -0.25,0.58 -1.76,0.7 -1.06,-1.59 -0.7,-2.04 -1.41,-3.52 -4.31,2.28 -1.46,2.32 -4.02,3.27 -1.26,0.47 -0.24,-0.98 -1.26,0.95 -1.37,-1 -0.02,-0.55 -1.41,-1.06 0,2.34 -0.07,1.9 -1.13,3.1 -0.48,0.54 -0.3,-0.04 -0.63,0.78z"/>
   <path class="fil0" d="M228.92 94.03c0.03,-0.14 0.91,-0.81 0.58,0.24 -0.28,0.91 0.72,0.27 -0.13,0.05 -0.11,-0.03 -0.6,0.4 -0.45,-0.29zm4.58 -7.04c-0.47,0.36 0.74,0.35 -1.06,0.35 0.43,-0.33 -0.4,-0.23 1.06,-0.35zm-20.07 -9.51l0 0zm33.81 -5.64l-1.41 0c0.66,-0.42 -0.79,-0.4 0.7,-0.29 0.75,0.05 0.31,0.04 0.7,0.29zm-5.63 -4.58l0.1 0.1c-0.01,-0.01 -0.14,-0.07 -0.1,-0.1zm-24.3 -9.16l0 0zm14.79 -5.64l0 0zm-14.79 5.64c-0.75,0.42 -0.51,0.26 -1.1,-0.29 -1.06,-1 0.56,-0.37 -1.35,-1.14 -0.77,-0.31 -2.68,-0.85 -3.54,-1.04 0.21,2.53 1.21,1.58 0,3.87 1,0.23 1.11,0.32 1.57,1.25 0.4,0.79 0.44,-0.21 0.19,0.51 -1.12,1.67 -1.7,0.79 -2.82,2.47 1.43,0 1.13,-0.12 2.11,0.35 -0.45,1.67 -0.85,0.58 -1.41,2.11 0.43,0.23 0.69,0.31 1.23,0.59 1.82,0.94 0.66,0.27 0.86,0.71 0.29,0.63 -0.66,-0.92 0.07,0.36 0.91,1.58 -1.1,-1.39 0.35,0.38 0.48,0.58 0.6,-1.03 0.65,1.49 1.93,0 3,0.59 3.98,0.01 0.36,-0.22 0.82,-0.71 1.3,-1.06 0.57,-0.42 1.11,-0.71 1.77,-1.06 -0.18,2.16 -3.27,8.82 -7.75,9.86 0.12,-1.44 0.73,-2.82 -0.32,-3.95 -0.31,-0.34 -1,-0.78 -1.62,-0.49 -1.66,0.81 1.86,1.35 -0.45,4.86l-3.67 6.2c-1.53,2.56 -0.66,2.33 -5.48,4.38 -1.73,0.74 -2.2,0.7 -2.2,3.08 1.13,-0.26 1.79,-0.72 3.02,-1.21l5.78 -2.68c0.95,-0.55 1.76,-1.52 2.87,-1.71 7.36,-1.3 7.2,0.75 12.1,2.26 1.68,0.52 0.7,-0.35 1.6,0.87 -2.34,0.55 -3.66,1.9 -2.6,4 0.02,0.05 0.1,0.14 0.13,0.23 0.27,0.42 0.16,-0.01 0.29,0.77 0.09,0.5 0.06,0.85 0.06,1.35l1.4 -0.72 0.01 1.43c1.64,-0.44 0.31,-0.55 2.11,-0.7 0.34,1.44 1.59,2.14 2.82,2.47 0,-1.66 0.06,-1.58 0.35,-2.82l1.49 1.33 3.53 -0.5c0.07,-0 0.72,-0.05 0.74,-0.05l0.84 -0.21c1.6,-0.32 0.5,-0.01 2.21,0.14 0,-3.14 -1.03,-1.13 -0.01,-3.74 0.66,-1.7 -1.48,-1.28 -0.34,-3.66 -1.18,-0.03 -0.98,-0.06 -2.05,-0.79 -0.06,-0.04 -0.15,-0.11 -0.21,-0.15 -0.09,-0.06 -0.34,-0.23 -0.43,-0.27l-0.66 -0.29c-0.8,-0.18 -0.05,-0.18 -1.23,0.1 0.2,-1.79 -0.12,-0.38 0.55,-1.22 0.32,-0.4 -0.02,0.02 0.36,-0.36 1.87,-1.87 0.74,-0.46 1.21,-2.65 -0.63,-0.15 -1.31,-0.47 -1.88,-0.51l-1.55 0.2c-0.1,-0 -0.48,-0.09 -0.61,-0.11 -2.17,-0.38 -1.57,-0.3 -1.6,-1.7 -1.28,0.86 -0.44,1.01 -1.89,0.8 -0.65,-0.1 0.01,-0.28 -0.79,-0.14l-1.09 0.69c-0.72,0.54 1,-0.78 -0.32,0.24 -0.07,0.05 -0.29,0.22 -0.36,0.28l-1.02 1.12c-0.89,1.45 0.66,0.63 -0.87,1.25 0.8,1.09 0.9,0.47 1.76,1.76 -1.89,-0.16 -3.45,-0.96 -5.08,-1.61 -2.16,-0.86 -2.39,-1.56 -5.13,-1.56 2.4,-3.27 13.37,-4.09 15.29,-4.79 1.93,-0.7 3.26,-1.85 5.1,-0.46 2.69,2.03 1.19,6.79 8.46,8.13 2.47,0.46 2.37,-0.67 4.14,-0.31 1.18,0.24 1.55,1.17 2.58,2.71 1.07,-0.02 1.28,-0.16 2.11,-0.35l0.35 -0.35c0.1,-1.21 0.45,-1.3 -0.17,-2.3 -0.44,-0.72 -2.08,-1.4 -0.89,-1.6 0.76,-0.13 -0.01,-0.02 0.71,0.31 0.49,0.23 1.04,1.26 3.87,-0.64 0,-1.71 -0.12,-1.72 -0.7,-2.82 -1.11,-0.26 -1.53,-0.45 -2.7,0.09 -0.61,0.28 -0.6,0.24 -0.98,0.8 -0.93,1.37 0.66,-1.36 -0.24,0.47l-0.31 0.75c-0.26,-3.14 -5.28,-3.94 -5.28,1.06 -1.82,0.04 -1.99,0.61 -3.64,-0.22 -1.02,-0.52 -1.89,-1.5 -2.61,-2.34 -0.84,-0.99 -1.27,-1.96 -1.84,-3.09 -0.59,-1.16 -0.16,-0.66 -1.07,-1.4l-1.42 -1.05c1.69,-0.39 7.23,-5.01 3.87,0l1.29 0.84c0.07,0.04 0.16,0.09 0.24,0.12 2.73,1.38 1.79,0.19 4.81,0.44 -1.08,-2.33 1.96,-1.18 3.52,-3.52 -0.05,-0.07 -0.11,-0.27 -0.13,-0.22 -0.13,0.3 0,-0.27 -0.9,-0.86 -1.04,-0.68 -0.58,0.12 -1.43,-1.04 1.21,-0.49 0.04,0.18 1.34,-1.14l0.36 -0.37c1.11,-1.18 0.82,-1.04 0.74,-1.45l-0.11 -1.36c-0.07,-1.77 -0.23,0.35 -1.27,-4.13 -0.56,0.3 -0.2,0.16 -0.91,0.51l-3.38 0.86c-2.04,0.39 -1.9,-0.12 -2.06,1.8 -1.28,-0.94 -0.48,-1.17 -1.76,-2.11 -0.59,2.53 -1,0.24 -1.06,2.82 -1.38,-0.03 -0.83,0.1 -1.76,-0.35 0.52,2.23 0.21,0.74 -0.24,1.52 -0.69,1.19 -0.91,3.32 1.3,4.12l0.8 0.26c0.06,0.02 0.18,0.05 0.26,0.09 -2.13,0.5 -4.63,2.35 -7.08,3.13 -2.94,0.95 -5.65,0.65 -8.98,1.24 -3.68,0.65 -4.65,1.43 -7.11,3.1 -2.05,1.39 -4.24,2.65 -6.41,3.8 1.02,-3.81 4.34,-4.78 5.22,-5.35 3.55,-2.29 7.71,-6.33 7.81,-10.85 2.22,1.18 2.11,1.32 2.11,4.58l1.35 -1.12c1.83,2.47 1.31,0.06 5.34,0.06 -0.45,-2.1 -0.19,-0.35 1.17,-1.27 1.2,-0.81 -1.29,-2.59 3.06,-2.95 -0.97,-1.45 -1.93,-0.74 -1.54,-2.75 0.01,-0.05 0.04,-0.15 0.06,-0.2l0.17 -0.85c0.39,-3 1.33,-0.98 1.78,-2.83l0.59 -3.23c-1.64,0.38 -1.57,1.01 -1.76,-0.7 -2.11,0.18 -0.13,-0.06 -1.32,0.46l-0.93 0.24c-1.36,0.19 -0.41,0.55 -2.33,0.71 0.82,-0.71 1.56,-1.51 2.47,-2.11 -1.75,-2.62 -0.63,-0.82 0,-3.52l-1.06 0c-0.61,-1.5 -1.76,-0.23 -1.76,-3.87 -1.39,0.5 -0.04,0.05 -1.41,1.06 -0.29,-2.67 -0.24,0.75 -2.37,-1.84 -1.59,-1.94 -0.64,-1.18 -2.92,-2.38 -0.5,1.05 -0.46,2.27 -1.06,3.52 -1.8,-0.15 -0.48,-0.27 -2.11,-0.7 -0.16,0.67 -0.1,0.58 -0.34,1.07 -0.03,0.07 -0.08,0.16 -0.12,0.23 -0.04,0.06 -0.1,0.15 -0.14,0.21 -0.5,0.68 -0.79,0.49 -1.19,1.28 -0.25,0.49 -0.25,0.64 -0.32,1.44 -0.67,0.24 0.5,0.21 -1.06,-0.35 -0.05,2.17 -0.34,1.26 -1.41,1.76 0,2.27 0.51,2.89 1.41,4.23z"/>
   <path class="fil0" d="M82.76 145.1c-2.02,0 -4.23,0.34 -4.23,-2.47l0 -23.24c0,-2.6 1.39,-2.11 4.23,-2.11 7.27,0 13.74,5.17 13.74,12.33 0,3.42 0.24,5.05 -1.28,8.23 -2.23,4.64 -6.61,7.27 -12.45,7.27zm-12.68 -28.53l3.17 0 0 30.64c9.98,0 22.69,0.99 27.48,-8.8 0.75,-1.54 1.9,-5.34 1.71,-7.7 -1.4,-17.67 -16.33,-15.91 -31.31,-15.91 -1.15,0 -1.06,0.63 -1.06,1.76z"/>
   <path class="fil0" d="M188.77 115.52c2.17,2.96 0.81,-3.65 4.44,6.83 0.99,2.86 1.95,5.45 3,8.27l5.94 16.6 1.06 0c0.42,-1.81 1.13,-3.33 1.76,-4.93 0.9,-2.25 4.79,-13.57 5.98,-14.44 0.19,2.31 6.61,16 7.4,19.37l1.06 0 5.74 -16.8c1.31,-3.32 3.06,-9.36 4.46,-12.45 0.75,-1.67 1.56,-1.74 3.89,-1.74l0 -1.41 -7.75 0c0.03,1.56 -0.11,1.63 1.41,1.76 -0.73,3.15 -4.61,13.45 -6.2,18.45 -0.41,1.29 -0.31,1.67 -1.2,2.33 -0.59,-2.51 -7.6,-16.54 -7.75,-18.31l-0.7 0c-0.14,1.63 -2.64,7.01 -3.37,8.95l-4.02 9.01c-0.1,-1.17 -1.39,-4.13 -1.91,-5.48 -0.88,-2.3 -6.09,-15.45 -6.19,-16.7 -1.57,0 -6.82,-0.58 -7.04,0.7z"/>
   <path class="fil0" d="M257.45 146.16c0.21,0.78 0.08,1.06 1.06,1.06l9.16 0c0.97,0 0.85,-0.27 1.06,-1.06 -1.11,-1.52 -2.3,-0.13 -4.23,-1.06 -0.93,-1.94 -0.35,-19.69 -0.35,-23.6 1.08,0.72 9.71,11.94 10.72,13.23l9.38 11.76c1.03,1.06 0.25,0.72 2.45,0.72l0 -29.23c0,-1.91 2.69,-1.76 3.87,-1.76l0 -1.41 -9.16 0 0 1.41c3.78,0.88 2.82,2.95 2.82,9.51 0,4.11 0,8.22 0,12.33l-14.13 -17.56c-0.83,-1.04 -1.48,-1.9 -2.34,-2.94 -2.41,-2.95 -1.54,-2.74 -5.01,-2.74 -1.74,0 -1.06,4.73 -1.06,8.1l0 18.32c0.01,1.47 0.32,3.36 -0.62,3.96 -1.47,0.94 -2.42,-0.66 -3.61,0.97z"/>
   <path class="fil0" d="M110.24 116.57l2.11 0c0,5.35 -0.57,18.9 0.82,23.13 0.73,2.21 0.99,2.47 2.43,3.91 1.14,1.13 2.06,2.03 3.74,2.6 4.33,1.48 10.29,1.27 14,-1.26 2.25,-1.53 3.51,-3.27 4.13,-6.44 0.78,-3.98 0.24,-15.69 0.24,-20.89 1.71,-1.14 0.18,-1.06 3.87,-1.06 -0.06,-2.51 -0.18,-1.76 -9.16,-1.76 -1.35,0 -0.13,-0.11 -1.06,0.35 0.24,2.93 3.87,0.34 3.87,3.17l0 17.26c0,11.43 -12.97,10.47 -15.8,6.29 -1.37,-2.03 -1.81,-4.73 -1.81,-8.05l0 -19.02 -7.4 0c-1.51,0 -1.51,1.76 0,1.76z"/>
   <path class="fil0" d="M48.25 121.86l5.64 12.68 -10.92 0 5.28 -12.68zm-16.9 24.65c0.41,0.59 0.05,0.7 1.06,0.7l9.86 0c0.97,0 0.85,-0.27 1.06,-1.06 -1.36,-1.85 -4.58,0.33 -4.58,-1.41 0,-1.55 2.72,-6.16 3.17,-8.1l12.68 0 4.58 10.57 8.45 0c-0.05,-2.41 -0.62,-1.76 -3.17,-1.76l-9.28 -19.25c-0.69,-1.43 -1.04,-2.46 -1.76,-3.88 -1.25,-2.48 -2.59,-6.5 -4.11,-7.51 -1.01,0.74 -1.17,1.8 -2.11,3.88l-9.36 21.63c-3.86,9.27 -5.53,2.6 -6.49,6.19z"/>
   <path class="fil0" d="M300.07 115.87l0 30.29c0,0.81 0.24,1.06 1.06,1.06l20.43 0 0 -2.11 -14.79 0c-1.08,0 -1.41,-1.03 -1.41,-2.11l0 -11.62 13.74 0c0,-3.12 0.47,-2.11 -13.74,-2.11 0,-14.54 -2.02,-12.33 8.1,-12.33 3.29,0 8.45,0.69 8.45,-1.06 0,-0.81 -0.24,-1.06 -1.06,-1.06l-19.72 0c-0.81,0 -1.06,0.24 -1.06,1.06z"/>
   <path class="fil0" d="M-0 130.66c0,5.33 0.93,9.51 5.03,12.93 5.14,4.3 13.89,5.27 20.22,2.1 1.61,-0.81 4.57,-2.69 5.04,-4.47l-0.77 -0.63c-3.57,2.28 -4.4,4.51 -11.9,4.51 -16.18,0 -14.8,-28.18 -0.7,-28.18 5.42,0 9.45,0.75 10.92,7.04l1.06 0 0 -6.34c-3.56,-2.38 -7.89,-2.82 -12.68,-2.82 -8.53,0 -16.2,7.33 -16.2,15.85z"/>
   <path class="fil0" d="M149.33 122.56c0,9.08 15.14,10.46 15.14,16.9 0,5.53 -2.4,5.99 -6.69,5.99 -4.51,0 -7.86,-3.77 -8.1,-6.69l-1.06 0c-0.67,1.2 -0.35,3.5 -0.35,4.93 0,1.99 7.3,3.87 9.16,3.87l3.52 0c4.19,0 8.8,-3.82 8.8,-9.16 0,-8.93 -15.85,-10.44 -15.85,-16.91 0,-4.9 1.87,-4.93 5.99,-4.93 3.79,0 6.33,3.27 7.04,6.34l1.06 0 0 -5.64c-4.42,-2.34 -4.75,-2.82 -10.57,-2.82 -3.76,0 -8.1,2.99 -8.1,8.1z"/>
   <path class="fil0" d="M332.47 121.86c0,10.89 15.14,9.55 15.14,19.02 0,5.45 -10.42,7.39 -14.13,-0.31 -0.7,-1.46 -0.16,-1.63 -1.72,-1.8 -0.67,1.2 -0.35,3.5 -0.35,4.93 0,1.99 7.3,3.87 9.16,3.87l3.6 0c1.75,-0.09 2.98,-0.5 5.22,-2.1 1.46,-1.05 2.57,-2.84 3.07,-4.68 3.2,-11.74 -18,-12.46 -15.46,-21.41 1.34,-4.73 9.51,-4.1 12.03,1.06 1.16,2.37 0.4,2.12 1.75,2.48 0.67,-1.2 0.35,-3.5 0.35,-4.93 0,-2.09 -6.77,-3.87 -9.51,-3.87 -4.52,0 -9.16,3.33 -9.16,7.75z"/>
   <path class="fil0" d="M240.55 116.22l1.76 0 0 29.23 -2.47 0 0 1.76 8.45 0c1.35,0 0.13,0.11 1.06,-0.35 -0.13,-1.52 -0.2,-1.37 -1.76,-1.41l0 -29.23 1.41 0 0 -1.41 -8.45 0 0 1.41z"/>
   <path class="fil0" d="M99.67 88.4c-2.42,-1.62 -1.15,-0.69 -2.47,-3.17 -3.62,0 -2.39,1.75 -2.05,2.8 0.08,0.24 0.46,-0.52 0.21,1.04 -0.22,1.32 -0.31,0.44 -1.41,0.2 -0.69,-0.15 -0.55,-0.16 -1.33,-0.16 -0.58,0.87 -1.19,0.88 -0.98,2.02 0.2,1.04 1.04,1.02 1.37,1.71 0.34,0.7 -0.4,3.33 2.78,3.33 1.99,-0 2.95,-1.58 3.01,-3.15 0.09,-2.17 -0.41,-0.34 0.7,-1.96 0.76,-1.11 0.72,-1.51 0.17,-2.65z"/>
   <path class="fil0" d="M253.22 88.05l-0.35 0.35c-0.61,2.6 -0.12,1.38 0.74,3.13 0.04,0.08 0.42,6.34 4.55,4.3 1.27,-0.63 1.77,-1.7 1.05,-3.2 0.93,-0.22 1.03,-0.32 1.76,-0.7 0,-1.36 0.24,-2.22 -0.87,-2.7 -1.29,-0.56 -2.05,0.18 -2.65,0.58 -0.71,-3.04 0.08,-0.82 0.7,-3.17 -2.84,-3.27 -2.95,-0.19 -3.5,0.57 -0.25,0.34 -1.02,0.63 -1.43,0.84z"/>
   <path class="fil0" d="M70.44 91.22c0,2.31 0.93,-0.11 0.31,2.77 -0.99,4.58 7.48,3.79 4.27,-1.01 2.16,-1.45 0.45,-1.31 1.57,-4.04 0.98,-2.4 0.94,-3.04 -1.92,-3.71 -2.94,1.97 -0.29,1.79 -3.08,4.31 -0.54,0.49 -1.14,0.88 -1.14,1.68z"/>
   <path class="fil0" d="M275.41 86.99c0.19,0.8 0.33,1.1 0.61,1.85 0.51,1.39 0.21,0.83 0.5,2.33 0.23,1.22 0.5,1.15 0.67,1.71 0.31,1 -0.37,0.79 -0.37,1.85 0,3.12 5.28,3.12 5.28,0 0,-1.09 -0.41,-0.43 -0.5,-1.52 -0.13,-1.46 1.87,-1.38 -1.03,-3.99 -1.75,-1.58 -0.41,-0.18 -1.09,-2.43 -0.8,-2.67 -3.18,-1.13 -4.07,0.2z"/>
   <path class="fil0" d="M92.27 78.89c0,1.07 0.34,1.42 0.7,2.11 -4.62,1.23 0.28,6.66 2.16,2.82 0.55,-1.13 -0.1,-1.35 -0.4,-2.46 4.2,-0.09 3.11,-4.93 0.35,-4.93 -1.51,0 -2.82,1.09 -2.82,2.47z"/>
   <path class="fil0" d="M254.99 78.19c0.13,1.54 0.41,1.85 1.06,2.82 0.8,0.19 0.81,0.27 1.76,0.35 -0,0 -1.72,3.47 1.41,3.87 0.83,0.11 4.63,-2.15 0.7,-4.23 1.11,-4.79 -2.16,-6.01 -4.93,-2.82z"/>
   <path class="fil0" d="M249.7 96.15c3.76,0 4.97,-5.99 0.7,-5.99 -1.56,0 -3,1.3 -3.35,2.67 -0.41,1.64 0.79,3.31 2.64,3.31z"/>
   <path class="fil0" d="M86.64 87.7l-0.35 -0.35c-2.29,0 -2.36,0.23 -3.15,2.15 -0.4,0.96 -0.89,1.66 0.24,2.86l0.8 0.62c-4.31,1 -0.52,6.38 2.11,1.41l-0.49 -0.56c-0.54,-0.42 -0.15,-0.29 -0.92,-0.49 0.98,-1.33 1.17,-0.22 1.69,-2.19 0.34,-1.3 0.49,-2.57 0.07,-3.44z"/>
   <path class="fil0" d="M270.48 90.51c0,1.31 0.66,1.73 1.76,2.47 -1.26,1.88 -1,2.43 1.06,3.52 1.83,-0.97 2.82,-2.85 2.82,-3.17 0,-0.98 -1.66,-4.58 -3.52,-4.58 -0.9,0 -2.11,0.76 -2.11,1.76z"/>
   <path class="fil0" d="M76.43 92.98l1.22 2.31c0.76,1.18 1.35,1.28 2.3,0.86 2.16,-0.58 1.01,-2.2 0.7,-3.52 3.07,-0.82 0.76,-5.32 -1.94,-3.38l-2.28 3.73z"/>
   <path class="fil0" d="M99.67 92.63c0,4.66 5.99,4.3 5.99,1.06 0,-3.62 -5.99,-5.23 -5.99,-1.06z"/>
   <path class="fil0" d="M265.9 87.7c-0.42,0.88 -0.36,0.42 -0.17,1.55 0.01,0.03 0.15,0.47 0.19,0.67 0.01,0.06 0.02,0.16 0.03,0.22 0.43,3.13 0.76,1.41 2.06,3.18 -3.49,0.93 0.16,5.2 2.47,1.76 -0.37,-1.6 -0.51,-1.74 -2.11,-2.11 0.79,-0.69 1.23,-1.12 1.76,-2.11 -0.21,-0.39 -0.58,-1 -0.75,-1.36 -0.35,-0.75 -0.32,-1.1 -0.66,-1.81 -1.04,-0.24 -1.07,-0.35 -2.47,-0.35l-0.35 0.35z"/>
   <path class="fil0" d="M266.61 81.36c0,0.95 0.17,0.97 0.35,1.76 5.3,2.54 7.53,-5.28 3.17,-5.28 -1.98,0 -3.52,1.54 -3.52,3.52z"/>
   <path class="fil0" d="M85.58 83.12c1.91,-7.99 -7.7,-5.51 -5.01,-1.36 1.19,1.84 3.02,2.31 5.01,1.36z"/>
   <path class="fil0" d="M97.91 77.13c0,4.98 5.64,3.33 5.64,0 0,-2.95 -5.64,-2.95 -5.64,0z"/>
   <path class="fil0" d="M260.62 76.07c0,3.35 4.93,3.82 4.93,-1.41 0,-2.34 -4.93,-2.88 -4.93,1.41z"/>
   <path class="fil0" d="M261.68 90.16c0,1.75 0.45,0.49 0.11,1.62 -0,0 -2.99,4.02 1.29,4.02 2.1,0 1.35,-3.46 1.42,-3.7 0.19,-0.68 0.7,0.35 0.7,-1.93 0,-2.19 -3.52,-1.38 -3.52,0z"/>
   <path class="fil0" d="M86.99 75.02c0,3.93 4.93,5.22 4.93,0.7 0,-3.7 -4.93,-3.68 -4.93,-0.7z"/>
   <path class="fil0" d="M87.34 89.46l0.33 1.81c0.66,1.48 0.45,-0.15 0.45,1.48 0.01,5.22 5.23,3.1 3.12,-0.5 -0.46,-0.78 -0.21,0.14 -0.43,-0.78 -0.13,-0.54 0.53,-2.7 -1.71,-2.7 -1.03,0 -0.38,0.3 -1.76,0.7z"/>
   <path class="fil0" d="M268.72 85.93c0,2.16 3,3.16 4.49,1.67 1.58,-1.58 0.02,-4.13 -2.03,-4.13 -1.19,0 -2.47,1.27 -2.47,2.47z"/>
   <path class="fil0" d="M78.89 85.58c0,4.03 4.93,3.49 4.93,0 0,-2.66 -4.93,-2.66 -4.93,0z"/>
   <path class="fil0" d="M253.93 71.85c1,-0.53 2.32,-1.1 1.98,-2.67 -0.26,-1.23 -1.54,-2.16 -2.52,-2.04 -3.3,0.41 -2.73,3.96 0.53,4.72z"/>
   <path class="fil0" d="M96.85 69.03c0,1.12 0.1,3.11 2.32,2.69 2.25,-0.42 3.96,-4.45 -0.56,-4.45 -0.82,0 -1.76,0.94 -1.76,1.76z"/>
   <path class="fil0" d="M261.68 80.65l0 0.7c0,2.23 4.23,2.87 4.23,0.35l0 -0.35c0,-3.61 -4.23,-2.54 -4.23,-0.7z"/>
   <path class="fil0" d="M86.64 81c0,2.1 2.36,4.2 4.58,0 -0.5,-0.94 -0.8,-1.85 -2.21,-1.97 -0.94,-0.08 -2.37,0.87 -2.37,1.97z"/>
   <path class="fil0" d="M65.16 92.63l0 2.11c4.88,3.27 5.11,-3.17 2.11,-3.17 -0.83,0 -1.57,0.69 -2.11,1.06z"/>
   <path class="fil0" d="M283.16 93.68c2.52,4.76 4.58,0.06 4.58,0 0,-1.59 -2.63,-3.68 -4.58,0z"/>
   <path class="fil0" d="M244.42 88.4l0 2.11c1.81,1.22 1.94,1.3 3.87,0l0 -2.11c-1.6,-1.07 -1.12,-1.84 -3.87,0z"/>
   <path class="fil0" d="M104.25 89.46c0,0.81 0.12,0.41 0.35,1.41 1.9,0.91 1.98,0.68 3.52,-0.35l0 -2.11c-1.36,-0.91 -1.16,-1.06 -2.82,-1.06 -0.37,0.55 -1.06,1.28 -1.06,2.11z"/>
   <path class="fil0" d="M86.29 87.34l0.35 0.35c3.35,0 3.78,-1.38 2.11,-3.87l-2.11 0c-1.24,1.85 -1.32,1.69 -0.35,3.52z"/>
   <path class="fil0" d="M265.9 87.7l0.35 -0.35c1.23,-1.84 0.77,-1.84 -0.35,-3.52 -1.82,0 -2.82,-0.13 -2.85,1.75 -0.05,2.58 1.92,2.12 2.85,2.12z"/>
   <path class="fil0" d="M93.68 73.96c0,0.81 0.12,0.41 0.35,1.41 0.7,0.34 1.26,0.51 2.11,0.7 1.14,-0.99 1.41,-0.82 1.41,-3.17 -0.27,-0.18 -1.49,-1.06 -1.76,-1.06 -1.14,0 -2.11,0.97 -2.11,2.11z"/>
   <path class="fil0" d="M254.99 73.61c0,1.47 1.17,1.97 2.11,2.47 0.78,-0.42 1.06,-0.59 1.76,-1.06l0 -2.11c-1.3,-0.87 -1.77,-1.53 -3.04,-0.57 -0.33,0.25 -0.84,1.02 -0.84,1.27z"/>
   <path class="fil0" d="M89.81 86.64c0,0.95 0.17,0.97 0.35,1.76 2.41,0.56 3.17,0.76 3.17,-2.11 -0.98,-0.66 -1.07,-0.56 -2.11,-1.06 -0.06,0.05 -0.17,0.05 -0.2,0.16 -0.05,0.19 -1.21,0.74 -1.21,1.25z"/>
   <path class="fil0" d="M259.21 86.29c0,4.01 3.52,2.48 3.52,1.06l-1.22 -1.95c-0.04,-0.03 -0.13,-0.11 -0.19,-0.16 -1.04,0.5 -1.13,0.4 -2.11,1.06z"/>
   <polygon class="fil0" points="224.35,96.15 223.99,96.15 224.29,96.56 "/>
   <polygon class="fil0" points="222.58,93.33 222.23,93.33 222.53,93.74 "/>
   <line class="fil0" x1="254.99" y1="78.19" x2="254.99" y2= "78.19" />
  </g>
 </g>
</svg>
