<?xml version="1.0" encoding="UTF-8"?>
<!DOCTYPE svg PUBLIC "-//W3C//DTD SVG 1.1//EN" "http://www.w3.org/Graphics/SVG/1.1/DTD/svg11.dtd">
<!-- Creator: CorelDRAW 2020 (64-Bit) -->
<svg xmlns="http://www.w3.org/2000/svg" xml:space="preserve" width="77.5786mm" height="49.2138mm" version="1.1" style="shape-rendering:geometricPrecision; text-rendering:geometricPrecision; image-rendering:optimizeQuality; fill-rule:evenodd; clip-rule:evenodd"
viewBox="0 0 289.09 183.39"
 xmlns:xlink="http://www.w3.org/1999/xlink"
 xmlns:xodm="http://www.corel.com/coreldraw/odm/2003">
 <defs>
  <style type="text/css">
   <![CDATA[
    .fil0 {fill:#FEFEFE}
   ]]>
  </style>
 </defs>
 <g id="Capa_x0020_1">
  <metadata id="CorelCorpID_0Corel-Layer"/>
  <g id="_2079462813120">
   <path class="fil0" d="M194.76 62.57l0 0.23c1.6,0.77 3.83,1.07 4.96,3.36 0.22,0.44 0.34,0.63 0.5,1.14 1.22,3.67 0.75,5.6 -2.46,7.76l-3.23 1.69c-2.72,1.23 -6.88,2.36 -9.84,2.34 -0.4,-0 -0.75,-0.02 -1.13,0.05 -0.36,0.07 -0.79,0.11 -1.21,0.06 -1.02,-0.12 -2.32,-0.09 -3.36,-0.27l-5.16 -1.06c-0.66,-0.16 -1.35,-0.34 -1.94,-0.52 -1.25,-0.39 -2.56,-0.66 -3.75,-1.05 -0.89,-0.3 -1.73,-0.64 -2.52,-1.12 -1.2,-0.73 -4.83,-4.21 -6,-5.72 -0.1,-0.13 -0.17,-0.18 -0.28,-0.3l-3.16 -3.05c-0.42,-0.42 -0.79,-0.84 -1.23,-1.23l-2.7 -2.22c-0.76,-0.5 -3.17,-1.87 -4.09,-1.34 -0.64,0.37 -0.78,0.9 -0.64,1.61 0.18,0.87 0.51,1.57 0.87,2.29 0.78,1.56 1.82,2.91 2.92,4.23 1.33,1.6 2.68,3.16 4.16,4.63 0.3,0.3 0.51,0.52 0.82,0.82l0.88 0.76c0.99,0.96 1.64,1.03 2.36,2.33 1.59,2.88 2.94,7.7 3.64,10.77 1.51,6.63 0.69,17.54 -3.31,22.57l-2.13 1.85c-2.34,1.37 -5.69,0.46 -7.53,-1.14 -1.96,-1.7 -1.81,-2.59 -2.55,-4.13l-1.99 0 0 5.86 3.33 1.71c1.45,0.59 3.22,0.98 4.99,0.98 4.56,0 10.16,-2.8 13.02,-6.2l0.16 -0.19c0.02,-0.02 0.04,-0.04 0.05,-0.06 3.2,-3.79 4.34,-8.91 4.34,-13.82 0,-3.15 -0.44,-5.83 -0.93,-8.8 -0.15,-0.94 -0.28,-1.93 -0.48,-2.8 0.87,0.2 1.62,0.43 2.55,0.61 0.86,0.17 1.78,0.34 2.77,0.51l2.93 0.35c0.52,0.1 0.99,0.02 1.52,0.12 1.58,0.29 5.57,-0.1 6.87,-0.31 2.99,-0.46 5.28,-1.39 7.81,-2.85 4.68,-2.7 8.94,-8.07 8.94,-13.67 0,-2.4 -0.78,-5.64 -2.04,-7.69 -0.21,-0.35 -0.35,-0.51 -0.54,-0.87l-6.21 0 0 1.76z"/>
   <path class="fil0" d="M147.41 2.58l0 6.09c0.71,0 1.11,-0.06 1.77,-0.11 0.6,-0.05 0.53,-0.63 0.76,-1.23 0.36,-0.91 0.86,-1.88 1.48,-2.5 1.26,-1.25 2.02,-1.62 3.79,-2.07 2.04,-0.51 3.68,-0.29 5.18,1.13 0.54,0.52 1.06,1.2 1.43,1.85l0.59 1.05c0.19,0.37 0.34,0.69 0.54,1.1 1.92,3.83 2.85,8.45 2.85,13.44 0,4.05 -1.11,7.61 -1.97,10.8 -1.6,5.95 -1.99,5.98 -5.97,9.97l-1.6 1.57c-0.84,0.96 -0.88,0.87 -1.77,1.75l-0.81 0.83c-0.23,0.2 -0.03,0 -0.23,0.23 -0.17,0.19 -0.21,0.25 -0.39,0.43l-1.17 1.17c-0.22,0.23 -0.18,0.24 -0.36,0.46l-1.58 1.7c-0.81,0.89 -2.08,3.28 -2.08,4.48 0,2.02 2.81,0.88 3.63,0.47 1.05,-0.52 1.98,-1.09 2.9,-1.79l5.04 -4.22c1.38,-1.39 2.56,-2.54 3.75,-4.1 0.26,-0.35 0.38,-0.57 0.74,-0.79 4.74,-2.88 13.11,-4.8 18.51,-4.8 3.15,0 6.39,0.46 8.98,1.1 3.31,0.82 7.87,2.58 8.91,6.21 0.69,2.43 -0.35,4.65 -1.71,6.52 -0.52,0.72 -1.33,1.25 -2.11,1.64 -0.57,0.28 -1.18,0.54 -1.88,0.7l0 2.11 5.74 0c1.35,-2.55 2.81,-4.8 2.81,-7.97 0,-3.8 -1.6,-7.56 -3.58,-10.48 -0.92,-1.36 -2.16,-2.58 -3.47,-3.56 -0.46,-0.35 -0.91,-0.67 -1.39,-0.95 -1.5,-0.88 -3.2,-1.63 -4.94,-2.09 -0.66,-0.18 -1.2,-0.28 -1.92,-0.42 -4.54,-0.89 -9.43,-0.27 -13.91,0.49 -0.82,0.14 -1.85,0.38 -2.67,0.38l1.05 -5.16c0.06,-0.4 0.16,-0.97 0.21,-1.31 0.18,-1.23 0.23,-4.08 0.31,-4.5 0.2,-1.11 -0.11,-4.52 -0.35,-5.72 -0.26,-1.31 -0.44,-2.55 -0.92,-3.77 -0.16,-0.41 -0.28,-0.79 -0.46,-1.18 -0.18,-0.38 -0.27,-0.69 -0.48,-1.05l-0.54 -0.98c-1.85,-3.11 -4.54,-6.33 -7.85,-7.97 -2.8,-1.39 -3.84,-1.51 -6.32,-1.52l-1.29 0c-1.32,0 -2.99,0.51 -4.06,0.86 -0.67,0.22 -1.13,0.44 -1.72,0.74 -0.32,0.16 -0.49,0.23 -0.76,0.41 -0.34,0.22 -0.43,0.37 -0.72,0.56z"/>
   <path class="fil0" d="M117.65 19.33c0,4.9 0.28,6.71 1.1,11.32 0.08,0.46 0.19,0.87 0.19,1.34 -0.44,-0.21 -1.89,-0.51 -2.53,-0.63 -5.08,-1.02 -12.02,-1.7 -17.08,0 -1.84,0.62 -3.11,1.05 -4.76,2.15 -0.24,0.16 -0.47,0.31 -0.7,0.47l-1.62 1.19c-3.41,2.69 -6.58,6.96 -6.58,11.46 0,3.53 0.67,6.29 2.58,9.14l6.09 0 0 -2.11c-0.63,-0.05 -2,-0.67 -2.46,-0.94 -1.91,-1.12 -2.29,-1.81 -3.05,-3.75 -1.34,-3.42 -0.19,-6.04 2.89,-7.66l2.15 -1.13c2.88,-1.44 5.99,-2.21 9.25,-2.59 1.33,-0.16 3.25,-0.35 4.6,-0.13 0.51,0.08 1.04,-0.02 1.57,0.07 0.99,0.18 1.96,0.23 2.87,0.41 1.29,0.26 7.58,1.84 9,2.37 1.37,0.51 2.01,0.74 3.25,1.67l1.72 1.57c0.29,0.29 0.47,0.46 0.75,0.78 0.02,0.02 0.04,0.05 0.05,0.06 0.02,0.02 0.04,0.04 0.06,0.06l0.71 0.7c0.51,0.66 1.02,1.11 1.6,1.68 1.12,1.12 2.16,2.16 3.28,3.28 1.33,1.33 3.76,3.58 5.44,4.41 1.3,0.64 2.38,1.21 3.23,0.57 1.51,-1.12 -1.22,-5.15 -1.99,-6.15l-4.98 -5.92c-1.06,-1.06 -2.07,-2.01 -3.3,-2.91 -1.52,-1.12 -2.58,-4.24 -3.22,-6.04 -0.15,-0.41 -0.26,-0.65 -0.41,-1.11 -0.16,-0.47 -0.23,-0.76 -0.38,-1.26 -2.17,-7.31 -2.37,-15.27 0.17,-22.47 0.35,-0.98 1.31,-3 1.98,-3.76 0.21,-0.24 0.23,-0.31 0.41,-0.53 2.35,-2.79 5.64,-2.8 8.57,-1.01 1.61,0.98 2.44,2.09 3.12,3.91 0.29,0.79 -0.02,0.82 1.99,0.82 0.27,0 0.35,-0.08 0.35,-0.35l0 -5.39c-0.52,-0.35 -0.93,-0.65 -1.52,-0.94 -4.1,-2.03 -6.23,-2.45 -10.92,-1.19 -0.6,0.16 -1.12,0.31 -1.69,0.54 -0.3,0.12 -0.54,0.21 -0.83,0.34l-4.28 2.52c-1.94,1.53 -3.44,3.56 -4.55,5.76 -1.25,2.5 -2.11,6.15 -2.11,9.37z"/>
   <path class="fil0" d="M85.78 66.21c0,3.15 0.67,5.79 2.03,8.51 0.82,1.63 2.26,3.7 3.14,4.47 0.13,0.12 0.17,0.16 0.3,0.28l2.51 2.06c0.11,0.07 0.23,0.17 0.35,0.24 0.23,0.14 0.17,0.08 0.39,0.19 3.95,2.07 7.16,2.76 11.77,2.76 3.1,0 5.68,-0.41 8.58,-0.91 0.99,-0.17 1.88,-0.29 2.78,-0.5 -1.15,4.95 -1.64,7.22 -1.64,12.77 0,3.03 0.56,5.61 1.33,7.93 0.67,2.02 1.71,3.64 2.88,5.32 0.69,0.98 1.77,2.36 2.77,3.09 0.92,0.68 1.22,1.24 2.63,2.06 3.96,2.33 7.6,2.84 12.08,1.43 1.57,-0.49 3.72,-1.77 3.73,-1.77l0 -6.21 -1.99 0c-0.13,0.27 -0.19,0.53 -0.31,0.87l-0.82 1.76c-0.33,0.54 -0.63,1.07 -1.07,1.51l-0.71 0.58c-0.46,0.35 -1.16,0.61 -1.77,0.81 -1.2,0.4 -2.7,0.91 -4.14,0.47 -2.99,-0.92 -4.48,-4.51 -5.56,-7.22 -0.26,-0.65 -0.47,-1.2 -0.68,-1.9 -1.42,-4.78 -1.74,-9.82 -0.77,-14.68l0.95 -3.97c0.56,-2.24 1.13,-4.72 2.15,-6.76 0.95,-1.89 2.66,-3.3 4.13,-4.78 0.56,-0.56 1.04,-1.16 1.67,-1.61 0.62,-0.45 4.48,-4.48 5.15,-5.28l1.62 -1.9c0.64,-0.83 1.79,-3.03 1.79,-3.95 0,-0.61 -0.61,-1.19 -1.21,-1.24 -1.83,-0.14 -4.91,2.19 -6.43,3.33l-2.7 2.22c-0.85,0.66 -3.35,3.15 -3.77,3.73l-1.11 1.36c-0.86,1.14 -1.61,1.45 -2.87,2.05 -3.01,1.43 -6.14,2.34 -9.43,2.99 -1.7,0.34 -3.65,0.69 -5.42,0.68 -0.61,-0 -0.76,0.06 -1.18,0.11 -1.2,0.14 -5.81,-0.41 -6.91,-0.58 -1.39,-0.22 -2.8,-0.54 -4,-0.92 -2.38,-0.74 -5.44,-2.06 -6.78,-4.24 -0.62,-1.01 -0.94,-1.97 -0.94,-3.28 0,-1.8 1.1,-3.8 1.96,-4.84 0.99,-1.2 2.33,-1.95 3.9,-2.31l0.12 -2.11 -5.86 0c-0.13,0.48 -0.62,1.12 -0.89,1.57 -0.92,1.5 -1.8,3.93 -1.8,5.81z"/>
   <path class="fil0" d="M136.87 164.87c0,2.14 0.34,4.11 0.95,5.96 0.1,0.3 0.22,0.58 0.32,0.85 1.65,4.48 5.42,8.08 9.82,9.86 6.27,2.54 11.78,1.79 18.04,-0.08 1.38,-0.41 1.4,-0.08 1.54,-1.03 0.26,-1.82 0.4,-2.49 0.92,-4.24 0.23,-0.78 0.51,-1.22 0.51,-2.18l-0.94 -0.12c-0.55,0.82 -0.4,0.76 -0.74,1.49 -0.27,0.56 -0.5,0.95 -0.79,1.44 -2.98,5.11 -10.35,5.6 -15.39,3.09 -2.82,-1.4 -4.38,-3.25 -5.91,-5.69 -2.77,-4.41 -3.14,-11.47 -1.56,-16.52 0.94,-3.02 3.16,-6.31 6.07,-7.76 0.84,-0.42 1.49,-0.71 2.4,-1 1.66,-0.54 2.97,-0.48 4.67,-0.48 2.16,0 5.09,1.14 6.56,1.88 0.75,0.38 2.01,1.03 2.55,1.67 0.73,0.88 0.61,2.06 0.61,3.6 1.56,0.83 1.16,-0.85 1.45,-2.53 0.33,-1.91 0.29,-2.25 0.8,-4.24 0.05,-0.21 0.13,-0.2 0.07,-0.47 -0.19,-0.92 -1.14,0.24 -3.08,-0.2 -3.09,-0.7 -5.02,-1.46 -8.74,-1.46 -5.07,0 -9.67,1.35 -13.55,4.26 -0.31,0.23 -0.36,0.34 -0.7,0.59 -1.65,1.22 -3.22,3.61 -4.15,5.46 -1.05,2.11 -1.76,4.7 -1.76,7.85z"/>
   <path class="fil0" d="M29.65 147.41l0 0.47c0.57,0.3 1.3,0.38 1.9,0.56 1.99,0.63 0.56,3.77 0.08,5.05l-1.66 4.19c-0.14,0.31 -0.18,0.58 -0.31,0.86l-3.59 8.13c-0.96,1.94 -2.92,6.16 -3.66,8.06 -0.22,0.56 -0.6,1.1 -0.72,1.62l-0.23 0c-0.14,-0.59 -0.46,-1.1 -0.7,-1.64l-1.41 -3.28c-0.26,-0.57 -0.5,-1.08 -0.75,-1.71 -0.13,-0.32 -0.25,-0.47 -0.38,-0.8l-4.85 -10.62c-0.96,-2.12 -3.4,-7.2 -3.4,-9.02l0 -0.23c0.28,-0.19 0.27,-0.29 0.63,-0.42 0.77,-0.28 1.83,0.01 2.48,-0.57 0.52,-0.47 0.1,-1.15 -0.95,-0.95 -0.98,0.19 -2.78,0.1 -3.92,0.19 -0.45,0.03 -0.3,0.1 -0.81,0.12 -1.52,0.06 -3.51,-0.24 -4.81,-0.24 -1.84,-0 -2.58,-0.33 -2.58,0.82 1.13,0.76 2.31,0.15 3.4,1.64 0.28,0.38 0.47,0.54 0.74,1.02 2.05,3.6 3.86,7.27 5.6,11.04l2.36 5.02c0.2,0.41 0.38,0.72 0.53,1.11 0.19,0.48 0.37,0.73 0.55,1.2 0.33,0.83 0.69,1.54 1.06,2.33 0.12,0.25 0.13,0.34 0.23,0.59l0.84 1.85c0.33,0.84 0.68,1.51 1.02,2.38 0.81,2.04 1.77,4 2.49,6.06 0.09,0.25 0.15,0.39 0.23,0.59 0.17,0.39 0.17,0.26 0.37,0.57l1.41 0c0.52,-0.78 0.57,-1.57 0.94,-2.46 0.16,-0.39 0.25,-0.8 0.43,-1.21 0.11,-0.25 0.18,-0.34 0.26,-0.56l1.27 -3.07c0.12,-0.25 0.13,-0.34 0.23,-0.59l2.34 -5.28c0.76,-1.53 1.35,-3.16 2.11,-4.69l1.33 -2.89c0.11,-0.24 0.14,-0.4 0.27,-0.67 1.11,-2.32 2.01,-4.73 3.17,-7.03 1.13,-2.26 2.46,-6.15 5.36,-6.59 1.01,-0.15 1.26,-0.44 0.81,-1.3l-2.57 0.12c-0.41,0.02 -0.88,-0.01 -1.3,-0.01 -0.65,0 -0.69,0.12 -1.28,0.13 -1.03,0.01 -4.57,-0.86 -4.57,0.11z"/>
   <path class="fil0" d="M220.65 181.63c-1.62,0 -3.49,0.28 -3.83,-1.21 -0.11,-0.49 -0.01,-1.09 -0.11,-1.65 -0.12,-0.63 -0.05,-8.27 -0.05,-9.33 0.53,-0.01 0.47,-0.12 1.05,-0.12 2.38,0 4.81,0.14 6.54,1.78 1.93,1.85 2.52,4.76 1.59,7.16 -0.81,2.08 -2.96,3.36 -5.2,3.36zm-2.23 -13.48l-1.76 0 0 -9.26c0,-0.73 0.2,-0.77 0.47,-1.17 0.9,0 1.6,-0.37 3.27,0.25 1.92,0.72 3.18,2.63 3.18,4.56 0,1.76 0.03,3.07 -1.55,4.42 -0.71,0.6 -2.32,1.2 -3.6,1.2zm-5.04 -11.37l-2.99 -0.2c-0.45,-0.05 -0.41,0.08 -0.41,0.55 0,0.64 0.86,0.19 1.72,0.74 1.29,0.83 1.21,4.49 1.21,6.17l0 14.65c0,2.46 -0.28,3.01 -1.88,3.4 -0.72,0.18 -0.87,0.2 -0.7,0.94 1.53,0 2.57,-0.23 4.1,-0.23 0.94,0 1.88,0 2.81,0 2.62,-0 4.97,0.48 7.84,-0.48 6.03,-2.02 6.55,-8.05 2.74,-11.5 -0.2,-0.18 -0.31,-0.24 -0.53,-0.41 -1.2,-0.92 -3.56,-1.88 -4.89,-1.91l0 -0.23c1.09,-0.09 2.53,-0.91 3.25,-1.55 0.07,-0.06 0.22,-0.18 0.25,-0.21l0.12 -0.12c2.8,-2.99 1.44,-7.78 -2.09,-9.15 -1.11,-0.43 -3.65,-1.13 -5.01,-0.87 -0.37,0.07 -0.45,0.07 -0.87,0.07 -0.67,-0 -3.17,0.35 -4.69,0.35z"/>
   <path class="fil0" d="M179.76 168.27c0,-2.07 -0.02,-2.96 0.77,-4.97 0.56,-1.4 1.74,-3.04 2.86,-3.82 0.48,-0.34 0.86,-0.54 1.41,-0.82 3.66,-1.84 7.95,-0.99 10.87,1.67 0.23,0.21 0.21,0.14 0.41,0.3 0.58,0.46 1.83,2.35 2.3,3.09 0.69,1.09 1.53,3.66 1.77,5.14 1.34,8.49 -4.32,15.03 -12.63,11.81 -1.32,-0.51 -2.58,-1.55 -3.56,-2.53l-1.1 -1.25c-0.13,-0.18 -0.2,-0.3 -0.33,-0.49 -1.53,-2.3 -2.77,-5.19 -2.77,-8.13zm-3.75 0.94c0,3.08 0.53,4.8 1.79,7.23 0.2,0.38 0.41,0.65 0.64,1 0.14,0.21 0.2,0.28 0.34,0.48 2.43,3.18 6.35,5.36 10.46,5.36 2.63,0 4.62,-0.14 6.91,-1.29 1.91,-0.96 2.55,-1.44 3.95,-2.84 1.07,-1.07 1.36,-1.6 2.12,-2.81 2.07,-3.3 2.38,-9.11 0.61,-12.63 -0.38,-0.75 -0.69,-1.43 -1.19,-2.09l-1.11 -1.35c-0.18,-0.24 -0.19,-0.31 -0.43,-0.51 -2.92,-2.43 -5.59,-3.78 -9.81,-3.78 -2.15,0 -5.38,0.7 -6.82,1.62 -0.4,0.25 -0.74,0.38 -1.13,0.63l-2.85 2.31c-1.93,1.93 -3.5,5.63 -3.5,8.69z"/>
   <path class="fil0" d="M240.46 168.27c0,-2.07 -0.02,-2.96 0.77,-4.97 0.43,-1.08 0.97,-1.99 1.72,-2.74 1.11,-1.1 1.01,-1.1 2.53,-1.93 2.88,-1.57 6.9,-1.16 9.8,0.79 0.25,0.17 0.18,0.13 0.39,0.31l1.08 0.92c1.7,1.58 3.7,5.13 4.1,8.21 0.3,2.39 0.28,4.68 -0.59,7.01 -0.16,0.43 -0.64,1.39 -0.9,1.8 -2.95,4.62 -8.72,4.86 -13.08,1.9 -0.29,-0.19 -0.63,-0.44 -0.86,-0.66 -1.78,-1.7 -2.89,-3.19 -3.82,-5.55 -0.53,-1.33 -1.12,-3.31 -1.12,-5.09zm-3.75 0.7c0,4.25 0.71,5.46 2.38,8.4 0.2,0.35 0.09,0.19 0.34,0.48l2.95 2.91c0.2,0.14 0.31,0.16 0.52,0.3 5.04,3.31 12.7,2.89 17.04,-1.05 2.86,-2.58 4.77,-6.02 4.77,-10.93 0,-2.75 -1.25,-6.58 -3.13,-8.47 -0.35,-0.35 -0.47,-0.65 -0.83,-0.93l-0.89 -0.75c-0.93,-0.69 -2.07,-1.44 -3.16,-1.88 -4.18,-1.65 -8.53,-1.43 -12.52,0.52 -0.41,0.2 -0.76,0.39 -1.13,0.63 -3.6,2.36 -6.35,6.23 -6.35,10.76z"/>
   <path class="fil0" d="M83.43 156.44l0 0.35c1.46,0.7 3.64,-0.85 3.63,7.5 -0,3.75 0,7.5 0,11.25 -0.7,0.16 -0.21,0.16 -1.43,-0.8l-2.64 -2.28c-0.26,-0.22 -0.36,-0.41 -0.66,-0.63 -0.78,-0.57 -2.53,-2.33 -3.3,-2.91l-1.31 -1.16c-0.23,-0.19 -0.43,-0.42 -0.65,-0.64 -0.31,-0.31 -0.36,-0.33 -0.7,-0.59 -0.4,-0.31 -0.85,-0.84 -1.24,-1.23l-1.29 -1.17c-0.66,-0.66 -3.8,-3.71 -4.29,-4.38 -0.34,-0.45 -0.68,-0.63 -1.17,-1.29l-1.83 -2.04c-0.53,0.01 -0.82,0.12 -1.52,0.12 -1.35,-0.01 -0.23,0.24 -2.23,0.01 -0.63,-0.07 -1.81,-0.09 -2.22,0.11 0,1.27 1.56,0.33 2.73,1.61 0.74,0.81 1.01,3 1.02,4.14 0,0.56 0.09,0.49 0.12,0.93l0.12 6.21c0,2.86 -0.12,5.33 -0.12,8.2 0,1.1 0.17,3.18 -0.32,3.78 -0.75,0.92 -2.83,0.05 -2.49,1.49 1.53,0 4.79,-0.35 6.33,-0.24 1.03,0.08 2.69,0.58 2.69,-0.12 0,-1.21 -3.23,-0.18 -4.18,-1.68 -0.45,-0.71 -0.63,-4.05 -0.63,-5.35l-0.12 -13.48c0,-1.09 1.74,1.04 2.09,1.31l15.11 13.83c1.36,1.36 2.79,2.83 3.87,4.45 0.83,1.25 0.67,1.15 1.66,1.15 0.27,-1.17 0,-2.26 0,-3.87 0,-3.9 -0.27,-16.87 0.36,-20.03 0.45,-2.25 1.36,-1.42 2.57,-2 0,-0.85 -0.35,-0.72 -1.53,-0.71 -0.59,0.01 -0.61,0.12 -1.99,0.12 -2.31,0 -4.45,-0.87 -4.45,0z"/>
   <path class="fil0" d="M110.85 172.37l-7.5 0c0.01,-0.53 -0.01,-0.28 0.15,-0.67l0.71 -1.87c0.35,-0.85 0.6,-1.61 0.94,-2.46 0.35,-0.85 0.6,-1.63 0.92,-2.48 0.15,-0.42 0.7,-2.11 1.04,-2.36 0.37,0.27 0.95,1.87 1.13,2.39l2.08 5.06c0.47,1.19 1.23,2.39 0.54,2.39zm-15.35 10.19c0,0.67 1.47,0.23 2.81,0.23 2.18,0 3.49,0.23 5.16,0.23 0.27,0 0.35,-0.08 0.35,-0.35 0,-1.01 -3.28,-0.22 -3.28,-2.34 0,-1.07 1.26,-3.93 1.71,-5.32 0.22,-0.66 0.3,-1.36 1.1,-1.36l7.85 0c0.65,0 0.72,0.34 0.89,0.87l1.44 3.95c0.93,2.49 1.03,2.96 -0.44,3.4 -0.59,0.18 -0.94,0.11 -0.95,0.92 0.82,0.19 2.76,-0.23 3.98,-0.23l2.81 0c0.85,0 1.17,0.12 1.99,0.12 0.51,-2.12 -1.34,1.43 -3.77,-4.79l-7.15 -17.93c-0.2,-0.54 -0.42,-1.09 -0.62,-1.73l-0.54 -1.92c-1.35,-0.11 -1,-0.65 -2.24,3.15l-0.65 1.81c-0.25,0.62 -0.45,1.15 -0.69,1.77 -0.47,1.2 -0.83,2.37 -1.34,3.47 -0.25,0.55 -0.42,1.19 -0.67,1.79 -0.25,0.63 -0.45,1.12 -0.7,1.76l-2.04 5.22c-0.75,1.92 -1.97,5.21 -3.41,6.43 -0.25,0.21 -0.46,0.29 -0.79,0.38 -0.26,0.07 -0.82,0.17 -0.82,0.47z"/>
   <path class="fil0" d="M272.45 162.76c0,1.36 -0.11,2.05 0.43,3.32 1.33,3.13 5.6,4.48 8.83,5.94l1.49 0.74c1.26,0.66 2.09,1.76 2.52,3.11 0.13,0.41 0.06,0.55 0.13,1.05 0.31,2.21 -1.08,4.12 -3.06,4.73 -2.04,0.62 -5.56,0.19 -7.38,-0.86 -1.22,-0.7 -1.63,-0.77 -2.51,-2.18 -0.49,-0.78 -0.72,-2.44 -0.91,-2.84 -0.46,0.04 -0.31,0.11 -0.82,0.12 0,1.5 0.94,2.46 0.94,7.15l0.82 0c0.07,-0.13 0.11,-0.25 0.19,-0.39l0.15 -0.2c0.32,-0.36 2.56,0.38 3.06,0.46 3.86,0.61 7.12,0.81 10.3,-1.51 1.49,-1.08 2.32,-2.9 2.46,-4.76l0 -1.14c-0.07,-0.87 -0.29,-1.71 -0.66,-2.46 -0.51,-1.02 -0.96,-1.6 -1.82,-2.28 -1.59,-1.25 -0.9,-0.77 -2.69,-1.76l-2.09 -0.96c-2.28,-1.03 -6.21,-2.17 -6.21,-5.51 0,-1.38 -0.11,-1.55 0.55,-2.85 0.27,-0.55 0.57,-0.95 1.05,-1.3 1.41,-1.03 2.07,-1.24 3.92,-1.24 2.7,0 4.46,1.09 5.7,3.09 0.37,0.61 0.57,1.42 0.75,2.18l0.7 0c0,-0.85 -0.23,-1.84 -0.23,-3.63 0,-0.99 0.4,-1.88 0.23,-2.58 -1.51,0 -0.59,0.88 -3.27,0.34 -2.54,-0.51 -4.36,-0.98 -7.11,-0.07 -0.59,0.2 -0.85,0.3 -1.33,0.54 -1.39,0.7 -1.69,1.02 -2.67,2.14 -0.71,0.82 -1.43,2.39 -1.43,3.6z"/>
   <path class="fil0" d="M49.8 156.67l-1.99 0c-1.06,0 -3.87,-0.53 -3.87,0.35 0,0.55 0.72,0.49 1.2,0.56 0.76,0.11 0.94,-0.03 1.7,0.41 0.73,0.42 0.79,1.45 0.93,2.24l0.28 15.54 -0.37 4.31c-0.26,0.96 -0.4,1.24 -1.57,1.59 -1.7,0.51 -1.83,-0.27 -2.39,0.78 0.08,0.15 0.16,0.47 0.35,0.47 1.78,0 3.19,-0.23 4.92,-0.23 2.02,0 3.82,0.23 6.09,0.23 0.42,0 0.35,-0.23 0.35,-0.7 -1.6,-0.77 -3.78,1.01 -3.75,-4.45l0.13 -14.29c0.17,-1.46 0.12,-4.31 0.85,-5.36 0.65,-0.93 2.89,-0.61 2.89,-1.33 0,-0.74 -2.12,-0.41 -2.67,-0.33 -0.9,0.14 -1.99,0.21 -3.07,0.21z"/>
   <path class="fil0" d="M79.33 149.52c-2.23,0 -5.52,-2.77 -7.82,0.27 -0.32,0.43 -0.55,0.81 -0.77,1.34 -0.15,0.34 -0.4,1.29 -0.43,1.68l1.17 0c0.13,-1.57 1.25,-2.17 2.86,-1.81 1.96,0.44 5.13,2.12 6.8,-0.37 0.48,-0.72 1.12,-1.85 1.12,-2.98l-1.05 0c-0.08,0.92 -0.77,1.88 -1.88,1.88z"/>
  </g>
 </g>
</svg>
