<?xml version="1.0" encoding="UTF-8"?>
<!DOCTYPE svg PUBLIC "-//W3C//DTD SVG 1.1//EN" "http://www.w3.org/Graphics/SVG/1.1/DTD/svg11.dtd">
<!-- Creator: CorelDRAW 2020 (64-Bit) -->
<svg xmlns="http://www.w3.org/2000/svg" xml:space="preserve" width="83.0398mm" height="57.5126mm" version="1.1" style="shape-rendering:geometricPrecision; text-rendering:geometricPrecision; image-rendering:optimizeQuality; fill-rule:evenodd; clip-rule:evenodd"
viewBox="0 0 399.62 276.78"
 xmlns:xlink="http://www.w3.org/1999/xlink"
 xmlns:xodm="http://www.corel.com/coreldraw/odm/2003">
 <defs>
  <style type="text/css">
   <![CDATA[
    .fil0 {fill:#FEFEFE}
   ]]>
  </style>
 </defs>
 <g id="Capa_x0020_1">
  <metadata id="CorelCorpID_0Corel-Layer"/>
  <g id="_2079465616832">
   <g>
    <g>
     <path class="fil0" d="M32.69 218.63c1.3,-0.5 2.25,-3.38 2.88,-4.76 1.81,-3.98 16.37,-34.68 17.04,-35.21l3.27 35.27c0.25,2.92 -0.24,2.16 -0.57,4.02 1.96,0.76 5.31,0.61 7.54,0.7 1.33,0.05 2.67,0.1 4,0.13 3.18,0.07 2.91,0.22 3.52,-0.7 -0.08,-0.04 -0.17,-0.1 -0.23,-0.12l-1.75 -0.24c-1.71,-0.1 -3.69,-0.42 -4.76,-1.64 -2.69,-3.07 -3.25,-16.31 -3.78,-21.38 -0.39,-3.64 -2.65,-28.92 -3.77,-30.19 -1.11,0.2 -0.72,-0.09 -1.21,0.96l-2.07 4.4c-0.9,2.02 -1.77,3.76 -2.64,5.67 -1.76,3.89 -3.54,7.7 -5.42,11.51 -1.57,3.18 -9.72,21.42 -10.71,22.63l-11.12 -22.75c-1.49,-3.1 -9.89,-21.52 -11.46,-22.46 -1.5,1.02 -1.27,5.06 -1.46,6.93l-4.03 36.53c-1.56,12.81 -1.21,7.88 -5.97,10.17 0.5,1.02 0.36,0.8 3.45,0.68l8 0.02c3.56,0.11 3.01,0.13 3.37,-0.7 -1.99,-1.15 -5.49,0.58 -5.13,-4.32l3.34 -34.42c1.16,1.62 3.7,7.8 4.71,9.99 2.45,5.32 12.79,27.64 14.95,29.3z"/>
     <path class="fil0" d="M258.97 167.19c5.05,-0.89 10.15,-0.04 14.37,2.58 6.19,3.86 9.64,10.45 10.69,17.89 4.6,32.55 -27.83,37.86 -38.42,17.22 -4.29,-8.37 -4.38,-19.73 -0.33,-28.11 2.55,-5.28 7.88,-8.57 13.68,-9.58zm32.1 26.57c2.33,-28.13 -29.04,-36.16 -44.68,-23.89 -1.82,1.43 -3.77,3.52 -5.15,5.31 -5.68,7.36 -7.18,18.34 -3.88,27.19 0.64,1.73 1.3,3.29 2.26,4.82 0.82,1.33 1.98,3.15 2.81,3.96 0.8,0.78 1.2,1.11 1.85,1.84 0.98,1.08 0.87,0.81 1.84,1.54 1.56,1.18 2.32,1.64 4.19,2.56 3.23,1.59 7.27,2.54 11.36,2.67 10.16,0.32 19.06,-4.02 23.92,-11.02 3.12,-4.51 5,-9.06 5.49,-14.99z"/>
     <path class="fil0" d="M364.26 195.25c0.25,-2.21 4.44,-14.09 5.67,-17.88 0.38,-1.19 0.26,-1.36 1,-2.21l6.84 20.28 -13.51 -0.19zm-6.45 21.26c-0.36,-3.4 3.95,-14.85 5.3,-18.52l16.18 0.09c1.08,3.04 2.35,6.22 3.53,9.34 5.37,14.26 2.32,8.15 2.47,11.05 2.24,0.38 5.18,0.29 7.5,0.32 1.23,0.02 2.46,0.01 3.69,0.01 3.29,0.01 2.67,0.15 3.15,-0.72 -2.3,-1.13 -3.83,0.54 -6.85,-3.37 -2.36,-3.05 -7.39,-17.3 -9.04,-21.44l-8.45 -22.03c-0.55,-1.51 -1.71,-5.92 -3.12,-6.76 -1.28,0.56 -1.39,2.05 -1.9,3.37 -3.14,8.06 -15.7,44.48 -17.67,47.27 -1.18,1.66 -2.71,2.43 -4.73,2.57 -1.39,0.1 -1.37,-0.25 -1.92,0.7 0.32,0.21 -0.2,0.22 0.97,0.41l11.4 -0.05c4.08,0.21 3.11,0.01 3.39,-0.67 -1.73,-0.93 -2.48,0.21 -3.9,-1.56z"/>
     <path class="fil0" d="M91.8 195.33c0.17,-2.14 4.49,-14.1 5.68,-18.02 0.89,-2.92 0.49,-1.69 1.07,-2.11 0.79,1.12 6.23,17.86 6.77,20.22l-13.52 -0.1zm-6.44 21.28c-0.36,-3.27 1.33,-6.88 2.29,-9.74 0.72,-2.13 2.08,-7.3 3.21,-8.88l15.97 0.11c1.09,2.59 6.69,16.77 6.88,18.78l-0.91 1.5c1.38,0.47 5.61,0.38 7.3,0.4 2.41,0.03 6.48,0.48 7.1,-0.71 -2.58,-1.37 -3.9,0.66 -6.82,-3.36 -2.52,-3.48 -7.24,-16.71 -9.06,-21.42l-9.92 -25.78c-0.8,-2.06 -0.72,-2.62 -1.92,-3.05 -1.4,1.36 -4.71,11.62 -5.69,14.37l-10.68 29.3c-5.1,14.4 -7.85,7.35 -9.72,10.24 1.68,1.12 5.94,0.31 8.24,0.24 3.26,-0.11 7.03,0.87 7.64,-0.54 -1.66,-0.92 -1.61,0.47 -3.9,-1.46z"/>
     <path class="fil0" d="M223.2 206.04c-0.9,0.47 -0.62,0.31 -0.91,1.59 -0.4,1.74 -1.16,3.79 -2.3,5.08 -5.63,6.36 -24.78,5.8 -33.41,-7.25 -5.73,-8.65 -6.02,-22.46 -0.8,-30.03 6.4,-9.28 19.77,-9.96 29.04,-6.51 9.51,3.53 5.28,10.87 7.87,10.78 0.5,-1.91 0.35,-4.61 0.4,-6.64 0.07,-3.16 0.45,-3.49 0.24,-6.19 -0.05,-0.71 -7.84,-1.6 -9.01,-1.78 -9.07,-1.4 -18.72,-0.97 -26.43,3.52 -17.15,10 -17.81,43.75 8.9,50.03 5.96,1.4 13.4,1.53 19.5,0.53 3.83,-0.63 5.32,-0.62 6.13,-4.32 0.42,-1.95 1.85,-7.34 0.8,-8.8z"/>
     <path class="fil0" d="M297.99 173.72c1.36,-0.53 0.56,-1.67 2.74,-3.69 2.28,-2.11 14.13,-1.78 16.88,-1.45 -0.49,13.36 0.27,27.71 -0.13,41.2 -0.3,10.18 -2.26,6.67 -4.93,8.3 0.43,1.14 1.43,0.76 4.21,0.67l9.54 0.03c3.55,0.06 3.54,0.39 3.96,-0.69 -3.25,-1.88 -6.25,2.69 -6.62,-7.61 -0.37,-10.68 -0.39,-31.93 -0.1,-41.99 3.56,-0.01 8.26,-0.07 11.69,0.3 2.32,0.25 5.33,0.82 5.78,3.48 0.27,1.6 -0.2,1.33 0.68,2.2 1.15,-1.05 0.73,-7.61 0.75,-9.48 -4.41,0.21 -3.88,0.64 -10.6,0.64 -6.85,0 -21.3,0.27 -27.4,-0.23 -2,-0.17 -3.21,-0.7 -4.61,-0.86 -0.87,1.18 -2.54,8.05 -1.85,9.19z"/>
     <path class="fil0" d="M135.79 206.6c-0.54,0.42 -0.21,-0.41 -0.58,0.73 -0.06,0.17 -0.1,0.95 -0.11,1.17 -0.04,0.61 -0.06,1.25 -0.1,1.87 -0.22,3.85 -0.89,6.69 1.15,7.67 5.17,2.48 13.32,2.28 18.38,-0.31 6.26,-3.2 9.22,-11.43 6.53,-18.46 -1.67,-4.35 -4.69,-6.6 -7.9,-9.65l-4.96 -3.95c-3.34,-2.35 -7,-5.94 -7.05,-10.38 -0.06,-5.34 3.67,-8.49 9.11,-8.38 9.66,0.19 8.68,6 9.54,8.04 0.84,-0.17 0.43,0.86 0.81,-0.65 0,-0.02 0.01,-1.05 0.01,-1.15l0.28 -7.6c-5.17,-0.53 -9.29,-1.98 -14.77,-0.54 -4.5,1.18 -7.29,3.63 -8.82,7.49 -4.27,10.77 6.68,18.77 14.21,24.91 5.26,4.29 7.66,11.5 3.14,16.48 -5.19,5.72 -16.7,3.8 -18.19,-3.87 -0.25,-1.31 0.07,-2.73 -0.7,-3.42z"/>
    </g>
    <g>
     <path class="fil0" d="M120.99 256.88c1.02,0.84 1.44,1.55 2.31,2.61 0.83,1 1.24,1.74 1.99,2.61l8.28 10.51c3.82,4.74 2.37,3.85 5.26,3.84l0.04 -24.3 -2.76 0 -0.03 19.16c-1.06,-0.98 -1.15,-1.38 -1.96,-2.35l-12.34 -15.68c-1.22,-1.5 -0.89,-1.13 -3.58,-1.14l0.1 24.31 2.63 -0.02 0.04 -19.55z"/>
     <path class="fil0" d="M256.84 254.8c1.75,-0.27 7.52,-0.23 9.31,0.05 5.99,0.92 5.96,8.51 -0.27,9.56 -1.55,0.26 -7.5,0.26 -9.02,0.01l-0.02 -9.61zm10.17 11.9c0.85,-0.63 2.6,-1.01 3.51,-1.61 0.89,-0.59 1.81,-1.68 2.24,-2.67 1.74,-4.02 -0.13,-8.27 -4.24,-9.68 -1.34,-0.46 -2.85,-0.6 -4.4,-0.6 -3.33,-0.01 -6.67,-0 -10.03,0.01l0.01 24.33 2.76 -0.03 0.01 -9.37 6.99 -0.02c0.51,0.81 1.09,1.49 1.79,2.41 0.63,0.83 1.05,1.44 1.7,2.3 1.03,1.37 2.37,3.39 3.51,4.68l3.15 0.05c-0.26,-1.13 -0.7,-1.14 -1.71,-2.6 -0.6,-0.87 -1.24,-1.57 -1.85,-2.45 -1.11,-1.6 -2.36,-3.21 -3.44,-4.75z"/>
     <path class="fil0" d="M291.5 273.91l-0.02 -19.21c3.97,-0.07 8.08,-0.43 11.23,1.41 6.15,3.6 5.92,12.92 0.09,16.35 -3.14,1.84 -7.31,1.55 -11.3,1.45zm-2.72 2.56c5.01,-0.02 11.16,0.66 15.18,-1.63 8.63,-4.91 7.87,-16.91 -0.07,-21.14 -4.3,-2.29 -9.94,-1.39 -15.18,-1.58l0.07 24.34z"/>
     <polygon class="fil0" points="157.99,254.65 172.78,254.66 172.82,252.14 155.2,252.19 155.28,276.45 172.92,276.4 172.83,273.97 157.97,273.91 157.99,265.47 171.22,265.47 171.22,262.93 157.98,262.9 "/>
     <path class="fil0" d="M227.81 255.56c0.77,1.05 5.1,10.62 5.28,12.01l-10.78 -0.01 5.5 -12.01zm-6.46 14.49l13.02 -0 2.98 6.39 2.76 0.03c-0.23,-1.13 -10.6,-23.87 -11.07,-24.49l-2.51 -0.01 -10.91 24.47 2.67 0.03 3.06 -6.42z"/>
     <path class="fil0" d="M320.44 272.85c3.14,4.54 16.56,6.46 18.02,-1.62 1.22,-6.76 -5.56,-7.62 -9.56,-8.68 -8.25,-2.2 -4.95,-8.51 0.78,-8.26 2.72,0.12 4.92,1.38 6.46,2.5 0.84,-0.67 1.16,-0.88 1.51,-2.09 -3.1,-3.04 -10.12,-4.19 -13.97,-1.07 -3.44,2.79 -3.91,8.82 2.54,11 2.61,0.88 12.75,2 8.81,7.72 -2.62,3.8 -10.66,1.5 -12.62,-1.43 -1.32,0.62 -1.41,0.96 -1.96,1.93z"/>
     <path class="fil0" d="M84.31 252.18l-3.06 -0.03c-0.72,2.71 -5.7,13.83 -7.38,18.17l-1.01 2.15c-0.02,-0.05 -0.11,0.13 -0.17,0.19l-4.36 -10.23c-1.33,-3.19 -2.7,-7.14 -4.25,-10.25l-3.06 0.04 10.35 24.42 2.6 -0.12 10.34 -24.35z"/>
     <path class="fil0" d="M188.48 257.4c0.78,1.07 1.12,1.68 1.72,2.6l3.53 5.09c2.23,3.19 0.99,5.09 1.28,11.38l2.75 -0.08c0.13,-2.79 -0.08,-5.68 0.02,-8.46 0.07,-1.91 2.2,-4.28 3.15,-5.63l6.82 -10.14 -3.03 0.09c-0.5,0.21 -7.31,10.94 -8.31,11.88 -1.81,-1.82 -6.18,-9.56 -8.31,-11.95l-3.09 -0.01 3.47 5.26z"/>
     <polygon class="fil0" points="98.92,276.46 101.67,276.47 101.68,252.13 98.88,252.17 "/>
    </g>
   </g>
   <g>
    <path class="fil0" d="M224.92 20.33c0.17,0.34 0.68,-0.77 0.16,0.85 -0.25,0.77 -0.13,0.19 -0.58,0.6 -0.03,-1.44 -0.18,-0.67 0.43,-1.45zm-9.93 34.63l-1.41 1.16c-1.62,-0.12 -2.87,-0.36 -3.67,0.89 1.29,1.05 2.59,0.6 4.38,0.22l-5.6 22.91 -0.33 0.01c-2.07,-0.65 -3.15,-0.54 -3.63,0.75l1.05 0.31c0.57,0.06 1.12,0.03 1.79,0.11l0.68 -0.04 -0.17 1.32 -0.97 -0.18c-1.52,0.21 -2.94,-0.38 -3.07,1.17 1.17,0.34 2.7,0.17 3.68,-0l0.26 0.07 -0.25 1.63 -0.72 0.09c-1.09,-0.49 -2.32,-0.5 -3.37,-0.03 0.11,0.6 -0.63,0.79 1.2,0.89 0.73,0.04 1.57,-0.02 2.22,-0.2l0.32 -0.03c-0.34,3.01 -1.2,5.17 -0.88,8.2 0.3,2.87 1.51,4.65 3,6.19 -0.54,0.53 -0.33,0.2 -0.69,0.88l0 0.17c1.28,0.61 0.83,-0.41 5.25,-0.43l0.78 1.75c-2.15,0.78 -4.52,0.39 -6.9,0.3 -0.34,1.17 -0.41,1.16 0.76,1.28 1,-0.09 2.62,-0.37 3.32,0.11 -1.03,0.83 -2.09,0.6 -3.41,0.39l-1.32 0.03 -0.21 -0.96 -1.84 -0.13 -0.12 2.25 -0.58 0.98c0.48,-0.65 -0.06,-0.65 0.46,-0.02 -0.59,0.85 0.33,0.35 -1,0.67 -1.8,0.08 -1.9,1.81 -2.36,3.51l-1.85 0.18c0.36,1 -0.53,0.04 1.36,1.05 -0.28,1.39 -0.48,1.94 -1.38,2.77 -0.61,-0.49 -0.88,-1.21 -1.25,-1.84 -0.75,-1.26 -0.18,-1.61 -1.29,-1.56l-0.16 -3.65c-1.1,-0.64 -1.89,-0.59 -2.82,-1.06 -0.34,-2.07 1.31,-2.11 0.57,-4.07 -1.01,-0.04 -2.45,0.72 -5.27,1.16 -1.87,0.29 -3.17,-0.09 -4.67,-1.01 -0.04,-0.02 -0.14,-0.05 -0.17,-0.14 -0.03,-0.09 -0.1,-0.1 -0.16,-0.15 1.56,-0.67 3.03,0.18 5,-1.02 1.17,-0.71 1.67,-1.99 2.77,-2.99 0.12,-2.91 -0.3,-15.61 -2.74,-17.21 -1.29,1.95 1.57,10.11 1.11,13.9 -1,8.28 -5.52,5.19 -9.44,4.74 0.01,2.03 1.24,2.96 2.15,4.75l0.72 0.84c3.49,2.14 3.5,1.77 8.37,1.74 0.42,1.21 0.66,1.83 1.64,2.12l1.31 0.71 0.82 1.18c-0.19,0.08 -0.4,-0.51 -0.12,0.85l1.76 4.02c0.57,0.89 0.89,1.46 1.38,2.12 0.73,0.99 0.48,1.36 2.08,1.69 1.07,-0.95 1.75,-2.88 2.32,-4.28 2.75,-6.75 0.28,-5.14 3.73,-6.11 1.27,-0.36 0.95,-0.64 1.27,-1.66 2.03,0.33 2.46,0.38 4.44,-0.34 1.94,-0.71 1.97,-1.1 3.37,-2.01 2.13,-1.39 2.96,-5.78 1.75,-7.62 -2.86,-0.38 -3.19,1.36 -5.41,1.09 -0.75,-0.44 -2.17,-2.33 -2.56,-2.87 -0.26,-0.78 0.34,-7.05 0.88,-8.63l3.69 -16.52c0.86,-4.66 1.15,-3.75 1.44,-5.14 0.25,-1.24 -0.01,-1.89 0.38,-3.14 0.55,-1.73 1.05,-3.33 1.63,-5.01 0.59,-1.71 0.88,-3.67 1.38,-5.35 0.5,-1.69 0.68,-3.49 1.19,-5.18l1.51 -5.19c3.18,-9.17 3.65,-12.58 5.98,-20.77 0.88,-3.09 1.9,-7.59 3.07,-10.35 2.1,-0.11 2.96,-0.59 3.71,-2.29 -0.47,-1.85 -1.87,-2.1 -3.5,-2.87 -1.95,-0.92 -3.34,-0.34 -5.42,-0.26 -1.15,-1.33 -1.67,-2.7 -3.16,-3.8l-0.59 -1.02 -2.26 -0.98c-1.1,0.98 -1.4,1.53 -2.03,3.11 -0.24,0.59 -0.46,1.14 -0.72,1.79 -0.18,0.43 -0.22,0.58 -0.39,0.91 -0.35,0.64 -0.39,0.59 -0.72,0.89 -4.39,-1.89 -6.74,0.29 -9.21,2.74 0.03,3.53 2.51,3.19 4.58,4.72 3.96,2.93 0.11,15.09 -0.51,19.92 -0.2,1.56 -0.74,2.11 -1.56,3.18 -0.01,1.3 0.39,1.6 0.63,2.55 -0.77,1.23 -1.54,1.89 -1.85,3.85l-2.2 12.11c-0.27,2.3 -0.24,0.86 -0.8,2.42 -0.79,2.17 -3.21,16.95 -3.67,19.38 -0.11,1.29 0.07,2.2 -1.01,2.59l-0.64 -1.82c-0.55,-0.49 -3.83,-16.75 -4.42,-19.4 -0.61,-2.78 -2.9,-9.97 -3.36,-12.88 -0.6,-3.76 -4.41,-16.86 -4.72,-19.95l-0.29 -0.77c-0.65,-3.21 -1.91,-7.07 -0.74,-10.15 0.45,-1.19 3.59,-3.58 4.16,-4.15l-0.12 -1.36c-0.44,-0.6 -0.71,-1.02 -1.01,-1.5 -8.42,-2.54 -4.89,-0.51 -7.01,-0.66 -2.26,-1.1 -1.13,-2.14 -2.51,-3.42 -0.63,-0.58 -1.11,-0.61 -1.6,-1.24 -0.5,-0.65 -0.37,-1.37 -1.66,-1.47 -2.38,-0.19 -2.71,3.09 -4.37,4.39 -0.81,0.64 -0.78,0.97 -1.32,1.85 -1.68,-0.11 -3.01,-0.94 -4.89,-0.41 -5.08,1.45 -4.8,4.93 -1.02,6.59 2.62,1.15 4.98,5.41 6.38,7.99 2.05,3.78 -0.33,2.52 2.59,8.25 0.39,0.77 0.61,1.77 0.86,2.66l4.13 13.67c0.58,1.96 0.25,1.59 1.8,2.02 -0.1,-0.86 -0.32,-1.06 -0.41,-1.78 -0.26,-1.99 1.44,0.84 -0.55,-5.51l-0.44 -3.37c-0.04,-1.75 -0.9,-1.65 -2.05,-2.4l-0.54 -1.6c2.27,-0.06 5.62,0.22 6.23,-0.94 -1.46,-0.84 -4.47,-0.42 -6.32,-0.37l-0.4 -1.55c1.46,0.14 2.77,0.04 4.19,0.02l2.79 -0.18c0.65,0.01 0.27,-0.08 0.73,0.25 0.27,0.52 2.58,10.6 2.56,11.36 -3,-0.4 -3.52,-0.57 -3.83,1 1.45,0.41 3,-0.24 4.34,-0.22l0.85 4.3 -4.58 0.07c0.35,2.13 1.49,0.98 4.92,1.04 0.48,2.14 2.72,10.74 2.57,11.85 -0.13,-0.4 -2.8,-0.38 -3.27,-0.11 -0.99,0.57 -0.22,-0.05 -0.53,0.88 0.75,0.42 1.46,0.65 2.69,0.35 1.37,-0.34 0.36,0.1 0.76,-0.47 1.35,-0.05 0.66,-0.23 1.14,1.11 0.2,0.55 0.22,0.89 0.44,1.44l2.19 9.2c0.27,1.24 0.6,1.94 0.83,3.05l2.39 8.88c0.05,2.68 -0.88,-0.07 -3.78,1.59 -0.04,1.07 0.22,1.3 1.6,1.1 0.96,-0.14 1.77,-0.45 2.86,-0.61l0.06 1.66 -1.79 0.18c-0.42,0.03 -1.22,0.01 -1.55,0.05 -1.9,0.24 -0.82,0.13 -1.15,0.8 1.12,0.64 2.1,0.31 3.59,0.32l1.27 -0.22 0.26 1.77c0.51,0.26 0.36,0.15 0.94,0.31 0.85,-5.07 2.74,-11.95 3.63,-17.12 0.73,-4.28 2.85,-9.53 3.74,-16.92l1.42 -5.56c0.31,-1.06 0.34,-2.01 0.61,-2.94 0.49,-1.62 0.02,-1.77 0.94,-2.63 -0.47,-3.38 2.15,-10.31 2.97,-13.88l1.66 -9.36c1.02,-5.98 0.92,-5.05 -0.43,-9.66 -0.84,-2.86 -1.43,-1.72 -2.57,-3.22l-1.06 -0.19c-0.57,-1.3 0.53,-0.98 1.56,-2.26l1.98 0.41 0.37 0.76 0.02 0.15c0.51,0.96 -0.02,0.12 0.47,0.72 0.05,0.07 0.49,0.45 0.52,0.49l-0.1 -0.1 0.61 -0.51c1.08,0.96 0.42,1.08 1.94,0.85 0.36,-0.97 -0.02,-4.47 1.04,-5.84l1.13 -1.33c0.52,1.02 1.08,1.68 2.23,2.61l-0.03 0.78 0.33 1.36 -1.19 0.36c-0.88,0.23 -0.34,-0.04 -0.88,0.34 -0.87,0.29 -0.49,-0.48 -0.74,0.9 3,2.29 5.83,-3.55 9.94,-2.32 1.54,0.46 0.49,-0.13 0.95,0.73 -1.2,0.93 -1.31,-0.17 -2.81,0.71 -0.1,2.12 1.15,-0.03 -0.09,2.45 -3.5,-0.49 -7.64,-0.05 -11.48,0.18 -1.43,-0.02 -0.85,-0.21 -1,0.8 0.41,0.32 -0.18,0.4 1.3,0.5l4.76 -0.05c2.17,-0.18 3.76,-0.38 6.16,-0.13l-0.23 0.96c-0.09,0.03 -0.21,-0 -0.25,0.09 -0.22,0.44 -7.8,-0.25 -9.58,0.45l-0.09 0.73c1.59,0.98 5.83,0.22 8.17,0.15l1.29 -0.1 -0.41 1.58 -0.88 -0.09c-1.4,-0.12 -3.09,-0.2 -4.48,-0.17 -1.79,0.03 -2.63,-0.03 -3.33,1.1 1.48,2.04 5.71,0.11 8.04,0.48 -0.81,2.01 -5.55,0.72 -8.19,1.33l-0.26 1.15 1.69 -0.02c-0.09,1.62 0.05,1.18 -1.55,1.04l-0.48 0.25 -0.04 1.49 1.38 0.04c0.99,-0.77 3.06,-0.19 4.67,-0.21 0.67,-0.59 0.45,-0.5 1.2,-0.64 -0.05,0.54 0.04,0.41 -0.17,0.93 -0.42,1.06 -0.05,0.14 -0.45,0.62 -0.32,0.63 0.19,0.21 -0.6,0.38l-5.89 -0.01c-0.23,0.36 -0.43,0.6 -0.32,1.46 2.08,0.61 3.87,-0.21 6.37,-0.25 -0.49,2.13 -1.48,1.46 -3.65,1.38 -1.56,-0.05 -3.39,-0.54 -2.96,1.29l5.48 -0.03c-0.76,1.77 -0.67,1.47 -2.83,1.43 -1.23,-0.02 -2.56,-0.24 -3.46,0.4 0.08,0.23 -0.62,0.92 2.17,1.01 1.22,0.04 2.03,-0.21 3.34,-0.14l-1.03 3.87 -5.17 0.24 -0.14 0.94c0.69,0.32 1.52,0.36 2.51,0.26 1.94,-0.19 1.53,-0.29 1.6,1.39 -1.6,-0.4 -2.77,-0.44 -4.45,-0.25 -0.4,0.79 -0.26,0.08 -0.29,0.7 -0.1,1.49 2.84,0.66 4.24,0.63l-0.53 4.38 -0.75 -0.24c-1.17,-0.24 -3.14,-0.62 -4.27,-0.27 -0.23,1.19 -0.45,1.19 0.82,1.44 0.93,0.18 1.95,-0 2.64,-0.06l0.96 -0.36 -0.22 1.02 0.11 1.04c-1.48,-0.09 -3.54,-1.02 -5,-0.3l-0.17 1.29c1.71,0.14 3.45,0.22 4.89,-0.32 -0.2,1.71 -0.77,2.62 -0.92,4.59 -1.28,-0.31 -1.94,-0.36 -3.27,-0.33 -1.48,0.04 -1.76,-0.07 -1.88,1.37l4.48 0.01 -0.11 1.62 -4.1 -0.32c-1.76,0.11 -0.69,0 -1.11,0.69 0.39,0.77 -0.13,0.52 0.8,0.8 0.01,0 1.21,0.04 1.3,0.04 0.9,-0.02 1.76,-0.12 2.65,-0.17l-0.16 0.46zm-1.37 -14.5c0.5,0.67 -0.45,0.19 0.8,0.67 1.62,0.62 2.16,0.12 2.51,-0.67 -0.91,-0.52 -2.35,-0.63 -3.31,0zm-1.63 7.75l0.24 1.18c1.02,0.05 0.72,0.03 1.72,-0.16l1.65 -0.38c0.07,-0.02 0.17,-0.08 0.25,-0.12 -0.96,-1.71 -3.71,-0.75 -3.86,-0.53zm-3.22 13.61c0.12,1.15 0.52,1.24 1.81,1.28 0.57,0.01 0.93,0.03 1.44,-0.2 0.82,-0.36 0.58,-0.4 0.76,-1.16 -0.89,-0.14 -3.36,-0.57 -4.01,0.08zm3.28 -1.97l0.87 -0.2 -0.88 -0.69c-1.22,-0.02 -1.45,-0.25 -2.43,0.29 0.63,1.1 1.19,0.86 2.44,0.6zm-6.4 17.61c0.79,1.48 2.36,1.89 2.78,-0.02l-2.78 0.02zm2.28 -9.43c1.4,0.23 2.52,0.37 3.27,-0.51 -0.96,-0.51 -2.51,-0.78 -3.27,0.51zm-4.78 20.19c0.45,0.31 0.42,0.47 1.71,0.46 1.26,-0 0.72,0.23 1.52,-0.46 -1.5,-1.42 -3.22,-0 -3.22,0zm-0.92 10.51c0.78,1.04 3.57,0.57 4.31,0 -1.01,-0.63 -3.86,-0.21 -4.31,0zm4.34 -26.11c0.35,1 0.44,0.89 1.8,0.76 1.39,-0.14 1.1,0.03 1.5,-1.04 -1.3,-0.17 -2.41,-0.56 -3.29,0.29zm-0.74 3.23c0.56,0.25 1.03,0.43 1.88,0.3 1.23,-0.18 1.06,-0.31 1.31,-0.98 -1.24,-0.65 -2.8,-0.84 -3.2,0.68zm-3.39 15.4c1.32,0.47 2.93,0.34 3.81,-0.47 -0.36,-0.34 0.03,-0.28 -0.59,-0.49l-3.15 0.07 -0.07 0.89zm4.72 -20.85c0.66,0.81 1.71,0.84 2.95,0.44 1.37,-0.44 0.39,0.25 0.84,-0.76 -1.04,-0.71 -2.98,-0.78 -3.78,0.32zm1.08 -5.73c0.22,0.77 -0.2,1.39 2.67,0.96 0.49,-0.07 0.13,0.02 0.57,-0.1l0.59 -0.86c-0.99,-0.62 -2.99,-0.5 -3.84,-0zm-4.35 30.96c-1.84,-0.02 -2.21,-0.26 -2.47,1.31l4.99 -0.23c-0.3,-1.32 -0.84,-1.06 -2.52,-1.08zm-3.13 -1.66c1.02,0.59 1.57,0.38 2.84,0.31 3.51,-0.19 2.06,-0.39 2.17,-0.94 -1.45,-0.45 -4.32,-0.83 -5,0.64zm7.32 7.71l-0.02 -0.94c-1.13,0.05 -2.37,0 -3.54,-0.01 -1.49,-0.02 -2.3,-0.36 -2.44,1.16 2.74,0.62 3.58,-0.34 6,-0.22zm-7.68 6.85c-1.37,0.04 -1.22,0.71 -1.23,0.72 0.83,0.46 1.57,0.49 2.41,0 -0.2,-0.5 0.12,-0.75 -1.18,-0.72zm-3.52 -1.83c0.88,1.44 3.08,0.78 4.45,0.26 0.06,-0.02 0.21,-0.01 0.25,-0.12 0.05,-0.11 0.17,-0.09 0.25,-0.14l-1.42 -0.32c-0.43,-0.04 -0.86,-0.06 -1.3,-0.07 -1.12,-0.03 -1.45,-0.04 -2.23,0.4zm1.32 -2.55c1.07,0.57 1.96,0.51 3.17,0.38 1.64,-0.18 2.42,-0.02 3.16,-0.7 -0.87,-0.5 -4.59,-0.62 -5.33,-0.52 -1.72,0.24 -0.83,0.24 -1.01,0.84zm-3.32 -5.46l-2.47 0.21 0.35 0.94 4.43 -0.46 0.22 1.81c-1.69,0.01 -2.57,-0.54 -3.74,0.41 1.32,1.13 2.38,0.2 3.91,0.13 1.74,-0.08 2.16,0.49 3.46,-0.77 0.02,-0.05 -0.43,-9.24 -2.55,-8.9 -0.02,1.26 -0.97,2.96 -0.94,5.08 -0.46,0.8 -0.31,0.5 -0.34,1.63 -1.38,-0.11 -1.24,-0.5 -2.33,-0.09zm-0.69 -1.86c0.59,0.78 0.88,1.07 1.38,0 -0.1,-0.05 0.18,-0.27 -0.62,-0.23 -0.56,0.03 -0.51,0.13 -0.76,0.23zm-1.02 -15.29c0.01,0.01 -0.08,1.34 2.18,0 -0.26,-0.19 0.71,-0.47 -1,-0.42 -1.76,0.05 -0.87,0.26 -1.18,0.42zm1.54 12.74c0.86,0.74 1.38,0.77 2.53,0.49 -0.27,-0.7 0.49,-0.71 -0.98,-0.97 -0.88,-0.16 -1.16,0.17 -1.56,0.48zm-1.24 -10.51c0.23,0.84 0.2,1 1.45,0.89 0.63,-0.05 1.37,-0.32 1.89,-0.58 -0.21,-0.19 0.02,-0.19 -0.56,-0.39 -0.06,-0.02 -0.93,-0.17 -1.03,-0.18 -0.93,-0.07 -0.92,-0.12 -1.76,0.24zm1.13 7.96c0.41,0.29 -0.64,0.1 0.89,0.46 1.45,0.34 2.36,0.33 2.65,-0.78 -1.18,-0.38 -2.69,-0.28 -3.54,0.32zm0.45 -12.22l0.52 -0.91c0.05,0.02 0.1,0.05 0.15,0.07 -0.14,1.11 0.1,0.46 -0.68,0.83zm0.54 -0.93l-0.06 0c-0.88,-0.41 -1,-0.34 -1.93,0.1 -1.26,-0.13 -1.63,-0.29 -2.2,0.63 1.15,0.59 2.38,0.64 3.65,0.2l0.54 -0.93zm-25.98 -8.84l0.54 -1.05 -0.54 1.05zm14.87 -31.59c0.29,-0.51 0.95,0.78 0,-0.83 -0.22,0.26 -1.36,0.25 0,0.83zm-3.76 -26.03c0.83,1.04 1.11,0.56 1.56,0 -0.37,-0.33 0.65,-0.5 -0.93,-0.41 -0.45,0.02 -0.47,0.28 -0.63,0.41zm7.54 51.27c0.07,0.05 0.16,0.06 0.2,0.16l1.73 0.22c0.58,-0.14 0.4,-0.19 0.67,-0.38 -0.91,-0.5 -1.71,-0.46 -2.6,0zm-5.98 -38.53c-0.48,-0.39 0.14,-0.27 -0.68,-0.43 -0.7,-0.14 -0.38,-0.02 -0.95,0.01 0.4,1.15 0.75,1.76 1.63,0.42zm-0.23 13.06c0.26,0.2 0.35,1.18 1.7,0 -1.23,-1.69 -1.7,-0 -1.7,0zm7 28.02c0.11,0.3 0.06,0.79 0.87,0.84 0.9,0.06 0.83,-0.36 0.82,-1.12 -1.05,-0.23 -0.76,-0.41 -1.69,0.27zm-7.16 -42.93l-0.02 -0.74 -1.8 -0.29c0.13,1.6 0.39,1.59 1.82,1.03zm4.02 32.42c0.67,0.84 1.41,0.99 2.33,0 -0.5,-0.28 -2.29,-1.1 -2.33,0zm5.21 21.34c1.07,0.69 1.78,0.74 2.62,-0.32l-0.42 -0.18c-2.47,-0.42 -1.99,0.37 -2.2,0.5zm-9.01 -40.48c1.54,0.09 1.43,0.31 1.83,-0.92 -0.13,-0.09 0.27,-0.89 -2.23,-0.21l0.41 1.13zm2.31 14.37c0.07,0.04 0.17,0.03 0.21,0.13l2.01 0.3c1.21,0.05 0.94,0.01 1.38,-0.78 -0.94,-0.18 -3.41,-0.81 -3.6,0.35zm0.71 2.21c0.59,0.65 0.42,0.62 1.57,0.65 0.22,0 0.99,-0.04 1.19,-0.1 1.34,-0.39 0.45,-0.22 0.83,-0.53 -1.09,-0.66 -3.12,-0.59 -3.6,-0.02zm-1.62 -7.31c0,0 -0.01,0.64 1.94,0.49 1.23,-0.09 1.13,-0.06 1.44,-0.81 -0.71,-0.46 -0.82,-0.34 -1.79,-0.33 -2.21,0.02 -1.2,0.29 -1.6,0.65zm5.98 28.2c0.54,1.05 1.67,1.24 3.04,0.85 1.54,-0.44 0.51,-0.01 0.98,-0.71 -0.44,-0.35 0.11,-0.28 -0.74,-0.44l-3.27 0.3zm-1.2 -5.27c0.69,0.65 1.83,0.63 2.9,0.41 1.04,-0.21 0.72,-0.27 0.94,-0.41 -1.06,-1.24 -3.61,-0.96 -3.83,0zm-1.76 -9.71l2.96 -0c1.42,-0.36 0.26,-0.05 0.79,-0.48 -0.54,-0.5 0.57,-0.15 -0.79,-0.57 -1.17,-0.36 -2.99,-0.44 -2.95,1.05zm2.59 12.72c0.8,0.2 1.2,0.22 2.05,0.16 1.64,-0.11 1.48,-0.44 1.73,-0.63 -0.07,-0.05 -0.16,-0.25 -0.2,-0.18 -0.08,0.14 0.09,-0.16 -0.66,-0.38 -0.26,-0.08 -1.26,-0.13 -1.52,-0.11 -0.95,0.07 -1.45,0.25 -1.39,1.14zm-6.94 -31.36c0.64,1.46 2.26,1.15 3.48,0.57l-0.5 -1.09c-0.99,-0.13 -2.07,0 -2.99,0.52zm-11.42 -27.4c0.35,0.28 0.02,0.25 0.67,0.39 1.13,0.23 6.12,-0.49 6.22,-0.5 2.52,-0.05 1.4,-0.21 1.82,-0.51 -1.48,-0.76 -6.74,-0.12 -7.64,-0.16 -0.87,-0.04 -1.42,-0.31 -1.07,0.78zm1.31 2.56c1.67,0.94 7.5,0.23 9.33,-0.25 -0.5,-1.19 -0.49,-1.01 -2,-0.92l-5.77 0.02c-1.28,0.02 -1.47,0.03 -1.57,1.15zm6.12 -6.13c-0.85,-0.19 -1.29,-0.06 -1.95,-0.06 -1.17,-0 -1.33,-0.52 -1.71,1.17 1.37,0.37 3.6,0.69 4.51,-0.38 2.24,0.31 2.46,-0.5 4.16,-1.12 0.41,0.48 0.17,0.03 0.51,0.75 0.04,0.08 0.12,0.63 0.12,0.75l1.89 0.26c-0.15,0.24 -0.03,0.25 -0.56,0.71l-1.71 1.13c-0.67,0.7 -0.83,1.63 -1.01,2.55 -0.43,0.54 -0.45,-0.57 -0.44,1.33 -0.09,1.39 0.12,0.31 -0.63,0.72 -2.38,-0.36 -7.13,-0.34 -9,0.21 -2.93,-4.34 -1.72,-1.33 -3.36,-3.61 -2.6,-3.61 -2.3,-1.75 -3.43,-3.36l1.39 -0.68c0.74,-0.2 0.44,-0.15 1.33,-0.21l0.89 1.2 3.45 -0.09c1.45,-4.3 1.36,-2.58 2.53,-5.14l1.42 0.16 0.57 0.97 -0.98 0.39 -0.15 1.03c1.98,0.87 0.9,-0.46 2.91,1.26l-0.76 0.07zm-4.33 11.83c1.13,-0.19 2.17,-0.26 2.69,-1.24l-2.65 0.01c-1.03,-0.28 -0.67,0.1 -0.85,-1.24l6.99 -0.38c0.93,-0.12 1.24,-0.06 1.39,-0.71 0.75,0.44 0.34,-0.15 0.59,0.72 0.08,0.28 0.02,0.94 0.01,1.27l-2.11 0.42c0.92,1.32 0.79,1.08 2.5,0.59 -0.38,1.85 1.3,7.76 1.79,9.66 -5.61,-1.7 -8.14,1.15 -8.71,-1.92 1.72,0.08 6.18,0.51 7.25,-0.79 -0.85,-0.67 -2.37,-0.51 -3.58,-0.43 0.14,-0.54 2.05,-4.58 -0.74,-5.64 -2.38,-0.9 -5.2,2.85 -4.57,-0.34zm46.67 -13.98c0.79,0.77 0.61,0.72 1.84,0.69 -0.01,-0.94 0.38,-1.05 -0.67,-1.25 -0.54,-0.1 -1,0.3 -1.17,0.57z"/>
    <path class="fil0" d="M281.57 97.93c-0.98,0.46 -0.24,-0.08 -0.82,0.8 0.32,0.21 0.21,0.24 0.84,0.44 0.29,0.09 0.5,0.07 0.91,0.19 -0.18,2.29 -0.69,0.25 -1.81,2.25 0.14,0.01 0.91,0.02 0.94,0.02l0.82 0.17c0.06,0.02 0.15,0.07 0.23,0.11 -0.32,1.58 0.92,0.4 -2.92,1.86l-0.53 0.97c0.11,0.07 0.2,0.12 0.27,0.17l0.26 -1.14 -0.26 1.14 1.51 0.07 -1.5 -0.07c0.56,0.36 0.12,0.18 1.29,0.2l-0.13 0.8c-1.41,1.3 -4.51,1.82 -6.4,1.92 -0.37,0.47 -0.37,0.46 -0.58,1.17l3.63 -0.68c-0.55,0.47 -0.88,1.24 -1.67,1.6 -3.64,1.65 -5.2,1.58 -8.48,1.48l0.12 -0.68c1,0.09 4.03,-0.88 4.68,-1.49 -0.9,-1.05 -1.5,-0.43 -2.68,0.13 -0.85,0.4 -2.11,0.59 -2.92,1.14 -2.07,0.69 -3.41,0.15 -5.28,-0.58 -1.06,-0.47 -1.85,-0.56 -2.48,-1.65 0.91,-0.58 1.81,-0.79 2.95,-0.95 1.61,-0.22 1.91,-0.03 2.5,-1.27 1.58,0.29 1.56,0.75 2.99,0.93l0.51 0.3 -0.85 0.56c-1.19,0.24 -1.17,0.01 -2.5,0.5l-1.94 0.64c-0.69,0.18 -0.03,0.03 -0.67,0.13 -0.15,1.43 -0.13,0.42 0.28,0.84 1.15,-0.23 2.28,-0.55 3.34,-0.87 0.37,-0.11 0.34,-0.09 0.7,-0.23l0.84 -0.37c1.14,-0.43 0.59,0.03 1.49,-0.89 2.79,0.3 3.7,-0.25 6.2,-0.63l1.6 -1.07c2.73,-2.21 3.75,-2.91 3.31,-5.11 -0.36,-0.73 0.51,-0.33 -0.73,-0.67 -0.81,-0.83 0.13,-0.06 -1.29,-0.62 -0.43,-0.17 -1.05,-0.55 -1.37,-0.75 -0.46,-3.65 2.32,-4.21 3.39,-3.9 1.06,0.31 0.63,0.49 0.82,0.72 -0.36,0.27 0.21,0.02 -0.66,0.44 -1.44,0.7 -1.26,0.15 -1.32,1.42l2.82 -0.23 0.73 -0.14 -0.16 0.89zm-30.1 -1.73c0.6,-0.36 0.36,0.47 0.55,-0.65l-0.44 -0.01 0.01 -0.06 -0.59 0.05c-1.44,0.18 -0.53,0.35 -1.73,-0.15 0.19,-1.67 0.93,-0.05 1.39,-2.05 -0.93,-0.07 -0.78,-0.17 -1.68,0.17 -0.15,0.06 -0.56,0.31 -0.61,0.32 -0.65,0.18 -2.92,-0.06 -4.58,1.09 -0.13,1.68 0.85,2.86 1.39,3.36 1.75,0.32 2.92,0.39 4.05,-1.02 0.23,-0.29 0.18,-0.3 0.38,-0.55 0.3,-0.37 0.24,-0.28 0.47,-0.48l0.78 0.19 0.62 -0.21zm9.17 8.37c0.32,-0.86 0.03,-0.21 0.71,-0.53l2.56 1.85c0.03,0.03 0.09,0.11 0.14,0.17 -3.54,-0.12 -6.57,1.7 -6.65,1.7 -0.91,-0.02 -2.52,-1.81 -3.51,-2.36 -0.94,-0.52 -0.24,0.51 -0.9,-0.94 1.25,-0.98 3.43,-1.05 5.02,-1.67l-0.13 -0.83c-1.83,0.23 -4.38,0.49 -5.58,1.84 -2.02,0.03 -1.68,0.19 -3.23,0.52 -1.62,0.34 -1.99,0.12 -2.93,1.09 0.67,0.42 0.07,0.62 1.65,0 1.12,-0.44 0.71,-0.35 1.94,-0.26l0.03 1.34c-0.75,0.43 -0.2,0.14 -1.15,0.39 -2.57,0.69 -2.67,0.16 -2.84,1.59 1.31,0.68 0.72,-0 2.38,0.17 0.07,1.19 0.08,0.11 -0.32,0.58l-0.31 0.18c-0.48,0.44 0.45,0.11 -1.09,0.63 -0.55,0.18 -1.07,0.3 -1.47,0.44 0.34,1.58 0.8,0.32 0.24,1.33l-0.85 0.24c-0.45,0.66 0.21,0.32 -0.89,0.3 -0.15,-0 -1.02,-0.17 -1.15,-0.19 -0.02,-1.93 -0.07,-0.17 0.36,-0.94 1.19,-3.19 1.88,-4.23 0.97,-8.28 -1.4,-6.23 0.24,-0.8 -2.3,-7.91 -0.62,-1.74 0.45,-0.15 -1.26,-3.82 -0.58,-1.24 -0.86,-2.5 -1.38,-3.75 -0.49,-1.17 -0.55,-0.61 -0.89,-1.61 -0.34,-1.01 -0,-0.87 -0.6,-1.94 -0.52,-0.93 -1.49,-2.56 -1.66,-3.68 -0.33,-2.14 -0.51,-2.34 -1.03,-4.16 -0.23,-0.8 -0.14,-1.26 -0.44,-2.08l-3.68 -9.06c-0.94,-3.85 -1.78,-3.82 -2.66,-7.54 -0.93,-3.95 -2,-4.95 -2.91,-7.42l-0.11 -0.66c-0.22,-0.46 -0.22,-0.41 -0.43,-0.62 -0.51,0.92 -0.37,0.87 -0.31,2.07 0.25,2.91 2.42,9.68 3.83,11.35 -0.48,1.69 -0.16,1.22 0.48,2.97 0.34,0.93 0.5,2.35 0.91,3.27 0.43,0.97 0.97,1.55 1.45,2.69l2.57 6.03c0.36,1.07 0.47,2.17 0.81,3.33l2.31 6.27c0.61,1.97 1.24,4.43 2.24,6.04 1.05,1.71 1.39,4.32 2.33,6.3 0.76,1.6 1.06,5.74 1.09,7.68 0.07,4.36 -1.04,3.68 -3.18,5.5l0.15 1.83c3.02,1.15 6.16,1.47 8.81,-0.09 5.16,-3.04 4,-5.07 5.18,-5.67 1.91,-0.96 5.08,2.35 5.59,2.7 0.75,0.52 1.02,0.46 1.84,1.05 2.61,1.88 0.74,0.62 3.54,1.83 4.72,2.05 12.93,2.18 17.53,-1.91 2.58,-2.3 2.9,-3.59 4.63,-6.51 1.56,-2.64 1.72,-6.06 0.33,-8.94 -1.55,-3.2 -8.21,-5.48 -11.36,-2.1 -0.91,0.98 -1.43,3.05 -1.05,4.63 0.56,2.34 1.52,1.59 2.87,2.89l0.07 1.59c-3.85,3.67 -6.83,2.02 -10.6,0.59 -3.31,-1.26 -5,-3.73 -7.67,-6.62 -1.65,-1.79 -3.06,-3.37 -4.52,-5.36 -2.96,-4.06 -5.08,-7.18 -7.05,-12.07 -2.29,-5.68 -3.19,-9.53 -3.36,-16.13 1.01,-0.92 1.75,-1.83 1.46,-3.72 -0.68,-0.54 -1.09,-0.55 -1.77,-0.99 -3.27,-2.13 -2.58,-1.45 -4.37,-4.86 -0.39,-0.74 -0.8,-1.06 -1.14,-1.73 -0.49,-0.99 -0.26,-1.51 -0.72,-2.43 -1.89,-3.77 -0.74,-3.02 -2.32,-4.04 -0.78,-6.85 -8.7,-11.79 2.28,-19.27 2.04,-1.39 5.29,-1.86 8.15,-1.74l1.08 0.77 1.2 1.14 -0.03 1.3 -1.37 0.76 -0.85 0.66 -0.33 0.71c-3.25,4.7 7.6,9.56 10.32,0.86 1.02,-3.26 -1.24,-11.49 -8.53,-13.71 -4.13,-1.26 -9.23,0 -12.14,1.86 -1.16,0.52 -1.5,0.45 -1.66,2.02 0.13,0.55 -0.02,0.22 0.45,0.94l0.35 0.38c1.48,0.39 0.93,0.56 2.68,0.73l-0.09 0.33 1.52 0.12c-0.56,-1.66 -1.55,-0.65 -3.47,-1.96 -0.38,-0.26 -0.26,-0.21 -0.46,-0.4l0.63 -0.5 2.42 -0.73c2.07,-0.44 2.26,-0.05 3.83,0.59 1.15,0.72 2.42,1.74 3.51,1.29 -0.43,-1.03 -0.41,-0.79 -1.78,-0.98l0.17 -0.28 -1.52 -0.44c-0.08,-0.07 -0.3,-0.2 -0.33,-0.33 -0.02,-0.13 -0.09,-0.19 -0.16,-0.22l1.42 -0.12 1.15 0.05c1.23,1.35 3.91,0.75 4.94,3.34l-2.53 -0.53c0.73,1.42 3.61,1.25 4.92,2.63l0.26 0.99 -1.13 0.25 0.13 0.73c1.57,0.51 1.73,0.66 2.09,1.29 -0.07,0.06 -0.16,0.15 -0.21,0.18l-1.31 0.46c0.38,0.79 -0.06,0.27 0.56,0.75l0.8 0.52c-0.74,0.82 -0.4,0.5 -1.7,0.81 0.33,1.04 0.3,0.27 0.61,1.58 -1.22,-0.44 -1.57,-0.77 -2.84,-0.66 0.12,1.2 -0.09,0.39 0.61,1.1l0.47 0.65c0.01,-0.04 -0,0.13 -0,0.19 -1.32,0.37 -1.59,-0.13 -2.63,-0.8l-0.02 -2.46 1.51 -0.49c3.43,-1.02 0.62,-4.21 -0.81,-5.37 0,-0.6 0.12,-0.38 -0.62,-0.38 -0.89,-0.98 -2.97,-1.6 -5.02,-1.55 -1.13,-1.14 -2.31,-1.33 -3.42,-2.17l-1.57 -0.06c0.48,0.69 0.51,0.73 1.9,1.31 1.1,0.47 1.23,0.2 2.28,0.92 -1.59,1.02 -2.03,0.44 -3.4,1.42l-1.09 0.53 -0.38 0.29c-0.07,0.05 -0.3,0.2 -0.37,0.25 -0.37,0.27 -0.45,0.33 -0.72,0.59 -1.19,0.32 -1.19,0.53 -2.38,1.06l-0.34 0.75c-0.97,-0.17 -0.3,-0.04 -1.24,-0.3 0.1,1.32 -0.14,0.21 0.29,1.18 -1.66,1.07 -2.02,4.13 -2.69,6.25 -1.23,3.93 1.45,3.45 0.99,6.7l-3 0.32 -0.6 1.86c2.22,-0.28 3.2,-1.05 4.55,-1.33l0.05 0.8c0.17,0.25 0.19,0.22 0.38,0.7 0.07,0.17 0.28,0.82 0.34,0.99 0.28,0.82 0.34,0.98 0.43,1.89l0.06 0.44c0.06,0.04 0.22,0.2 0.56,-0l0.57 2.15 -4.32 0.57 -0.1 1.04 1.16 0.16 3.44 -0.98c1.01,0.81 1.61,2.54 2.03,4.04 -1.8,-0.27 -3.62,0.24 -5.05,1.06l0.02 0.9c0.99,0.26 1.75,0.39 3.12,-0.51 0.96,-0.14 1.6,-0.37 2.31,-0.66 0.68,2.44 3.14,4.2 4.69,5.5l-2.27 0.89c-1.1,0.16 -1.67,-0.33 -1.95,-1.26 0.38,-0.06 0.82,-0.07 1.09,-0.22 0.77,-0.45 0.26,-0.1 0.77,-0.9l-1.85 0.25 -0.01 0.87c-0.27,-0.37 -0.84,-1.23 -1.57,-1.54 0.98,-0.99 0.97,-0.15 1.73,-1.27 -1.01,-0.53 -0.38,-0.35 -1.71,-0.2 -0.81,0.46 1.03,-0.59 -0.58,0.26 -0.53,0.28 -0.26,0.11 -0.61,0.37 -0.99,0.01 -1.38,-0.04 -2.05,0.84 1.24,1.55 1.01,-0.31 1.63,2.09 -1.15,0.34 -0.8,-0.16 -0.73,1.01 1.41,0.13 0.35,0.04 0.77,-0.31l0.55 0.16 0.43 1.55 -0.44 -0.02 -0.49 -0.05 -0.17 0.89 1.59 0.07 0.21 1.31c-0.07,0.05 -0.18,0.05 -0.2,0.15 -0.02,0.08 -0.35,0.29 -0.35,0.29 -0.38,0.39 -0.08,-0.04 -0.36,0.47 0.77,0.57 -0.05,0.46 1.38,0.07l0.4 1.62 -0.62 0.19c0.84,0.84 -0.64,0.15 0.9,0.53 0.08,0.02 0.37,0.02 0.48,0.05l0.14 1.4c-1.15,0.7 -0.48,-0.05 -0.93,0.96 1.38,0.64 2.21,-0.63 3.44,-0.77l2.69 -0.34c0.61,1.28 0.95,4.72 3.17,6.9 -1.19,0.24 -2.05,0.88 -3.07,1.27 -1.49,0.57 -2.58,0.06 -2.51,1.68l5.74 -1.54 0.44 1.7c-0.04,0.55 0.11,0.44 -0.41,0.38 -1.3,-0.18 -1.9,0.14 -3.17,0.47 -1.55,0.4 -2.32,0.06 -2.36,1.66 2.05,0.29 4.06,-0.86 5.72,-1.42l0.66 -0.25c0.3,1.49 1,2.58 1.59,3.54 1.02,1.67 2.59,6.4 4.41,8.34 0.7,0.75 0.42,0.49 0.99,1.41l0.76 0.75c1.37,2.92 2.34,3.46 2.81,4.23 -0.08,0.04 -0.2,0 -0.24,0.11 -0.1,0.3 -0.48,-0.11 -1.09,0.84 1.2,0.68 1.19,0.06 2.16,-0.19 0.7,1.16 0.81,0.56 0.96,1.4l0.69 0.2c0.05,0.12 0.15,0.12 0.18,0.22l1.65 1.37 0.03 0.51c-1.01,0.05 -1.78,0.38 -2.77,0.74l-2.37 1.16c0.94,0.48 4.68,0 5.52,-1.17zm-9.18 -6.68l-0.03 0.7c-2.44,-0.16 -3.59,0.44 -6.22,0.97l-0.05 1.11c4.32,-0.71 3.47,-1.66 6.18,-2.04 1.2,-0.17 1.38,0.04 2.02,-0.86 -1.06,-0.49 -0.74,-0.36 -1.89,0.12zm-5.93 4.98c0.49,0.22 -0.58,0.56 2.21,-0.08 0.84,-0.19 1.78,-0.65 2.13,-0.73 1.39,-0.31 3.73,-0.34 4.28,-1.66 -1.73,-0.3 -5.22,0.8 -6.84,1.29 -1.74,0.53 -1.41,-0.34 -1.78,1.17zm-18.16 -16.7l-0.5 -0.92 0.5 0.92zm18.96 2.3c0.17,0.67 -0.2,0.41 0.56,0.68l0.24 -0.74 -0.8 0.07zm-4.95 -1.42c-0.54,0.43 -0.48,-0.38 -0.52,1.14 1.15,0.12 0.76,0.33 1.47,-0.47 1.39,-0.07 2.99,-0.36 3.97,-1.41 -0.78,-0.37 -4.77,0.04 -4.91,0.74zm1.2 3.22c1.32,0.33 2.46,-0.29 3.11,-1.41 -1.64,-0.16 -3.35,-0.11 -3.11,1.41zm-6.23 -16.7c0,0 -0.01,0.9 2.4,0.12 1.43,-0.46 1.26,-0.47 1.47,-1.58 -1.49,0.13 -3.23,0.33 -3.87,1.46zm3.87 11.46c1.28,0.65 4.27,-0.56 5.16,-1.76l-4.27 0.76c-1.36,0.44 -0.69,0.03 -0.89,1zm2.87 7.64c1.06,0.56 3.59,-0.17 4.65,-0.74 1.05,-0.56 0.75,-0.27 1.03,-1.13 -1.57,-0.03 -5.05,0.7 -5.68,1.87zm-6.72 -15.6c1.19,0.85 2.34,0.29 4.5,-0.6 0.31,-0.13 0.4,-0.13 0.67,-0.3 0.94,-0.62 0.18,-0 0.64,-0.69 -1.04,-0.55 -1.82,-0.15 -3.1,0.19 -2.74,0.72 -2.28,0.16 -2.69,1.41zm15.34 -24.46l-0.67 -0.83c-2.67,-0.76 -6.04,-1.58 -7.16,-3.52l-0.8 -1.04c-0.05,0.08 -0.15,0.09 -0.17,0.23 -0,0.01 -0.95,1.9 -0.43,2.99 1.18,1.14 0.42,0.98 2.2,1.95 0.8,1.61 0.61,2.85 2.57,3.12 -0.38,-1.8 -0.36,-1.5 0.54,-2.62 3.36,-0 4.15,2.59 3.82,4.83 0.06,-0.06 0.18,-0.23 0.2,-0.17 0.02,0.05 0.15,-0.13 0.18,-0.18 0.22,-0.39 0.16,-0.12 0.31,-0.7 0.5,-1.86 -0.34,-2.81 -0.58,-4.05zm-1.97 13.31c0.03,1.33 0.5,1.46 1.61,1.95 0.14,2.44 0.78,5.58 3.54,5.98 0.33,-3.61 -1.85,-0.98 0.26,-6.98 0.91,-2.58 0.3,-5.31 -2,-6.04 0.23,1.28 0.8,2.33 -0.14,3.54 -0.85,1.09 -1.95,0.88 -3.27,1.56zm-23.17 -24.87c1.2,-0.29 1.54,-0.57 1.79,-1.5l-1.19 -0.08 -0.6 1.58zm3.03 11.84l-0.57 0.28 0.14 0.97c0.82,-0.13 1.43,-0.16 2.27,-0.47 2.44,-0.9 1.38,-0.24 1.86,-1.12 -0.24,-0.15 -0.04,-0.27 -0.73,-0.32l-2.97 0.66zm-2.82 -6.37c1.11,-0.12 2.35,-0.29 3.19,-0.69l-0.02 -1.31c-1.75,0.75 -3.23,0.09 -3.86,1.66 0.45,0.55 -0.09,0.19 0.68,0.34zm0.38 2.29c0.47,0.36 0.12,0.27 0.96,0.51l3.42 -1.21 -0.13 -0.99c-1.45,-0.01 -4.05,0.17 -4.25,1.69zm11.79 16.02c0.55,-0.83 0.32,-0.21 0,-0.85 -0.52,0.79 -0.1,0.77 0,0.85zm1.26 3.29l0.01 1.08 -0.95 0.26 -0.94 0.39 -0.45 -1.76 1.12 0.05 0.11 -1.13 -1.7 0.26c0,-2.37 0.83,-1.9 0.03,-4.54l2.39 -0.89c0.38,1.91 -0.38,4.35 0.35,6.3l0.02 -0.03zm-8.26 -41.42c1.18,-0.11 0.43,0.4 1,-0.28l-0.32 -0.76 -1.36 0.05c0.26,0.75 0.15,0.53 0.68,0.99zm1.59 -1.54l1.03 0.24 0.5 -0.49c-0.5,-0.85 -0.06,-0.41 -1.13,-0.96 -1.16,-0.36 -0.83,-0.45 -1.83,-0.07 0.68,1.22 0.55,0.5 1.43,1.28z"/>
    <path class="fil0" d="M161.62 68.79l-0.23 1.05 -1.28 -0.28 -1.06 -0.25c0.01,-1.33 -0.22,-0.67 0.39,-1.43 0.6,-1.62 -0.06,-4.25 0.26,-6.08l2.45 0.94c-0.93,2.84 0.61,4.99 -0.28,4.41 -1.21,-0.22 -0.69,-0.34 -1.57,0.37 0.29,0.41 0.08,0.11 0.46,0.43 0.87,0.74 0.26,-0.53 0.87,0.84zm-9.24 -13.35l0.71 -0.62c1.39,-4.02 1.02,-1.83 2.35,-3.28 1.16,-1.26 0.99,-2.86 0.35,-4.39 -0.3,0.18 -0.68,0.45 -0.76,0.52l-0.22 1.12 -1.6 0.83c-1.72,1.75 -6.91,0.69 -6.94,5.48 -0.01,1.81 0.37,2.2 1.12,3.11 -0.18,-2.31 -0.87,-0.84 0.34,-3.58 0.71,-1.6 1.17,-1.82 3.29,-1.68 0.67,1.01 0.47,0.73 0.59,2.52l0.77 -0.03zm-6.88 6.35l0.29 -1.09 -1.57 0.74c-0.99,2.42 -1.58,2.89 -0.44,5.99 1.56,4.27 -0.08,3.02 -0.01,6.46 2.89,-0.51 3.32,-3.19 3.66,-6.11 1.07,-0.39 1.7,-0.56 1.53,-1.99 -2.56,-0.66 -3.76,-0.73 -3.79,-3.68l0.35 -0.32zm5.42 32.27c-0.47,-0.93 -0.75,-0.79 -2.1,-0.71 0.31,0.94 0.5,1.14 1.45,1.32 -0.19,0.78 0.01,0.54 -0.37,1.08 -0.92,-0.06 -0.35,-0.12 -1.4,-0.17l-0.79 -0.13 0.4 0.72c0.64,0.37 1.06,0.18 1.72,0.01 0.34,1.45 0.52,1.2 1.31,2.21 1.33,-0.13 2.47,0.53 3.54,-0.47 0.75,-0.7 1.12,-1.91 1.17,-3.06 -1.77,-0.73 -3.05,-1.11 -4.92,-0.79zm6.12 -3.92c-0.07,-0.49 0.34,-0.77 -0.98,-1.2 -0.87,-0.28 -1.28,-0.18 -2.12,-0.04 0.44,1.06 1.95,1.91 3.09,1.24zm2.28 -5.09c-0.25,-1.23 -0.57,-0.97 -1.95,-1.25 -1.14,-0.24 -2.12,-0.33 -3.3,-0.47l1 0.9c1.15,0.6 3.19,1.36 4.25,0.82zm-6.1 1.27c0.87,0.99 4.18,1.94 5.25,1.73 0.13,-2.35 -4.84,-1.95 -5.25,-1.73zm3.24 6.68c-0.37,-1.64 -4.17,-2.22 -5.73,-2.16 0.35,0.98 -0.12,0.35 0.88,0.98 0.54,0.35 0.56,0.39 1.33,0.58 1.39,0.34 2.04,0.45 3.52,0.6zm-8.3 4.93c-0.96,-0.35 -0.97,-0.57 -2.06,-0.3l0.11 0.71 1.93 0.33 0.02 -0.74zm2.46 1.76c1.87,0.51 2.56,1.14 3.72,0.65 -0.4,-1.21 -2.11,-1.18 -3.4,-1.54 -0.22,1.57 0.26,-0.73 -0.09,0.4 -0.02,0.06 -0.17,0.4 -0.23,0.49zm-4.14 4.39l0.38 0.18 -0.53 0.76c-0.73,0.75 -0.39,0.1 -1.14,0.61 -0.92,0.63 -0.37,1.22 -3.07,2.17 -1.33,-0.68 -1.45,-1 -3.27,-1.28 -1.29,-0.2 -2.33,-0.74 -3.36,-0.15 1.35,1.34 3.4,0.72 5.44,1.93 -0.92,1.48 -4.96,2.98 -7,2.44l-5.01 -1.98c-0.43,-0.11 -0.53,-0.12 -0.92,0.03 -1.15,0.43 -0.01,-0.08 -0.45,0.47 0.62,0.72 1.39,0.7 3.52,1.45l1.02 0.34c0.04,-0.07 0.15,0.08 0.23,0.12 -0.1,0.05 0.08,0.07 -0.7,0.26 -0.11,0.03 -0.49,0.09 -0.62,0.11 -1.88,0.28 -6.9,-1.01 -7.86,-2.29 -0.68,-0.37 -0.27,0.09 -1.04,-0.76 0.58,-0.2 0.8,0.01 0.89,0.06l2.88 0.53c-0.34,-1.08 -0.37,-1.02 -1.61,-1.34 -2.61,-0.66 -4.8,-0.18 -5.57,-2.61l1.39 -0.32c-0.45,-2.79 -2.71,-0.15 -3.16,-3.03l1.83 -0.53c-0.53,-0.48 -0.22,-0.22 -0.77,-0.67 -0.79,-0.15 -1,0.09 -0.97,-1.2 1.56,-0.42 0.79,0.28 1.82,-0.64 -1.14,-1.55 -1.13,0.17 -0.96,-1.91l1.68 0.36 1.81 0.34c-0.18,-1.23 -0.15,-1.14 -1.26,-1.35l-0.75 -0.63c1.04,-1.36 3.42,-0.74 3.96,0.65 0.01,0.03 0.21,0.76 0.21,0.76 0.24,1.06 0.18,0.78 0.1,1.87 -1.2,0.51 -3.29,0.91 -3.56,2.46 -0.41,2.39 4.37,5.43 6.01,5.85 2.04,0.53 3.04,0.69 5.22,0.48 1.05,1.03 4.79,2.16 6.8,2.3 -1.09,-1.93 -4.4,-1.47 -5.9,-2.58 0.82,-0.46 1.77,-0.73 2.67,-1.17 2.77,-1.34 4.11,-2.82 5.64,-3.93 0.76,-0.55 0.14,-0.3 1.21,-0.49l0.7 -1.01 0.7 -0.82 0.45 0.68 1.35 -0.03c-0.34,-1.42 -0.55,-0.64 -1.37,-1.19 0.67,-0.68 0.47,-0.71 1.44,-1.19l0.01 -1.33c1.1,-0.67 2.42,-2.67 2.92,-3.8l0.9 -0.35c0.13,-1.09 2.08,-4.4 2.64,-5.63 0.55,-1.22 0.89,-2.12 1.49,-3 0.7,-1.03 1,-1.78 1.2,-3.03l0.69 0.26c1.61,0.58 3.61,1.81 5.69,1.44 0.01,-1.02 0.74,-0.88 -2.07,-1.58 -1.09,-0.27 -2.21,-0.63 -3.45,-0.55l-0.39 -0.29 0.56 -1.59c0.01,-0.1 0.07,-0.12 0.11,-0.18 1.7,0.65 3.65,1.38 5.63,1.52 -0.33,-1.74 -0.61,-0.9 -2.4,-1.52 -0.48,-0.17 -1.95,-0.96 -2.39,-1.23l-0.47 -0.73 0.4 0.05 0.73 -0.05c0.6,-0.91 -0.28,-0.5 0.56,-0.54 1.91,0.4 3.46,1.68 5.8,1.39 -0.12,-1.69 -0.53,-1.23 -2.17,-1.65 -1.06,-0.27 -2.37,-0.54 -3.49,-0.72 -0.31,-0.11 -0.46,-0.2 -0.53,-0.21 0.31,-2.94 1.05,-1.19 1.15,-4.54l2.83 0.29c1.12,0.13 1.23,0.47 2.21,0.77 1.27,0.4 1.07,0.1 1.36,-0.03 -0.5,-0.97 0.17,-0.24 -0.95,-0.96l0.14 -1.33 0.01 -0.72 0.72 -0.19 0.41 -1.55c1.39,0.25 0.78,0.2 1.3,-0.03l-0.55 -0.81c-0.02,-0.11 -0.13,-0.1 -0.27,-0.16l0.42 -1.54c1.45,0.36 0.82,0.51 1.44,-0.36l-0.54 -0.29c-0.75,-0.07 0.26,-0.04 -0.76,0.03l0.6 -1.57 1.44 0.08c-0.44,-1.28 -0.56,-0.53 -0.88,-1.4 0.86,-1.79 0.6,-0.33 1.63,-1.63 -0.62,-0.77 -1.11,-0.82 -2.03,-0.84 -0.38,-0.31 0.32,-0.18 -1.09,-0.58 -0.46,-0.13 -0.79,-0.14 -1.26,-0.17l-0.68 0.74 2.01 0.44c-0.59,0.36 -0.65,0.73 -1.12,1.22 -0.34,-0.24 -0.17,-0.18 -0.8,-0.36l-1.55 -0.05c0.28,1.13 0.44,0.77 1.66,1.33 -0.39,1.13 -0.33,0.35 -1.12,1.24 -0.64,-0.15 -1.18,-0.35 -1.67,-0.48 -1.82,-0.46 -0.73,0.04 -1.39,-0.57 2.3,-1.91 3.91,-3.83 4.23,-4.08l0.51 -1.37c1.05,0.46 4.03,1.6 5.36,1.14l0.07 -0.87c-1.43,-1.01 -3.31,-1.3 -5.08,-1.13 0.56,-1.71 0.98,-2.78 1.96,-4.04l3.8 1.13c1.26,-0.19 1.19,-0.19 0.65,-1.35l-4.19 -0.57 0.77 -2.19c0.81,1 2.7,1.8 4.14,1.72 0.63,-0.6 0.39,-0.32 0.49,-1.17 -1.35,-0.53 -2.51,-1.05 -4.33,-0.89 0.33,-1.68 0.86,-2.95 1.32,-4.4 1.27,0.26 2.27,1.06 3.68,1.17l0.69 0.08 -0.08 -0.57 -0.03 -0.8 -0.41 -0.39 -2.93 -0.3c-0.08,-1.31 0.04,-2.26 1.02,-2.97 0.11,-1.36 0.64,-1.47 0.33,-2.8 -0.43,-1.84 -1.56,-6.48 -3.05,-7.18 0.36,-0.7 0.29,-0.39 0.36,-1.26 -0.92,0.26 -0.33,0.13 -1.3,0.34l-0.29 -0.5c-0.69,-0.52 -1.29,-0.94 -2.25,-1.41l0.1 -0.65 1.36 -0.62c0.92,-0.65 0.61,-0.09 0.97,-1.02l-1.28 -0.14 -1.77 1.06c-0.58,0.56 -0.14,0.12 -0.94,0.47 -0.68,-0.43 -1.45,-0.96 -2.13,-1.2 -0.93,-0.32 -1.52,-0.35 -2.33,-0.83 0.9,-0.78 4.03,-1.21 4.08,-2.51 1.41,0.09 1.45,0.23 2.36,0.92 -1.95,1.89 -3.18,0.45 -3.92,2.35l4.51 -1.48c0.59,-1.02 0.31,-0.37 0.52,-1.29 -0.99,-3.04 -10.01,-5.39 -15.94,-2.83 -4.52,1.95 -8.02,9.15 -5.82,14.25 0.71,1.64 1.89,2.83 3.7,3.29 2.8,0.71 3.58,-0.05 5.42,-1.07 1.5,-1.98 0.83,-2.86 0.5,-4.98l-0.79 -0.76 -1.6 -0.51 -0.15 -1.54 0.67 -0.53c0.38,-0.58 -0.15,-0.31 0.9,-0.74l0.37 -0.39c4.36,-2.09 12.14,3.39 13.29,5.92 2.95,6.48 -1.84,8.55 -2.49,14.78 -1.35,0.87 -0.74,0.31 -1.26,1.89 -0.36,1.09 -0.63,1.3 -1.05,2.21 -0.45,0.96 -0.3,1.46 -0.73,2.38 -0.37,0.77 -2.75,4.75 -3.61,5.34 -0.63,0.44 -1.37,0.99 -1.86,1.3 -1.09,0.68 -0.93,0.08 -1.76,1.07 -0.44,1.71 0.43,2.55 1.35,3.7 0.39,10.99 -5.25,21.29 -10.33,28.12 -2.59,3.48 -6.23,7.42 -9.06,10.04 -1.31,1.22 -4.47,2.75 -6.36,3.22 -4.96,1.22 -5.32,-0.94 -7.3,-1.42l-0.02 -2.06c1.15,-0.97 2.56,-0.87 2.96,-3.17 1.35,-7.77 -10.66,-7.58 -12.82,-1.32 -2.07,5.99 2.61,11.98 3.66,12.53l0.61 0.86c4.45,5.31 11.27,4.66 17.64,3.39 2.41,-0.48 6.12,-3.29 8.02,-4.69 5.79,-4.26 3.03,1.99 9.87,4.84 2.18,0.91 8.56,1.49 8.14,-2.18l-1.84 -1.33 -0.83 -0.75c-0.99,-3.13 -0.33,-9.22 0.9,-11.71 0.71,-1.46 0.95,-3.39 1.67,-5 2.03,-4.52 3.44,-9.88 4.52,-12.05 0.15,-0.31 3.02,-10.29 4.45,-11.6l0.54 -1.05c0.53,-1.38 1.14,-3.32 1.63,-4.91 0.52,-1.67 -0.52,-0.61 0.36,-2.2 1.87,-3.39 3.18,-8.43 3.36,-12.31l-0.69 -0.28c-0.07,1.69 -0.67,2.19 -1.45,3.93 -0.95,2.14 -1.97,6.09 -2.04,6.23 -0.71,1.51 -1.83,3.89 -2.11,5.53l-3.04 7.49c-0.25,0.9 -0.55,1.33 -0.79,2.07l-1.42 6.31c-0.2,1.07 -1.27,2.5 -1.71,3.59 -0.66,1.62 -0.95,2.47 -1.55,3.81l-2.81 7.77c-2.49,6.33 -1.01,3.95 -1.67,6.26 -0.3,1.06 -0.32,0.87 -0.48,2.13 -0.6,4.7 0.49,4.38 1.31,8l-1.99 0.01 -1.22 -0.32c0.38,-0.9 -0.13,-0.44 0.76,-0.61 -0.34,-1.05 -0.15,-0.79 -1.54,-1.15 -1.17,-0.3 -0.66,0.03 -1.63,-0.79 -0.08,-1.05 -0.23,-0.29 0.56,-0.64l0 -0 1.34 0.15c1.59,-1.67 -2.44,-1.65 -3.62,-2.23l0.07 -1.43c1.09,0.02 1,-0.07 1.96,0.32 0.93,0.38 0.6,0.69 1.64,0.01 -0.27,-0.29 -0.1,-0.25 -0.56,-0.53 -1.03,-0.61 -4.57,-1.1 -5.75,-0.94l-0.21 -0.71 -5.17 -1.19 -0.13 0.78 4.93 1.23zm-4.72 0.46c-0.97,-0.35 -1.87,-0.68 -3.05,-0.81 0.36,2.15 3.23,2.26 5.07,2.24 0.65,-0.01 0.35,-0.08 0.61,-0.22l-1.26 -0.69c-0.49,-0.21 -0.78,-0.31 -1.38,-0.52zm12.2 -1.66c-0.3,-1.38 0.11,-0.73 -1.51,-1.13 -1.63,-0.4 -4.84,-1.62 -7.12,-1.4 0.67,1.27 2.55,1.45 4.05,1.71 0.53,0.09 1.96,0.77 3.46,0.98 1.92,0.27 0.36,0.22 1.12,-0.16zm9.26 -29.3c-0.33,-0.47 0.03,-0.25 -0.71,-0.68 -1.04,-0.6 -1.99,-0.71 -3.2,-0.75 0.37,1.96 2.92,2.1 3.91,1.42zm-2.64 -8.7c0.33,-0.45 0.27,-0.44 0,-0.85 -0.12,0.23 -0.64,0.13 0,0.85zm-3.69 10.36c0,0.07 0.01,0.16 0.01,0.26l-0.01 -0.21 0 -0.05zm13.21 -21.24l0.66 -0.7 -1.24 -0.62 -2.57 -0.45c-0.68,0.08 -0.44,0.14 -0.74,0.33 0.7,1.09 2.54,1.51 3.89,1.44zm2.64 -7.45c1.22,0.1 0.26,0.12 0.65,-0.36l-0.35 -0.86c-1.19,-0.2 -2.66,-0.74 -3.58,-0.41 0.2,1.73 1.48,1.34 3.28,1.63zm-21.08 -12.37c-0.4,0.46 -0.51,0.4 -1.27,-0.09 0.4,-0.81 -0.1,-0.04 0.57,-0.69 0.72,-0.69 0.32,-0.03 0.66,-0.9 -1.04,-0.53 -1.64,0.15 -2.92,0.51 0.4,-1.23 0.44,-0.7 0.66,-1.81l-1.39 -0.24c0.17,-1.99 0.23,-0.11 1.05,-1.64 -0.69,-0.32 -0.74,0.08 -1.48,-0.64 0.47,-0.82 -0.2,-0.26 1.02,-0.81 0.92,-0.49 0.7,-0.21 1.28,-1.1l-1.2 -0.64c0.29,-1.51 1.63,-1.64 3.62,-2.29 1.28,-0.41 0.94,-0.31 1.39,-1.08l-2.4 0.6c0.28,-0.86 0.26,-1.04 1.13,-1.53l3.83 -1.64c1.01,-0.31 1.67,-0.19 2.49,0.16 -1.23,0.22 -3.14,1.08 -3.63,1.96 1.3,0.51 2.21,-0.56 3.63,-1.23 0.65,-0.3 2.85,-1.59 4.39,-0.32 -2.09,0.43 -3.75,1.24 -5.08,2.44 -1.4,-0 -3.3,0.18 -4.14,1.05 -1.6,0.63 -1.39,0.89 -2.4,2.01 -0.84,0.92 -1.29,0.86 -1.46,2.42 0.37,2.02 1.48,1.54 3.15,2.33 0.25,2.22 0.35,2.63 -1.51,3.17zm15.95 -7.58c0.82,-0.45 0.33,-0.03 0.63,-0.85l-1.34 -0.03c-0.25,0.58 -0.17,0.25 -0.19,1.09l0.9 -0.21z"/>
    <path class="fil0" d="M218.36 85.26l0.68 1.67 -1.04 0.17c-1.63,0.58 -2.57,0.52 -2.68,2.71 1.22,1.15 2.04,1.37 3.59,1.91 0.23,1.48 -0.32,3.15 0.47,4.29 0.85,1.24 1.92,1.68 3.39,1.86 -0.39,-1.07 -1.52,-2.06 -1.14,-3.7 0.25,-1.06 1.68,-2.12 2.34,-2.61 0.69,-0.26 8.41,-0.82 6.65,8.62l0.33 -0.04c1.29,-0.85 1.34,-3.83 0.94,-5.82 -0.4,-1.99 -3.42,-5.03 -4.82,-6.02l-6.21 -4.44 -1.01 -0.67c-0.76,-2.05 -2.36,-3.15 -1.73,-6.21l-0.54 0.1c-0.18,0.62 -0.52,3.32 -0.42,3.96 0.15,0.94 0.89,3.56 1.23,4.23z"/>
    <path class="fil0" d="M181 78.03c0.03,1.59 -0.45,2.25 -0.94,3.25 -0.96,1.93 -0.73,1.44 -2.09,2.64 -0.97,0.86 -1.68,1.47 -2.46,2.02 -2.17,1.53 -5.23,2.76 -7.51,6.47 -1.43,2.33 -1.35,5.07 -0.53,7.69l0.71 0.19c-0.03,-2.38 -0.34,-5 0.89,-6.79 0.81,-1.19 3.74,-2.11 5.85,-1.96 0.2,0.06 2.06,1.27 2.37,2.59 0.48,2.07 -0.84,2.46 -0.99,3.83 3.81,-1.42 3.75,-1.35 3.61,-5.92 0.41,-0.34 0.06,-0.21 0.87,-0.56 1.13,-0.49 1.89,-0.71 2.85,-1.67 -0.12,-2.92 -1.83,-1.93 -3.73,-3.18 2.03,-6.53 1.95,-1.83 1.58,-9.78 0.2,0.73 0.6,1.18 -0.48,1.18z"/>
    <path class="fil0" d="M226.87 85.25l0.5 0.92c1.28,0.68 0.66,1.39 2.62,1.58 2.02,0.2 2.51,-0.4 3.21,-1.51 -2.13,0.09 -0.97,0.92 -2.86,-0.22 -0.83,-3.57 2.28,-5.53 -1.84,-9.93 -0.61,-0.65 -0.31,-0.52 -0.69,-1.3 -0.66,-1.37 -0.77,-0.9 -1.09,-1.04 -0.4,-0.46 0.1,-0.12 -0.71,-0.63 -1.08,-0.68 -2.38,-0.94 -3.67,-0.82 1.11,-1.13 1.22,-0.43 2.12,-2.09 0,-0 1.62,-1.91 -0.22,-4.25 -1.05,-1.33 -2.35,-1.34 -2.43,-3.54 0.2,-0.56 0.24,0.19 0.74,-0.93 0.01,-0.03 0.02,-0.13 0.03,-0.19l-1.17 0c-2.24,4.27 -0.86,3.18 -0.44,5.57l-0.83 0.27c-0.35,1.12 -0.8,0.37 -0.78,2.1 -0.31,0.28 -0.41,-0.48 -0.4,1.03 0.58,0.17 -0.2,0.23 0.55,0.13 0.57,-0.08 0.34,-0.04 0.69,-0.24 0.34,-1 0.27,-1 0.93,-1.66l1.51 0.04c0.48,0.56 0.45,0.41 0.62,1.19l-0.16 1.03c-2.4,1.58 -3.28,1.27 -4.73,3.89 -0.51,0.92 -0.62,1.02 -0.83,2.4l0.54 -0.1c1.26,-3.98 4.55,-4.61 8.62,-3.11 0.47,1.08 1.51,2.54 0.69,4.43 -1.59,0.34 -0.68,0.13 -1.99,-0.06l-0.72 0.24c-0.09,0.88 -1.25,2.38 1.77,4.01l0.42 2.76z"/>
    <path class="fil0" d="M166.45 86.26c-0.66,0.02 -0.53,-0.16 -0.53,0.44l0.36 0.28c0.55,0.3 0.17,-0.46 0.62,0.69 2.42,0.05 2.74,0.35 4.1,-1.15 1.49,-1.65 1.11,-1.3 1.5,-4.04 2.04,-1.21 2.37,-1.83 1.73,-4.39 -1.32,0.17 -1.12,0.64 -2.5,0.2l-0.78 -1.66c0.59,-0.74 0.2,-0.66 0.64,-1.6 0.25,-0.53 0.67,-0.95 1.04,-1.21 1.88,-1.3 7.79,-1.54 8.37,4.2 1.08,0 0.68,-0.45 0.48,-1.18 -0.53,-1.65 -0.88,-2.5 -2.01,-3.69 -0.92,-0.97 -0.18,-0.55 -1.4,-1.14 -0.81,-0.4 -0.93,-0.28 -1.58,-0.92l-0.77 -0.05c0.03,-0.95 -0.31,-2.17 0.88,-2.54 1.59,-0.49 1.91,0.73 2.3,1.9l1.05 -0.11c-0.02,-1.03 -0.09,-1.3 -0.57,-2.12 -0.71,-1.21 -0.75,-0.76 -1.53,-1.59 1.69,-1.97 0.35,-6.24 -1.64,-5.11 2.7,2.82 -1.14,2.89 -2.09,5.56 -0.54,1.5 0.01,4.04 1.45,4.18l1.07 0.99c-2.98,0.32 -5.33,0.87 -5.91,3.92 -1.42,0.38 -2.41,2.88 -2.5,4.46 -0.15,2.63 1.58,3.96 -0.32,5.99l-1.47 -0.3zm17.06 -30.84c-0.16,-2.6 -0.4,-1.47 -0.94,-3.5 -0.41,-1.55 -0.14,-2.27 -1.27,-2.81 -0.72,1.02 -0.5,1.15 -0.06,2.47 0.33,0.98 0.5,2.27 0.93,3.08 0.28,1.25 0.22,2.07 0.42,3.28l2.16 9.94c0.25,0.91 0.84,2.1 1.02,2.85 0.84,3.54 -0.85,7.74 3.54,8.71 -0.33,-3.5 -2.18,-9.08 -2.78,-12.34 -0.23,-1.24 -0.37,-1.78 -0.57,-3.02 -0.14,-0.89 -0.65,-1.46 -0.99,-2.76 -0.46,-1.75 -0.83,-4.43 -1.46,-5.89z"/>
    <path class="fil0" d="M215.51 32.3c0.08,1.31 0.59,1.34 2.1,1.33 1.09,-0 2.06,-0.44 2.4,-1.14 -0.76,-0.42 -3.63,-0.79 -4.5,-0.19z"/>
    <path class="fil0" d="M230.94 100.14l-0.33 0.04c-0.77,0.81 -2.17,2.06 -2.47,2.91 1.66,-0.39 2.42,-1.18 2.8,-2.95z"/>
    <path class="fil0" d="M170 102.88c0.74,-0.01 0.59,0.2 0.59,-0.49 -0.46,-0.27 -0.75,-0.42 -1.28,-0.93l-1.12 -1.17c0.27,1.39 0.92,1.92 1.82,2.59z"/>
    <path class="fil0" d="M170 102.88c0.39,0.28 -0.67,0.54 0.89,0.27 0.01,-0.58 0.1,-0.25 -0.31,-0.76 0,0.69 0.15,0.48 -0.59,0.49z"/>
    <path class="fil0" d="M155.05 112.1c-0.79,-0.39 1.04,-0.39 -1.03,-0.33 0.08,-0.06 0.16,-0.19 0.18,-0.23 0.03,-0.03 0.17,-0.08 0.19,-0.2 0.02,-0.11 0.12,-0.13 0.2,-0.17 -0.89,0.17 -0.38,-0.29 -0.76,0.61l1.22 0.32z"/>
    <path class="fil0" d="M166.28 86.99l-0.36 -0.28c0,-0.6 -0.14,-0.42 0.53,-0.44l-0.72 -0.32c0.06,1.19 -0.37,0.49 0.55,1.05z"/>
    <path class="fil0" d="M117.07 110.82l-0.61 -0.86c0.28,0.95 0.08,0.54 0.61,0.86z"/>
    <path class="fil0" d="M166.9 87.68c-0.45,-1.16 -0.07,-0.4 -0.62,-0.69l0.62 0.69z"/>
    <path class="fil0" d="M118.74 101.23l-0.77 -0.67c0.55,0.44 0.24,0.18 0.77,0.67z"/>
    <polygon class="fil0" points="184.12,105.89 183.39,105.05 "/>
    <polygon class="fil0" points="158.9,110.85 158.06,110.1 "/>
    <polygon class="fil0" points="220.84,83.86 219.83,83.19 "/>
    <polygon class="fil0" points="223.04,2 222.44,0.98 "/>
    <polygon class="fil0" points="154.45,29.9 153.65,29.14 "/>
   </g>
  </g>
 </g>
</svg>
