<?xml version="1.0" encoding="UTF-8"?>
<!DOCTYPE svg PUBLIC "-//W3C//DTD SVG 1.1//EN" "http://www.w3.org/Graphics/SVG/1.1/DTD/svg11.dtd">
<!-- Creator: CorelDRAW 2020 (64-Bit) -->
<svg xmlns="http://www.w3.org/2000/svg" xml:space="preserve" width="119.572mm" height="51.0528mm" version="1.1" style="shape-rendering:geometricPrecision; text-rendering:geometricPrecision; image-rendering:optimizeQuality; fill-rule:evenodd; clip-rule:evenodd"
viewBox="0 0 980.41 418.6"
 xmlns:xlink="http://www.w3.org/1999/xlink"
 xmlns:xodm="http://www.corel.com/coreldraw/odm/2003">
 <defs>
  <style type="text/css">
   <![CDATA[
    .fil1 {fill:#FEFEFE;fill-rule:nonzero}
    .fil0 {fill:url(#id0)}
   ]]>
  </style>
  <linearGradient id="id0" gradientUnits="userSpaceOnUse" x1="241.39" y1="109.06" x2="680.41" y2="190">
   <stop offset="0" style="stop-opacity:1; stop-color:#C37029"/>
   <stop offset="0.439216" style="stop-opacity:1; stop-color:#A44F1A"/>
   <stop offset="1" style="stop-opacity:1; stop-color:#852D0A"/>
  </linearGradient>
 </defs>
 <g id="Capa_x0020_1">
  <metadata id="CorelCorpID_0Corel-Layer"/>
  <g id="_3024334651056">
   <path class="fil0" d="M459.55 59.31c5.73,-4.05 10.89,-8.07 17.17,-12.58 5.24,-3.76 11.82,-9.33 17.52,-12.16 -1.29,2.83 -3.99,5.62 -6.53,7.69 -5.81,4.74 -17.6,18.19 -19.23,18.69 -0.28,0.08 -6.16,0.38 -8.93,-1.64zm196.25 141.28c-0.06,-12.4 -2.72,-29.68 4.05,-33.47 5.03,-2.81 10.18,-0.31 12.28,3.01 3.23,5.1 1.81,10.26 2.51,16.44l5.77 3.43c0.59,-7.69 2.16,-15.32 -1.43,-21.32 -4.13,-6.9 -26.19,-13.27 -25.92,9.71l0.02 18.26c0.13,4.96 -0.73,3.17 2.72,3.94zm-110.87 -121.27c-3.49,-0.7 -2.66,0.27 -2.79,-4.42 -0.27,-10.16 0.94,-12.04 -2.89,-18.96 7.21,1.44 5.62,10.3 5.68,23.39zm-12.54 -0.21l17.69 2.88c-2.07,-8.88 -1.26,-1.73 -1.65,-15.35 -0.18,-6.38 0.1,-11.1 -5.83,-12.26 -11.31,-2.22 -9.33,7.48 -9.1,16.81 0.13,5.03 0.4,4.29 -1.11,7.92zm-7.09 -2.89c-7.43,-0.69 1.59,-14.99 -6.65,-22.9 5.97,-0.5 6.32,2.9 6.48,8.77 0.12,4.53 0.41,9.65 0.17,14.13zm-12.31 0.29l17.7 2.53c-3.35,-8.34 1.7,-26 -7.85,-27.65 -13.81,-2.38 -6.85,12.04 -9.85,25.12zm88.14 126.21c5.71,-9.44 -10.09,-40.16 14.01,-36.11 7.31,4.12 5.44,22.29 5.73,30.22l7.03 3.66c-0.28,-17.07 3.72,-38.12 -15.87,-37.84 -10.25,0.15 -12.89,5.09 -12.81,14.84l0.05 20.03c0.01,4.41 -0.83,4.21 1.87,5.2zm-285.54 -8.9l0.85 -24.13c4.12,-2.63 2.8,-3.09 12.76,-7.01 26.25,-10.34 52.11,-10.29 74.38,7.89 9.82,8.02 5.78,5.92 5.36,31.44 3.5,1.89 18.42,3.46 22.31,3.93 -0.44,-8.89 -1.22,-17.78 -1.8,-26.63 -0.66,-10.1 -5.13,-13.11 -10.77,-17.45 -39.43,-30.37 -103.65,-2.51 -105.78,7.8 -0.5,2.39 -0.33,10.3 -0.42,13.28 -0.36,11.63 -1.35,10.43 3.11,10.88zm185.95 -163.52c1.14,-5.08 5.39,-20.89 7.82,-24.08 10.36,5.78 21.38,13.86 31.71,20.52 3.53,2.27 28.03,17.66 31.24,20.87 -11.44,-0.93 -24.82,-5.1 -35.98,-7.97 -4.95,-1.27 -30.6,-6.82 -34.8,-9.34zm-34.54 34.19c1.07,5.53 -4.78,75.66 -6.18,85.36 -24.23,-4.42 -45.68,-35.13 -105.02,-28.52 -43.82,4.88 -49.51,19.44 -65.4,20.19l-49.01 2.65c8.01,3.71 21.11,3.78 30.84,4.07 6.04,0.18 12.13,0.18 18.17,0.11 8.94,-0.11 8.68,0.92 14.71,-3.4 35.44,-25.35 93.21,-21.27 126.14,2.53 5.55,4.01 3.67,5.03 12.72,5.63 9.6,0.64 24.4,0.99 33.4,2.77l0.82 56.45c3.77,0.53 17.25,-6.86 22.24,-8.21l1.43 -165.16 56.32 10.8c1.84,5.3 10.12,107.45 11.41,122.22 0.85,9.68 1.78,32.52 3.88,40.28 1.56,1.65 5.68,4.93 8.15,5.85l-8.09 -68.55c22.77,-0.02 121.57,2.81 134.7,-4.62 -25.65,-12.83 -29.98,-13.61 -62.59,-14.79 -12.94,-0.47 -66.54,-0.71 -74.81,-3.18l-8.88 -74.6 19.6 -0.59c-1.12,-5.36 0.23,-1.91 -8.3,-8.16l-27.83 -19.42c-45.29,-32.37 -34.95,-26.21 -45.56,-16.12 -3.6,3.43 -4.43,5.55 -7.72,8.62l-30.92 34.48c-10.76,13.07 -10.79,12.28 5.77,13.3z"/>
   <path id="Trazado_1" class="fil1" d="M344.14 396.79c1,2 1.33,4 1.33,6.34 0,2 -0.33,4.33 -1.33,6 -1,1.67 -2.33,3.33 -4,4.67 -1.67,1.33 -3.33,2.33 -5.34,3 -2,0.67 -4,1 -6.34,1l-11.67 -0c0.33,-0.33 0.33,-1 0.33,-1.33 0,-0.33 0.33,-0.67 0.33,-1 0,-0.33 0,-0.67 0,-1l0 -23.01c0,-0.67 0,-1.33 0,-1.67 0,-0.67 -0.33,-1.33 -0.67,-1.67l12.34 0c2,0 4.33,0.33 6.34,1 2,0.67 3.67,1.67 5.34,3 1.33,1 2.67,2.67 3.33,4.67l0 0zm-3.67 7c0,-1.67 -0.33,-3.67 -1,-5.34 -0.67,-1.67 -1.67,-3 -2.67,-4.33 -1.33,-1.33 -2.67,-2.33 -4,-3 -1.67,-0.67 -3.33,-1 -5.34,-1l-5.34 0 0 26.68 6 0c1.67,0 3.67,-0.33 5.34,-1 3,-1 5.34,-3.33 6.34,-6.34 0.33,-2.33 0.67,-4 0.67,-5.67l0 0zm36.35 12.34l-8.67 0 0 -15.01 10 0 0.67 -1.67 -10.67 0 0 -9.67 8 0c0.67,0 1.67,0 2.33,0.33 0.67,0.33 1.33,0.33 2.33,0.67l-1.33 -3 -16.67 0c0.33,0.67 0.33,1.33 0.67,2 0,0.67 0.33,1.33 0.33,2l0 21.68c0,0.67 0,1.33 0,2 0,0.67 -0.33,1.33 -0.67,2l17.34 0 1.33 -2.67c-0.67,0.33 -1.67,0.67 -2.33,0.67 -1,0.67 -2,0.67 -2.67,0.67l0 0zm39.02 -13.01c-1,-0.67 -2,-1.33 -3.34,-2l-3.33 -1.67c-0.67,-0.33 -1.33,-0.67 -2,-1 -0.67,-0.33 -1.33,-1 -2,-1.33 -0.67,-0.67 -1.33,-1 -1.67,-1.67 -0.33,-0.67 -0.67,-1.33 -0.67,-2 0,-0.67 0.33,-1.33 0.67,-1.67 0.33,-0.67 1,-1 1.33,-1.33 0.67,-0.33 1.33,-0.67 2,-0.67 0.67,-0.33 1.33,-0.33 2,-0.33 0.67,0 1.67,0 2.33,0.33 0.67,0.33 1.67,0.67 2.33,1 0.67,0.33 1.33,0.67 2,1.33 0.67,0.33 1.33,1 2,1.67l-0.33 -3.33c-1.33,-0.67 -2.67,-1.33 -4.33,-1.67 -1.33,-0.33 -3,-0.67 -4.67,-0.67 -1,0 -2.33,0 -3.33,0.33 -1.33,0.33 -2.33,0.67 -3.33,1.33 -1,0.67 -2,1.33 -2.67,2.33 -1.33,2 -1.33,4.67 0.33,6.67 1,1 2,2 3,2.67 1.33,0.67 2.67,1.67 4,2.33 1.33,0.67 2.67,1.33 4,2 1,0.67 2,1.33 3,2.33 0.67,1 1.33,2 1.33,3 0,1 0,1.67 -0.67,2.33 -0.33,0.67 -0.67,1.33 -1.33,2 -0.67,0.67 -1.33,1 -2,1.33 -0.67,0.33 -1.67,0.33 -2.67,0.33 -1,0 -2,-0.33 -3,-0.67 -1,-0.33 -2,-1 -3,-1.33 -1,-0.67 -2,-1.33 -2.67,-2 -0.67,-0.67 -1.67,-1.33 -2.33,-2l0.67 4.33c1.67,1 3.33,1.67 5,2.33 1.67,0.67 3.67,1 5.34,0.67 1.33,0 2.67,-0.33 4,-0.67 1.33,-0.33 2.67,-1 3.67,-1.67 1,-0.67 2,-1.67 2.67,-2.67 0.67,-1.33 1,-2.67 1,-4 0,-1.33 -0.33,-2.33 -1,-3.67 -0.67,-1 -1.67,-2 -2.33,-2.67l0 0zm48.35 -6.34c1,2 1.33,4 1.33,6.34 0,2 -0.33,4.33 -1.33,6 -1,1.67 -2.33,3.33 -4,4.67 -1.67,1.33 -3.33,2.33 -5.34,3 -2,0.67 -4,1 -6.34,1l-11.67 -0c0.33,-0.33 0.33,-1 0.33,-1.33 0,-0.33 0.33,-0.67 0.33,-1 0,-0.33 0,-0.67 0,-1l0 -23.01c0,-0.67 0,-1.33 0,-1.67 0,-0.67 -0.33,-1.33 -0.33,-1.67l12.34 0c2,0 4.33,0.33 6.34,1 2,0.67 3.67,1.67 5.34,3 0.67,1 2,2.67 3,4.67l0 0zm-4 6.67c0,-1.67 -0.33,-3.67 -1,-5.34 -0.67,-1.67 -1.33,-3 -2.67,-4.33 -1.33,-1.33 -2.67,-2.33 -4,-3 -1.67,-0.67 -3.33,-1 -5.34,-1l-5.33 0 0 26.68 6 0c1.67,0 3.67,-0.33 5.34,-1 3,-1 5.34,-3.33 6,-6.34 1,-2 1,-3.67 1,-5.67l0 0zm36.68 12.67l-8.67 0 0 -15.01 10 0 0.67 -1.67 -10.67 0 0 -9.67 8 0c0.67,0 1.67,0 2.33,0.33 0.67,0.33 1.33,0.33 2.33,0.67l-1.33 -3 -16.67 0c0.33,0.67 0.33,1.33 0.67,2 0,0.67 0.33,1.33 0.33,2l0 21.68c0,1.33 -0.33,2.67 -0.67,4l17.34 0 1.33 -2.67c-0.67,0.33 -1.67,0.67 -2.33,0.67 -1.33,0.67 -2,0.67 -2.67,0.67l0 0zm56.02 -0.67c0,-0.33 0,-0.67 0,-1l0 -26.34 -1 -0.67 -6.34 3.67 0.67 1c0.33,0 0.67,-0.33 0.67,-0.33 0.33,0 0.67,-0.33 1,-0.33 0.33,0 0.67,0 0.67,0.33 0,0.33 0,0.67 0,1l0 21.34c0,1.33 -0.33,2.67 -0.67,4l6 0c-0.33,-0.33 -0.33,-0.67 -0.33,-1.33 -0.67,-0.67 -0.67,-1 -0.67,-1.33l0 0zm41.02 -9.67c0.33,1 0.67,2 0.67,3 0,1.33 -0.33,3 -1,4 -0.67,1 -1.67,2 -2.67,3 -1.33,0.67 -2.33,1.33 -4,1.67 -1.33,0.33 -2.67,0.67 -4,0.67 -1.33,0 -2.67,-0.33 -4,-0.67 -1.33,-0.33 -2.67,-1 -3.67,-1.67 -1,-0.67 -2,-1.67 -2.67,-3 -0.67,-1.33 -1,-2.67 -1,-4 0,-1 0,-1.67 0.33,-2.67 0.33,-0.67 0.67,-1.33 1.33,-2 0.67,-0.67 1.33,-1.33 2,-1.67 0.67,-0.67 1.67,-1 2.33,-1.33 -1,-0.67 -2,-1.33 -2.67,-2.67 -0.67,-1 -1,-2.33 -1,-3.33 0,-1.33 0.33,-2.33 0.67,-3.33 0.33,-1 1.33,-1.67 2,-2.67 1,-0.67 2,-1.33 3,-1.67 1,-0.33 2.33,-0.67 3.34,-0.67 1,0 2,0 3,0.33 1,0.33 2,0.67 3,1.33 1,0.67 1.67,1.33 2.33,2 0.67,1 1,2 1,3 0,0.67 0,1.33 -0.33,2 -0.33,0.67 -0.67,1.33 -1,1.67 -0.33,0.67 -1,1 -1.33,1.33 -0.67,0.33 -1,0.67 -1.67,1.33 1,0.33 1.67,1 2.67,1.67 0.67,0.67 1.67,1.33 2,2 0.67,0.67 1,1.67 1.33,2.33l0 0zm-16.01 -12.34c0,1 0.33,2 0.67,2.67 0.67,0.67 1.33,1.33 2,1.67 0.67,0.33 1.67,0.67 2.67,1 1,0.33 1.67,0.33 2.67,0.67 0.67,-0.67 1.33,-1.33 1.67,-2.33 0.33,-1 0.67,-2 0.67,-2.67 0,-0.67 0,-1.33 -0.33,-2.33 -0.33,-0.67 -0.67,-1.33 -1.33,-1.67 -0.67,-0.33 -1,-1 -1.67,-1 -0.67,-0.33 -1.33,-0.33 -2.33,-0.33 -1.33,0 -2.67,0.33 -3.67,1 -0.67,0.67 -1,2 -1,3.33l0 0zm12.34 16.01c0,-1.33 -0.33,-2.33 -1,-3.33 -0.67,-1 -1.67,-1.67 -2.67,-2 -1,-0.67 -2.33,-1 -3.33,-1.33 -1.33,-0.33 -2.33,-0.67 -3.33,-1 -1.33,0.67 -2.33,1.67 -3,3 -0.67,1.33 -1,2.67 -1,4 0,1 0.33,2 0.67,3 0.33,1 1,1.67 1.67,2.33 0.67,0.67 1.67,1 2.67,1.33 1,0.33 2,0.67 3,0.33 1,0 2,-0.33 2.67,-0.67 0.67,-0.33 1.67,-0.67 2,-1.33 0.67,-0.67 1,-1.33 1.33,-2.33 0,0 0.33,-1 0.33,-2l0 0zm43.02 -3.67c0.33,1 0.67,2 0.67,3 0,1.33 -0.33,3 -1,4 -0.67,1 -1.67,2 -2.67,3 -1.33,0.67 -2.33,1.33 -4,1.67 -1.33,0.33 -2.67,0.67 -4,0.67 -1.33,0 -2.67,-0.33 -4,-0.67 -1.33,-0.33 -2.67,-1 -3.67,-1.67 -1,-0.67 -2,-1.67 -2.67,-3 -0.67,-1.33 -1,-2.67 -1,-4 0,-1 0,-1.67 0.33,-2.67 0.33,-0.67 0.67,-1.33 1.33,-2 0.67,-0.67 1.33,-1.33 2,-1.67 0.67,-0.67 1.67,-1 2.33,-1.33 -1,-0.67 -2,-1.33 -2.67,-2.67 -0.67,-1 -1,-2.33 -1,-3.33 0,-1.33 0.33,-2.33 0.67,-3.33 0.67,-1 1.33,-1.67 2,-2.67 1,-0.67 2,-1.33 3,-1.67 1,-0.33 2.33,-0.67 3.33,-0.67 1,0 2,0 3,0.33 1,0.33 2,0.67 3,1.33 1,0.67 1.67,1.33 2.33,2 0.67,1 1,2 1,3 0,0.67 0,1.33 -0.33,2 -0.33,0.67 -0.67,1.33 -1,1.67 -0.33,0.67 -1,1 -1.33,1.33 -0.67,0.33 -1,0.67 -1.67,1.33 1,0.33 1.67,1 2.67,1.67 0.67,0.67 1.67,1.33 2,2 0.33,0.67 1,1.67 1.33,2.33l0 0zm-16.34 -12.34c0,1 0.33,2 0.67,2.67 0.67,0.67 1.33,1.33 2,1.67 0.67,0.33 1.67,0.67 2.67,1 1,0.33 1.67,0.33 2.67,0.67 0.67,-0.67 1.33,-1.33 1.67,-2.33 0.33,-1 0.67,-2 0.67,-2.67 0,-0.67 0,-1.33 -0.33,-2.33 -0.33,-0.67 -0.67,-1.33 -1.33,-1.67 -0.67,-0.67 -1,-1 -1.67,-1 -0.67,-0.33 -1.33,-0.33 -2.33,-0.33 -1.33,0 -2.67,0.33 -3.33,1 -1,0.67 -1.33,2 -1.33,3.33l0 0zm12.34 16.01c0,-1.33 -0.33,-2.33 -1,-3.33 -0.67,-1 -1.67,-1.67 -2.67,-2 -1,-0.67 -2.33,-1 -3.67,-1.33 -1.33,-0.33 -2.33,-0.67 -3.33,-1 -1.33,0.67 -2.33,1.67 -3,3 -0.67,1.33 -1,2.67 -1,4 0,1 0.33,2 0.67,3 0.33,1 1,1.67 1.67,2.33 0.67,0.67 1.67,1 2.33,1.33 1,0.33 2,0.33 3,0.33 1,0 2,-0.33 2.67,-0.67 0.67,-0.33 1.67,-0.67 2,-1.33 0.67,-0.67 1,-1.33 1.33,-2.33 0.67,0 1,-1 1,-2l0 0zm43.02 -3.67c0.33,1 0.67,2 0.67,3 0,1.33 -0.33,3 -1,4 -0.67,1 -1.67,2 -2.67,3 -1.33,0.67 -2.33,1.33 -4,1.67 -1.33,0.33 -2.67,0.67 -4,0.67 -1.33,0 -2.67,-0.33 -4,-0.67 -1.33,-0.33 -2.67,-1 -3.67,-1.67 -1,-0.67 -2,-1.67 -2.67,-3 -0.67,-1.33 -1,-2.67 -1,-4 0,-1 0,-1.67 0.33,-2.67 0.33,-0.67 0.67,-1.33 1.33,-2 0.67,-0.67 1.33,-1.33 2,-1.67 0.67,-0.67 1.67,-1 2.33,-1.33 -1,-0.67 -2,-1.33 -2.67,-2.67 -0.67,-1 -1,-2.33 -1,-3.33 0,-1.33 0.33,-2.33 0.67,-3.33 0.33,-1 1.33,-1.67 2,-2.67 1,-0.67 2,-1.33 3,-1.67 1,-0.33 2.33,-0.67 3.34,-0.67 1,0 2,0 3,0.33 1,0.33 2,0.67 3,1.33 1,0.67 1.67,1.33 2.33,2 1,1.33 1,3.33 0.67,5 -0.33,0.67 -0.67,1.33 -1,1.67 -0.33,0.67 -1,1 -1.33,1.33 -0.67,0.33 -1,0.67 -1.67,1.33 1,0.33 1.67,1 2.67,1.67 0.67,0.67 1.67,1.33 2,2 0.67,0.67 1,1.67 1.33,2.33l0 0zm-16.01 -12.34c0,1 0.33,2 0.67,2.67 0.67,0.67 1.33,1.33 2,1.67 0.67,0.33 1.67,0.67 2.67,1 1,0.33 1.67,0.33 2.67,0.67 0.67,-0.67 1.33,-1.33 1.67,-2.33 0.33,-1 0.67,-2 0.67,-2.67 0,-0.67 0,-1.33 -0.33,-2.33 -0.33,-0.67 -0.67,-1.33 -1.33,-1.67 -0.67,-0.33 -1,-1 -1.67,-1 -0.67,-0.33 -1.33,-0.33 -2.33,-0.33 -1.33,0 -2.67,0.33 -3.67,1 -0.67,0.67 -1.33,2 -1,3.33l0 0zm12.01 16.01c0,-1.33 -0.33,-2.33 -1,-3.33 -0.67,-1 -1.67,-1.67 -2.67,-2 -1,-0.67 -2.33,-1 -3.33,-1.33 -1.33,-0.33 -2.33,-0.67 -3.34,-1 -1.33,0.67 -2.33,1.67 -3,3 -0.67,1.33 -1,2.67 -1,4 0,1 0.33,2 0.67,3 0.33,1 1,1.67 1.67,2.33 0.67,0.67 1.67,1 2.33,1.33 1,0.33 2,0.33 3,0.33 1,0 2,-0.33 2.67,-0.67 0.67,-0.33 1.67,-0.67 2,-1.33 0.67,-0.67 1,-1.33 1.33,-2.33 0.67,0 0.67,-1 0.67,-2l0 0zm-599.58 -148.73c0.67,3 1,6 1.33,9l0 58.69 -64.36 -70.7 0 -0.33 -4 0 0 84.03c0,3 -0.33,6 -1.33,8.67l-0.33 1 9.67 0 -0.33 -1c-1,-3 -1.33,-5.67 -1.33,-8.67l0 -58.36 64.03 70.7 0.33 0.33 4 0 0 -84.7c0,-3 0.67,-6 1.33,-9l0.33 -0.67 -9.34 0 0 1zm46.02 84.7c-0.33,-1.67 -0.33,-3.33 -0.33,-5l0 -52.36c0,-3.33 0.67,-6.34 1.67,-9.34l0.33 -1 -16.67 0 0.33 1c1.33,3 2,6.34 1.67,9.34l0 52.36c0,3.33 -0.67,6.67 -2,9.67l-0.33 1 16.67 0 -0.33 -1c-0.33,-1.33 -0.67,-3 -1,-4.67l0 0zm59.69 -0.67l-0.33 0 0.33 0c0,0 0,0 0,0l0 0zm0 0c0.33,0 0.33,0 0,0 -1,0.33 -0.67,0.33 -0.33,0 -1.67,0.67 -3.33,0.67 -5.34,0.67l-20.01 0 0 -34.35 23.68 0 2 -5.34 -25.68 0 0 -22.34 18.67 0c3.67,0.33 7.34,1 10.67,2.67l1.33 0.33 -3.67 -8.67 -41.35 0 0.33 1c1.33,3 2,6.34 1.67,9.67l0 52.36c0,3.33 -0.67,6.34 -1.67,9.34l-0.33 1 43.02 0 3.67 -8.34 -1.33 0.33c-1.67,0.67 -3.67,1.33 -5.34,1.67l0 0zm18.34 -67.03l-4 8.67 1.33 -0.67c3.33,-1.33 6.67,-2.33 10.34,-2.67l15.67 -0 0 57.36c0,3.33 -0.67,6.67 -2,9.67l0 1 16.34 0 -0.33 -1c-1.33,-2.67 -2,-5.67 -1.67,-8.67l0 -58.02 15.67 0c3.67,0.33 7,1 10.34,2.67l1.33 0.67 -3.67 -8.67 -59.36 -0.33zm126.05 69.03c-14.67,7.34 -32.01,6 -45.02,-3.67 -6,-4.33 -10.34,-10.67 -12.34,-18.01 -2.33,-7.67 -1.67,-15.67 1.33,-23.34 6.34,-14.34 20.34,-24.01 36.01,-24.68 15.34,-0.67 31.35,7 38.35,21.34 4.33,9 4.33,19.34 0.67,28.68 -4,8.67 -10.67,15.67 -19.01,19.67l0 0zm1.33 -10c2.33,-3 4.33,-6.34 5.34,-10 1,-3.67 1.33,-7.67 1.33,-11.67 -0.33,-4 -1.33,-8.34 -2.67,-12 -2.67,-6.34 -7,-11.67 -12.34,-15.34 -2.67,-2 -5.67,-3.33 -9,-3.67 -3,-0.33 -6.34,0 -9.34,0.67 -12.67,3 -20.01,15.34 -20.01,27.68l0 2c0.67,7.67 3.33,15.01 8,21.01 4.67,5.67 11.34,10.67 18.67,10.67 7.34,-0.33 15.01,-3.67 20.01,-9.34l0 0zm16.67 -38.35c2,4.67 -2.33,-4.33 0,0zm106.71 37.01c3.33,-6.67 3,-14.67 -0.67,-21.01 -2,-3.34 -4.67,-6 -7.67,-8.34l-0.33 0 0 0c-6.67,-4.67 -13.34,-8.34 -20.68,-11.67 -3.33,-1.67 -6.67,-3.67 -10,-6 -3,-2 -5.67,-5 -7.34,-8.67 -3,-8 5.67,-13.67 12.34,-15.01 8,-1.67 16.67,2 23.01,6.67 2.33,1.67 4.33,3.34 6.34,5.34l1.33 1.33 -1.33 -12.34 -0.33 0c-7.34,-4 -15.67,-6.34 -24.01,-7 -8.34,-0.33 -16.34,1.33 -23.34,5.67 -6.67,3.33 -10.67,10.34 -10.67,17.67 0.33,7.67 6,13.01 11.67,17.01 6.67,4.67 14.34,7.67 21.68,11.67 6,3.34 14.01,8 15.34,15.34 1.33,7.67 -2.67,15.01 -9.67,18.34 -7.67,3.67 -16.01,1.67 -23.34,-2 -6.67,-3.33 -12.67,-8 -18.01,-13.34l-1.33 -1.33 2 14.67 0.33 0c14.01,8.67 31.68,12.67 47.35,6.67 8,-2.33 13.67,-7.34 17.34,-13.67l0 0zm-8.67 -29.68l0 0c-0.33,-0.33 -1,-1 0,0l0 0zm0.33 0c0,0 0,0 0,0l0.67 0.33c-0.33,0 -0.33,0 -0.67,-0.33l0 0zm68.36 39.02c0.33,0 0.33,0 0.67,0 0.33,0 -0.33,0 -0.67,0 -1.67,0.67 -3.67,0.67 -5.34,0.67l-20.01 0 0 -34.35 24.01 0 2 -5.34 -25.68 0 0 -22.34 18.67 0c3.67,0.33 7.34,1 10.67,2.67l1.33 0.33 -3.67 -8.67 -41.35 0 0.33 1c1.33,3 2,6.34 1.67,9.67l0 52.36c0,3.33 -0.67,6.34 -1.67,9.34l-0.33 1 43.02 0 3.67 -8.34 -1.33 0.33c-2.33,0.67 -4,1.33 -6,1.67l0 0zm147.06 -1.67c-1.67,0.67 -3.67,1.33 -5.34,1.67 0.33,0 0.33,0 0.67,0 0,0 -0.33,0 -0.67,0 -1.67,0.67 -3.67,0.67 -5.34,0.67l-20.01 0 0 -34.35 23.68 0 2 -5.34 -25.68 0 0 -22.34 18.67 0c3.67,0.33 7.34,1 10.67,2.67l1.33 0.33 -3.67 -8.67 -41.35 0 0.33 1c1.33,3 1.67,6.34 1.67,9.67l0 52.36c0,3.33 -0.67,6.34 -1.67,9.34l-0.33 1 43.02 0 3.67 -8.34 -1.67 0.33zm-119.38 0l0 -46.35 51.02 56.36 0.33 0.33 3.33 0 0 -67.69c0,-2.33 0.33,-4.67 1,-7l0.33 -0.67 -7.67 0 0.33 0.67c0.67,2.33 1,4.67 1,7l0 46.69 -51.69 -56.36 -0.33 -0.33 -3 -0 0 67.36c0,2.33 -0.33,4.67 -1,7l-0.33 1 8 0 -0.33 -1c-0.67,-2 -1,-4.33 -1,-7l0 0zm132.39 -65.36l-3.67 8.67 1.33 -0.67c3.33,-1.33 6.67,-2.33 10.34,-2.67l15.67 0 0 57.36c0,3.33 -0.67,6.67 -2,9.67l-0.33 1 16.34 0 -0.33 -1c-1.33,-2.67 -2,-5.67 -2,-8.67l0 -58.02 15.67 0c3.67,0.33 7,1 10.34,2.67l1.33 0.67 -3.67 -8.67 -59.02 -0.33zm90.37 67.69c-0.33,-1.67 -0.33,-3.33 -0.33,-5l0 -52.36c0,-3.33 0.67,-6.34 2,-9.34l0.33 -1 -16.67 0 0.33 1c1.33,3 2,6.34 1.67,9.34l0 52.36c0,3.33 -0.67,6.67 -1.67,9.67l-0.33 1 16.67 0 -0.33 -1c-0.67,-1.33 -1.33,-3 -1.67,-4.67l0 0zm225.43 4.34c-6.34,-4.67 -12.67,-9.67 -18.67,-15.01 -5.67,-5.34 -11.01,-11.34 -15.67,-17.67 6,-0.67 11.67,-3.33 15.67,-7.67 3.67,-4.67 5,-11.01 3,-16.67 -3.34,-13.01 -18.34,-15.34 -29.68,-15.34l-19.01 0 0.33 1c1.33,3.34 2,6.67 2,10.34l0 51.02c0,3.67 -0.67,7 -2,10.34l-0.33 1 16.67 0 -0.33 -1c-1.33,-3.33 -2,-6.67 -2,-10.34l0 -56.69 2 0c4.67,-0.33 9.67,0.67 14.01,3 3.67,2.67 6,6.67 6.34,11.34 0.67,4.67 -1,9.34 -4.67,12.67 -4,2.67 -9,3.67 -13.67,2.33l-0.33 0 -2.33 1.33 0.33 0.67c8.34,13.34 18.67,26.01 30.01,37.02l0.33 0.33 19.01 0 -1 -2zm-84.37 -5c0,0 0.33,0 0.33,0l-0.33 0c-1.67,0.67 -3.67,0.67 -5.34,0.67l-20.01 0 0 -34.35 24.01 0 2 -5.34 -25.68 0 0 -22.34 18.67 0c3.67,0.33 7.34,1 10.67,2.67l1.33 0.33 -3.67 -8.67 -41.35 0 0.33 1c1.33,3 2,6.34 1.67,9.67l0 52.36c0,3.33 -0.67,6.34 -1.67,9.34l-0.33 1 43.02 0 3.67 -8.34 -1.33 0.33c-2.33,0.67 -4.33,1.33 -6,1.67l0 0zm-65.69 -66.36c0.67,2.33 1,4.67 1,7l0 46.69 -51.35 -56.36 -0.33 -0.33 -3 0 0 67.7c0,2.33 -0.33,4.67 -1,7l-0.33 1 8 0 -0.33 -1c-0.67,-2.33 -1,-4.67 -1,-7l0 -46.35 51.02 56.36 0.33 0.33 3.33 0 0 -67.69c0,-2.33 0.33,-4.67 1,-7l0 -0.67 -7.67 0 0.33 0.33z"/>
  </g>
 </g>
</svg>
