<?xml version="1.0" encoding="UTF-8"?>
<!DOCTYPE svg PUBLIC "-//W3C//DTD SVG 1.1//EN" "http://www.w3.org/Graphics/SVG/1.1/DTD/svg11.dtd">
<!-- Creator: CorelDRAW 2020 (64-Bit) -->
<svg xmlns="http://www.w3.org/2000/svg" xml:space="preserve" width="44.0378mm" height="16.1904mm" version="1.1" style="shape-rendering:geometricPrecision; text-rendering:geometricPrecision; image-rendering:optimizeQuality; fill-rule:evenodd; clip-rule:evenodd"
viewBox="0 0 1589.11 584.23"
 xmlns:xlink="http://www.w3.org/1999/xlink"
 xmlns:xodm="http://www.corel.com/coreldraw/odm/2003">
 <defs>
  <style type="text/css">
   <![CDATA[
    .fil1 {fill:#C40D43;fill-rule:nonzero}
    .fil0 {fill:#EEF6F9;fill-rule:nonzero}
   ]]>
  </style>
 </defs>
 <g id="Capa_x0020_1">
  <metadata id="CorelCorpID_0Corel-Layer"/>
  <polygon class="fil0" points="129.31,500.1 152.68,8.57 255.5,8.57 255.5,576.44 199.42,576.44 199.42,299.13 206.43,63.87 204.87,63.87 164.36,576.44 91.14,576.44 50.63,63.87 48.3,63.87 55.3,299.13 55.3,576.44 -0,576.44 -0,8.57 102.05,8.57 126.19,500.1 "/>
  <path id="1" class="fil0" d="M452.58 524.25c0,22.33 -7.27,37.91 -21.81,46.74 -14.54,8.83 -33.24,13.24 -56.09,13.24 -22.33,0 -40.77,-4.42 -55.31,-13.24 -14.54,-8.83 -21.81,-24.41 -21.81,-46.74l0 -464.27c0,-22.33 7.27,-37.91 21.81,-46.74 14.54,-8.83 32.98,-13.24 55.31,-13.24 22.85,0 41.54,4.41 56.09,13.24 14.54,8.83 21.81,24.41 21.81,46.74l0 464.27zm-55.31 -463.49c0,-6.75 -2.46,-11.68 -7.4,-14.8 -4.93,-3.11 -10,-4.67 -15.19,-4.67 -5.19,0 -10.13,1.56 -14.8,4.67 -4.67,3.12 -7.01,8.05 -7.01,14.8l0 460.37c0,6.75 2.34,11.68 7.01,14.8 4.68,3.11 9.61,4.67 14.8,4.67 5.19,0 10.26,-1.69 15.19,-5.06 4.94,-3.38 7.4,-8.44 7.4,-15.19l0 -459.6z"/>
  <path id="2" class="fil0" d="M649.67 457.26c0,7.79 0.13,17.79 0.39,29.99 0.26,12.2 0.78,24.41 1.56,36.61 0.78,12.2 1.69,23.24 2.72,33.1 1.04,9.87 2.34,16.36 3.9,19.48l-56.87 0c-1.56,-2.6 -2.73,-8.7 -3.5,-18.31 -0.78,-9.61 -1.43,-20.64 -1.95,-33.11 -0.52,-12.46 -0.91,-24.92 -1.17,-37.39 -0.26,-12.46 -0.39,-22.85 -0.39,-31.16l0 -116.07c0,-15.06 -6.49,-22.59 -19.48,-22.59l-24.93 0 0 258.62 -55.3 0 0 -567.88 81.79 0c24.41,0 42.71,4.03 54.92,12.07 12.2,8.05 18.31,22.72 18.31,44.01l0 186.18c0,14.02 -4.28,24.28 -12.85,30.77 -8.57,6.49 -21.42,11.3 -38.56,14.41l0 2.34c17.14,1.56 29.99,5.19 38.56,10.9 8.57,5.71 12.85,15.84 12.85,30.38l0 117.63zm-55.31 -386.38c0,-15.58 -6.49,-23.37 -19.48,-23.37l-24.93 0 0 228.24 24.93 0c12.98,0 19.48,-7.53 19.48,-22.59l0 -182.28z"/>
  <polygon id="3" class="fil0" points="814.81,309.25 747.04,309.25 747.04,529.71 821.82,529.71 821.82,576.44 691.74,576.44 691.74,8.57 821.82,8.57 821.82,55.31 747.04,55.31 747.04,265.63 814.81,265.63 "/>
  <polygon id="4" class="fil1" points="1119.39,2.33 1088.23,576.44 1012.67,576.44 982.29,117.62 951.91,576.44 877.91,576.44 843.63,2.33 898.16,2.33 915.3,500.1 948.8,2.33 1017.35,2.33 1050.84,500.1 1067.98,2.33 "/>
  <polygon id="5" class="fil1" points="1203.52,576.44 1148.22,576.44 1148.22,8.57 1203.52,8.57 "/>
  <polygon id="6" class="fil1" points="1248.7,576.44 1248.7,8.57 1304.01,8.57 1361.65,334.96 1361.65,8.57 1416.96,8.57 1416.96,576.44 1361.65,576.44 1304.01,264.85 1304.01,576.44 "/>
  <polygon id="7" class="fil1" points="1582.1,309.25 1514.33,309.25 1514.33,529.71 1589.11,529.71 1589.11,576.44 1459.03,576.44 1459.03,8.57 1589.11,8.57 1589.11,55.31 1514.33,55.31 1514.33,265.63 1582.1,265.63 "/>
 </g>
</svg>
